<svg width="84" height="84" viewBox="0 0 84 84" fill="none" xmlns="http://www.w3.org/2000/svg">
<circle cx="42" cy="42" r="42" fill="url(#paint0_linear_315_60)"/>
<path d="M53.3631 48.8614H52.9681V50.4414C52.9681 53.3028 50.9293 55.6967 48.2281 56.2472V62.4495H54.5481V59.1315C54.5481 58.477 55.0787 57.9465 55.7331 57.9465C56.3876 57.9465 56.9182 58.477 56.9182 59.1315V62.4495H61.2632C61.9176 62.4495 62.4482 61.9189 62.4482 61.2645V57.9465C62.4482 52.9289 58.3807 48.8614 53.3631 48.8614ZM43.4881 47.6194V50.4414C43.4881 52.4017 45.0829 53.9964 47.0431 53.9964C49.0033 53.9964 50.5981 52.4017 50.5981 50.4414V47.6194C49.4856 48.0139 48.2891 48.2294 47.0431 48.2294C45.797 48.2294 44.6006 48.0139 43.4881 47.6194ZM47.0431 45.8594C42.4692 45.8594 38.748 42.1382 38.748 37.5643V34.1379C38.748 33.7902 38.9008 33.46 39.1659 33.2347C39.2969 33.1236 39.4505 33.0422 39.6161 32.9962C39.7816 32.9502 39.9552 32.9408 40.1248 32.9685C42.8562 33.4166 45.6212 32.1045 47.0055 29.7043C47.0857 29.5652 47.1934 29.4438 47.322 29.3476C47.4506 29.2513 47.5974 29.1822 47.7535 29.1445C47.9096 29.1068 48.0717 29.1012 48.23 29.128C48.3884 29.1549 48.5396 29.2136 48.6745 29.3007L54.7957 33.2507C54.9621 33.3581 55.099 33.5055 55.1937 33.6794C55.2885 33.8533 55.3382 34.0482 55.3381 34.2463V37.5643C55.3381 42.1382 51.617 45.8594 47.0431 45.8594Z" fill="white"/>
<path d="M47.0431 22C40.2912 22 34.7981 27.4931 34.7981 34.2451V40.5924C36.0943 41.1233 37.0101 42.398 37.0101 43.8831V47.1022C38.1902 46.6983 39.4383 46.4901 40.7231 46.4901H41.1181V46.4265C38.2619 44.5109 36.3781 41.253 36.3781 37.5631V34.1367C36.3777 33.6212 36.4896 33.1118 36.706 32.6439C36.9225 32.176 37.2382 31.7609 37.6313 31.4274C38.0241 31.0942 38.4844 30.8501 38.9806 30.7121C39.4768 30.5741 39.997 30.5454 40.5054 30.628C40.7339 30.6655 40.9642 30.6843 41.193 30.6843C42.7417 30.6843 44.1821 29.8545 44.9524 28.519C45.4368 27.6795 46.2545 27.0674 47.1963 26.8396C47.4699 26.7736 47.7504 26.7402 48.0319 26.7401C48.7159 26.7396 49.3855 26.9369 49.96 27.3082L56.0807 31.258C57.0998 31.9157 57.7082 33.0323 57.7082 34.2451V37.5631C57.7082 41.253 55.8244 44.5109 52.9682 46.4265V46.4901H53.3632C54.9362 46.4901 56.4361 46.809 57.8018 47.3852C58.76 45.9615 59.2882 44.2719 59.2882 42.5401V34.2451C59.2882 27.4931 53.7952 22 47.0431 22ZM36.8063 62.4482H45.8581V56.246C43.157 55.6955 41.1181 53.3016 41.1181 50.4402V48.8602H40.7231C39.4205 48.8602 38.1654 49.1295 37.0101 49.6487V61.2632C37.0101 61.6787 36.9378 62.0773 36.8063 62.4482ZM33.4551 42.6981H23.185C22.5306 42.6981 22 43.2287 22 43.8831V61.2632C22 61.9177 22.5306 62.4482 23.185 62.4482H33.4551C34.1095 62.4482 34.6401 61.9177 34.6401 61.2632V43.8831C34.6401 43.2287 34.1095 42.6981 33.4551 42.6981ZM30.295 54.5482H26.345C25.6906 54.5482 25.16 54.0176 25.16 53.3632C25.16 52.7087 25.6906 52.1782 26.345 52.1782H30.295C30.9495 52.1782 31.4801 52.7087 31.4801 53.3632C31.4801 54.0176 30.9495 54.5482 30.295 54.5482ZM30.295 49.8082H26.345C25.6906 49.8082 25.16 49.2776 25.16 48.6232C25.16 47.9687 25.6906 47.4382 26.345 47.4382H30.295C30.9495 47.4382 31.4801 47.9687 31.4801 48.6232C31.4801 49.2776 30.9495 49.8082 30.295 49.8082Z" fill="white"/>
<defs>
<linearGradient id="paint0_linear_315_60" x1="42" y1="0" x2="33.1505" y2="108.858" gradientUnits="userSpaceOnUse">
<stop stop-color="#CF60E1"/>
<stop offset="1" stop-color="#FF9AD7"/>
</linearGradient>
</defs>
</svg>
