<svg width="177" height="44" viewBox="0 0 177 44" fill="none" xmlns="http://www.w3.org/2000/svg">
<path d="M162.651 12.6045C163.207 12.7242 163.222 12.7745 162.968 13.4608C162.912 13.6116 162.818 13.7579 162.916 13.9474C162.955 14.0078 163.004 14.0434 163.054 14.049C163.105 14.0546 163.155 14.0299 163.198 13.9785C163.493 13.7468 163.747 13.3447 164.092 13.3051C164.326 13.2784 164.542 13.1788 164.659 13.7014C164.675 13.7726 164.733 13.8104 164.772 13.8642C164.992 13.2949 165.201 13.6418 165.416 13.8816C165.44 13.8947 165.464 13.8965 165.488 13.8871C165.512 13.8776 165.534 13.857 165.553 13.8273C165.703 13.1 166.039 13.3794 166.311 13.3082C166.432 13.2762 166.577 13.2402 166.594 12.943C166.608 12.6948 166.463 12.7166 166.393 12.6072C165.951 11.9142 165.465 12.4395 165.001 12.4084C164.778 12.3937 164.554 12.4738 164.331 12.4974C164.232 12.508 164.129 12.5031 164.077 12.2865C163.972 11.8555 163.886 12.025 163.813 12.3257C163.8 12.4043 163.775 12.4739 163.741 12.5259C163.707 12.578 163.665 12.6103 163.622 12.6188C163.53 12.6326 163.438 12.6139 163.407 12.4204C163.37 12.1847 163.458 12.085 163.556 12.005C163.672 11.9098 163.855 11.9378 163.832 11.5602C163.822 11.4023 163.728 11.3622 163.652 11.3662C163.485 11.3756 163.246 11.2404 163.2 11.646C163.144 12.1491 162.977 12.2291 162.774 12.2549C162.478 12.2923 162.278 12.7834 161.974 12.8003C161.703 12.8158 161.434 12.9884 161.168 12.726C161.127 12.694 161.082 12.6821 161.038 12.6914C160.994 12.7007 160.952 12.731 160.916 12.7794C160.78 12.9292 160.728 12.9573 160.581 12.6561C160.384 12.2523 160.037 12.5254 159.778 12.6597C159.66 12.7339 159.531 12.7215 159.418 12.625C158.953 12.3043 158.484 12.6441 158.016 12.6846C157.514 12.7291 157.143 13.5044 156.628 13.4955C156.224 13.4884 155.815 13.6676 155.443 13.2184C155.388 13.1525 155.295 13.072 155.274 13.1574C155.117 13.8024 154.703 13.4999 154.428 14.1698C154.497 13.2713 154.287 13.2442 154.014 13.3162C152.766 13.5762 151.511 13.7047 150.255 13.701C149.056 13.7664 147.862 14.0568 146.665 14.0123C146.052 13.9901 145.445 14.1942 144.844 14.1289C143.749 14.0101 142.662 14.4046 141.568 14.2103C141.299 14.1627 141.022 14.3241 140.75 14.3046C139.526 14.2156 138.308 14.4776 137.087 14.4825C136.787 14.4825 136.49 14.438 136.192 14.3842C135.739 14.3032 135.287 14.0991 134.824 14.4135C134.57 14.5581 134.298 14.5494 134.046 14.3886C133.517 14.0983 132.957 14.0655 132.419 14.2934C131.547 14.6377 130.691 14.1462 129.824 14.1427C129.239 14.14 128.655 14.1938 128.072 14.2316C127.675 14.2581 127.277 14.2164 126.884 14.1071C126.574 14.0581 126.262 14.0763 125.953 14.1613C124.987 14.3041 124.014 14.1168 123.047 14.3948C122.749 14.3978 122.454 14.2795 122.182 14.0479C121.908 13.8887 121.617 13.8514 121.333 13.9389C120.716 14.0868 120.09 14.0405 119.48 13.8019C119.762 13.6155 120.055 13.496 120.352 13.4461C120.911 13.4803 121.489 13.3629 122.023 13.5969C122.548 13.8269 123.019 13.3745 123.522 13.5021C123.769 13.5069 124.014 13.6096 124.239 13.8037C124.338 13.9084 124.451 13.9596 124.564 13.9518C124.678 13.944 124.789 13.8774 124.884 13.7592C125.066 13.5498 125.28 13.4602 125.492 13.5044C126.571 13.7041 127.652 13.4639 128.735 13.5573C129.615 13.6804 130.499 13.6626 131.377 13.5039C131.509 13.4732 131.688 13.5142 131.674 13.1361C131.661 12.758 131.503 12.665 131.322 12.6593C130.218 12.6237 129.111 12.6975 128.012 12.5983C127.105 12.5165 126.194 12.5983 125.293 12.4128C124.916 12.3341 124.578 12.1513 124.249 12.6904C124.141 12.8683 123.959 12.6904 123.814 12.6366C123.085 12.3697 122.356 12.1686 121.621 12.557C121.373 12.6255 121.121 12.5855 120.883 12.44C120.351 12.2621 119.81 12.3203 119.284 12.1918C118.323 11.9565 117.381 12.2047 116.43 12.2741C115.809 12.2737 115.189 12.178 114.577 11.9881C114.311 11.9253 114.044 12.2278 113.765 11.9436C113.915 11.6594 114.307 12.0681 114.244 11.3049C114.341 11.2866 114.439 11.2604 114.536 11.2524C115.422 11.2012 116.305 11.3249 117.198 11.1692C117.638 11.0927 118.147 10.8908 118.614 11.2039C118.638 11.219 118.668 11.243 118.687 11.2275C119.149 10.8498 119.614 11.3533 120.084 11.1972C120.378 11.1212 120.676 11.1618 120.96 11.3164C121.21 11.4584 121.475 11.4822 121.731 11.3858C122.356 11.1216 122.968 11.3685 123.589 11.4605C124.101 11.5361 124.623 11.3026 125.138 11.3387C126.064 11.4027 126.988 11.0513 127.908 11.2461C129.021 11.4819 130.124 11.6287 131.235 11.2017C131.6 11.0616 131.976 11.3329 132.345 11.4241C132.702 11.4671 133.06 11.4484 133.415 11.368C133.975 11.3151 134.547 11.0175 135.108 11.3987C135.224 11.488 135.349 11.5314 135.475 11.5262C135.6 11.521 135.724 11.4673 135.839 11.3685C135.992 11.2182 136.159 11.128 136.331 11.1034C136.503 11.0787 136.676 11.1202 136.84 11.2252C137.463 11.5993 138.057 10.8694 138.679 11.066C138.896 11.1345 139.127 11.0157 139.335 11.2493C139.362 11.2788 139.391 11.2968 139.421 11.3019C139.451 11.307 139.482 11.299 139.51 11.2786C139.819 10.8165 140.186 11.0962 140.521 10.985C140.641 10.9177 140.769 10.9153 140.889 10.9782C141.01 11.0411 141.119 11.1668 141.204 11.3409C141.232 11.4003 141.265 11.4482 141.303 11.4815C141.341 11.5148 141.382 11.5328 141.423 11.5342C141.465 11.5357 141.506 11.5206 141.545 11.49C141.583 11.4594 141.618 11.4139 141.646 11.3564C141.925 10.7493 142.283 10.792 142.644 10.8067C143.999 10.8636 145.351 10.6474 146.704 10.6159C147.241 10.6285 147.778 10.5604 148.31 10.4122C148.506 10.4093 148.7 10.4642 148.887 10.5749C148.856 10.9223 148.577 10.7213 148.629 11.1136C148.643 11.1931 148.668 11.264 148.702 11.3188C148.735 11.3736 148.776 11.4103 148.82 11.4249C148.982 11.5055 149.031 11.2568 149.103 11.0691C149.197 10.803 149.33 10.5936 149.486 10.4657C149.641 10.3377 149.813 10.2966 149.981 10.3472C150.798 10.4068 151.621 10.1866 152.442 10.1133C153.751 9.99671 155.06 9.90597 156.37 9.80189C156.445 9.79935 156.519 9.78235 156.592 9.75117C156.727 9.68712 156.881 9.60574 156.866 9.27703C156.849 8.91719 156.677 8.98346 156.545 8.95366C155.534 8.72592 154.537 9.22899 153.531 9.14804C152.509 9.06575 151.507 9.4883 150.483 9.44115C149.757 9.40735 149.023 9.84592 148.301 9.77565C147.728 9.72049 147.167 10.2204 146.587 9.77565C146.212 9.48964 145.796 9.71027 145.402 9.82013C144.932 9.91427 144.458 9.95985 143.985 9.95667C142.941 10.0265 141.895 10.0625 140.854 10.0407C140.091 10.0247 139.337 10.2187 138.587 10.1786C137.956 10.1457 137.324 10.1471 136.693 10.0977C136.619 10.0923 136.494 10.0785 136.501 9.95267C136.54 9.23032 136.233 9.40735 136.048 9.32996C135.427 9.07108 134.809 9.31884 134.191 9.42826C134.043 9.4545 133.894 9.49097 133.747 9.52745C133.641 9.55369 133.483 9.49899 133.491 9.797C133.5 10.1177 133.663 10.0937 133.784 10.071C134.02 10.0265 134.253 9.95268 134.487 9.88907C134.523 9.86263 134.562 9.8562 134.6 9.87054C134.638 9.88489 134.673 9.9194 134.701 9.97002C134.352 10.2586 133.97 10.3734 133.591 10.3032C133.058 10.0989 132.513 10.0289 131.971 10.095C131.804 10.1217 131.617 10.176 131.576 9.68002C131.552 9.38645 131.394 9.39712 131.269 9.39534C130.687 9.38734 130.108 9.26191 129.522 9.34242C129.225 9.30671 128.93 9.2324 128.639 9.12002C128.473 9.09689 128.198 8.93898 128.188 9.4416C128.18 9.86105 128.434 9.79744 128.605 9.82101C128.627 9.82388 128.649 9.83772 128.667 9.86114C128.686 9.88456 128.7 9.91673 128.71 9.95444C127.64 9.85303 126.573 10.0261 125.476 10.0265C125.552 9.84237 125.748 9.78809 125.674 9.46962C125.604 9.16093 125.451 9.13247 125.297 9.11111C124.419 8.99057 123.539 8.96256 122.658 8.96656C122.42 9.02965 122.177 8.9724 121.954 8.80065C122.206 8.60138 122.485 8.74461 122.749 8.61917C123.077 8.50034 123.414 8.50139 123.742 8.62228C124.684 8.91146 125.644 8.95726 126.593 8.75839C127.352 8.51753 128.126 8.50477 128.886 8.72059C129.54 8.963 130.077 8.55423 130.626 8.05339C130.737 7.95198 130.859 7.76738 130.97 7.95509C131.121 8.20862 130.916 8.28023 130.873 8.43591C130.829 8.59159 130.846 8.71481 130.931 8.77886C131.028 8.85314 131.15 8.87181 131.2 8.68144C131.48 7.61393 132.015 7.64418 132.523 7.56724C132.615 7.52199 132.712 7.53945 132.797 7.61651C132.882 7.69357 132.95 7.82522 132.989 7.98801C133.072 8.34384 133.255 8.266 133.416 8.2273C133.746 8.14769 134.074 7.96755 134.41 8.20952C134.463 8.24619 134.522 8.24863 134.577 8.21651C134.631 8.18439 134.679 8.11945 134.712 8.03159C134.737 7.97753 134.751 7.90896 134.752 7.83743C134.754 7.7659 134.742 7.69576 134.719 7.63884C134.642 7.43023 134.528 7.45782 134.414 7.48495C134.301 7.56209 134.177 7.55492 134.067 7.46493C134.182 7.24253 134.326 7.31992 134.45 7.27411C134.539 7.24163 134.631 7.19939 134.642 6.99968C134.654 6.77061 134.552 6.74969 134.466 6.72078C134.381 6.69187 134.278 6.60825 134.21 6.66385C133.812 6.98322 133.383 6.37517 132.989 6.82931C132.947 6.8541 132.903 6.86294 132.86 6.8553C132.817 6.84766 132.775 6.8237 132.737 6.78484C132.632 6.69588 132.451 6.6634 132.475 6.37918C132.494 6.15055 132.661 6.22484 132.765 6.16523C133.342 5.90453 133.943 5.89039 134.524 6.12386C135.109 6.28532 135.645 6.05181 136.202 5.96151C136.214 5.95636 136.227 5.9525 136.239 5.94995C136.61 5.97486 136.946 6.29379 137.362 5.861C137.673 5.53807 138.148 5.8303 138.537 5.7071C139.113 5.54462 139.698 5.51474 140.278 5.61813C141.111 5.74134 141.925 5.36816 142.758 5.54831C143.352 5.60211 143.948 5.55103 144.537 5.39573C144.673 5.35637 144.812 5.38144 144.942 5.46868C144.925 5.50604 144.916 5.55008 144.9 5.55764C144.734 5.6466 144.435 5.42421 144.43 5.87212C144.426 6.34983 144.73 6.08829 144.89 6.18125C145.207 6.36584 145.531 6.12698 145.854 6.13277C146.103 6.13721 146.106 6.39697 146.175 6.68298C146.275 7.09397 146.081 7.01345 145.998 7.10152C145.897 7.21005 145.784 7.29457 145.823 7.56411C145.86 7.81854 145.984 7.85991 146.096 7.82699C146.751 7.63306 147.414 7.64596 148.069 7.52453C148.622 7.42223 149.172 7.50229 149.723 7.44625C150.772 7.3395 151.813 7.09041 152.861 6.97832C153.04 6.9592 153.213 6.84489 153.238 6.42856C153.253 6.16702 153.342 6.08205 153.458 6.01889C153.597 5.94283 153.753 5.80673 153.644 5.49093C153.553 5.22716 153.395 4.99675 153.2 5.25206C153.14 5.33168 153.05 5.43621 153.044 5.54296C152.992 6.47436 152.596 6.28222 152.295 6.36895C152.096 6.41815 151.895 6.4195 151.696 6.37296C152.048 6.29147 152.381 6.02998 152.66 5.6168C152.724 5.51405 152.841 5.44422 152.796 5.25296C152.785 5.20323 152.768 5.15882 152.746 5.12293C152.725 5.08705 152.7 5.0606 152.672 5.04545C152.645 5.03031 152.616 5.02685 152.587 5.03535C152.559 5.04385 152.532 5.06409 152.508 5.0946C152.303 5.46245 152.108 5.23561 151.892 5.19558C151.369 5.11489 150.844 5.15687 150.327 5.32056C150.079 5.39083 150.06 5.8343 149.977 6.15545C149.864 6.59046 149.74 6.8133 149.562 6.28888C149.459 5.98508 149.316 6.022 149.17 6.00911C148.672 5.96463 148.171 6.09229 147.679 5.88012C147.58 5.85966 147.484 5.80555 147.396 5.72044C147.36 5.65312 147.317 5.60207 147.27 5.57125C147.222 5.54042 147.172 5.53064 147.122 5.54269C147.072 5.55473 147.024 5.58827 146.982 5.64069C146.941 5.69312 146.906 5.76302 146.88 5.84498C146.807 6.0229 146.685 6.02289 146.574 6.06248C146.543 5.8512 146.71 5.86766 146.678 5.73734C146.438 4.78681 146.917 5.17155 147.008 5.20981C147.741 5.51627 148.441 5.18979 149.161 5.01765C149.58 4.91757 150.033 5.12841 150.478 5.02834C150.848 4.94471 151.223 4.93047 151.595 4.87576C151.737 4.85486 151.941 4.91447 151.937 4.51505C151.933 4.13074 151.745 4.26862 151.616 4.24817C150.617 4.09827 149.628 4.35091 148.635 4.45499C148.033 4.51771 147.424 4.72943 146.813 4.47589C146.578 4.40468 146.34 4.3942 146.104 4.44476C143.927 4.69918 141.748 4.50658 139.57 4.604C139.036 4.62801 138.503 4.77213 137.969 4.7957C137.523 4.81483 137.076 4.74589 136.629 4.70275C135.677 4.58614 134.722 4.58049 133.769 4.68583C133.553 4.68038 133.337 4.64291 133.123 4.57375C133.166 4.48617 133.223 4.4267 133.285 4.40405C133.347 4.3814 133.411 4.39676 133.468 4.44788C133.621 4.55811 133.792 4.5498 133.942 4.42475C134.019 4.35429 134.103 4.31353 134.188 4.3049C134.273 4.29627 134.359 4.31993 134.439 4.37449C134.85 4.53328 135.235 4.07425 135.649 4.1076C135.668 4.10443 135.686 4.09403 135.703 4.07701C135.72 4.05998 135.735 4.03669 135.747 4.00855C135.758 3.98041 135.767 3.94799 135.772 3.91327C135.778 3.87853 135.779 3.84221 135.776 3.80648C135.775 3.75883 135.768 3.71231 135.757 3.66974C135.745 3.62717 135.729 3.58944 135.71 3.55886C135.69 3.52827 135.668 3.50547 135.643 3.49184C135.619 3.47821 135.594 3.47403 135.569 3.47956C135.295 3.44114 135.02 3.44321 134.747 3.48577C134.226 3.59757 133.702 3.62733 133.179 3.57474C132.764 3.54894 132.361 3.70818 131.951 3.74154C131.833 3.75043 131.659 3.75756 131.691 4.09338C131.723 4.4292 131.885 4.4888 132.048 4.41897C132.095 4.38853 132.139 4.34341 132.178 4.28552C132.229 4.22325 132.275 4.11383 132.343 4.20145C132.357 4.22303 132.368 4.25027 132.375 4.28111C132.382 4.31194 132.386 4.34554 132.385 4.37937C132.372 4.56441 132.285 4.58353 132.214 4.57731C131.841 4.54261 131.475 4.75078 131.097 4.64047C130.527 4.53637 129.954 4.51852 129.383 4.5871C129.305 4.5871 129.212 4.69695 129.146 4.51726C129.183 4.29753 129.257 4.29487 129.352 4.37138C129.447 4.44788 129.533 4.44699 129.536 4.20057C129.539 3.99775 129.489 3.78379 129.371 3.81048C129.141 3.86296 128.871 3.77668 128.699 4.12495C128.624 4.28338 128.529 4.4044 128.423 4.47732C128.317 4.55024 128.203 4.57281 128.091 4.54306C127.657 4.4332 127.221 4.49191 126.773 4.42875C126.994 4.1541 127.263 4.05379 127.522 4.14941C127.652 4.16053 127.844 4.14942 127.833 3.80515C127.822 3.46087 127.641 3.50269 127.506 3.54449C127.272 3.61605 127.035 3.63605 126.799 3.6041C126.617 3.58097 126.392 3.55249 126.461 4.14363C126.482 4.32155 126.407 4.41051 126.328 4.41051C125.796 4.41051 125.27 4.7192 124.651 4.53417C124.842 4.34101 125.051 4.22012 125.267 4.17833C125.356 4.14897 125.445 4.10583 125.455 3.90078C125.458 3.85312 125.456 3.80486 125.448 3.7592C125.44 3.71353 125.427 3.67148 125.41 3.63581C125.393 3.60014 125.372 3.57167 125.349 3.55225C125.326 3.53283 125.301 3.52291 125.275 3.52314C125.091 3.51889 124.906 3.48915 124.724 3.43418C124.981 3.1898 125.274 3.11869 125.556 3.23269C126.24 3.43996 126.925 3.30074 127.609 3.32165C128.33 3.34256 129.056 3.25048 129.774 3.26249C130.519 3.2745 131.267 3.339 132.014 3.32165C133.207 3.29452 134.4 3.19666 135.592 3.23269C136.038 3.24603 136.517 3.12016 136.936 3.60899C136.982 3.64815 137.033 3.6643 137.083 3.65588C137.133 3.64747 137.181 3.61477 137.223 3.56095C137.46 3.33965 137.728 3.2608 137.99 3.33499C138.507 3.51291 138.998 3.20156 139.501 3.15708C139.549 3.14082 139.598 3.15102 139.643 3.18644C140.119 3.82784 140.618 3.492 141.102 3.27094C141.339 3.16241 141.544 3.34434 141.766 3.34701C142.148 3.35146 142.533 3.16908 142.917 3.40216C143.078 3.49957 143.365 3.20378 143.275 3.92613C143.26 4.04311 143.366 4.14275 143.448 4.1125C143.558 4.07292 143.655 3.94213 143.599 3.72552C143.506 3.36702 143.604 3.34301 143.75 3.30698C144.091 3.22202 144.422 2.97916 144.774 3.28162C144.9 3.39059 145.016 3.35234 145.003 3.74021C144.993 4.04 145.175 4.03199 145.295 4.0271C146.352 3.98618 147.41 4.0142 148.463 3.82472C148.673 3.77495 148.885 3.7528 149.097 3.75844C149.328 3.77757 149.521 3.74287 149.561 3.16642C149.746 3.6975 150.606 4.01154 150.808 3.64458C151.02 3.25716 150.696 3.19978 150.656 2.96893C150.673 2.91777 150.68 2.86396 150.698 2.84483C150.83 2.70383 151.101 2.79323 151.072 2.41471C151.037 1.97792 150.78 2.17763 150.628 2.19231C149.221 2.32219 147.814 2.25681 146.41 2.15806C145.512 2.0949 144.618 2.36044 143.726 2.18074C143.244 2.07328 142.757 2.08331 142.277 2.21056C141.427 2.4543 140.571 2.13538 139.724 2.42805C139.453 2.51401 139.177 2.50798 138.907 2.41026C138.202 2.16295 137.503 2.46942 136.805 2.43561C133.975 2.29773 131.147 2.33909 128.319 2.34309C126.913 2.34309 125.507 2.46941 124.101 2.46585C122.159 2.46052 120.218 2.31462 118.275 2.32397C117.023 2.33019 115.771 2.23768 114.519 2.13716C113.79 2.07845 113.057 2.12381 112.326 2.06199C110.821 1.93477 109.315 1.84893 107.809 1.77109C106.266 1.69192 104.723 1.64921 103.18 1.57849C101.539 1.50288 99.8965 1.46239 98.2568 1.31161C97.3528 1.22799 96.448 1.17017 95.5452 1.07008C95.5204 1.0633 95.4953 1.06226 95.4704 1.06698C94.4093 1.46062 93.3381 1.08921 92.2756 1.09722C90.9363 1.10789 89.5876 1.11946 88.2435 0.999813C87.5446 0.937542 86.8288 0.968231 86.1214 0.999813C85.4015 1.03317 84.6804 1.03674 83.9584 0.992699C83.3024 0.952667 82.6424 1.00381 81.9839 1.00159C81.3633 0.999367 80.7426 1.00692 80.1223 0.964668C79.91 0.949989 79.6978 0.927307 79.4873 0.939762C76.0616 1.13636 72.635 1.04474 69.2092 1.05809C68.1766 1.06209 67.1457 1.16171 66.116 1.16394C64.9606 1.16661 63.8052 1.2787 62.6498 1.2182C61.1124 1.1377 59.5746 1.18485 58.0362 1.24178C56.7896 1.28626 55.5394 1.02828 54.2935 1.09233C52.9381 1.16217 51.5818 1.08166 50.2283 1.10568C48.7242 1.13237 47.2142 1.16217 45.7081 1.0443C44.0944 0.917973 42.481 1.07276 40.868 1.0443C39.1245 1.01405 37.39 1.3254 35.651 1.38856C34.6687 1.42414 33.6881 1.49176 32.7092 1.5914C32.0742 1.65501 31.4402 1.83292 30.8101 1.84359C29.4897 1.86628 28.1876 2.31063 26.8737 2.31507C25.3908 2.31997 23.9129 2.50901 22.4347 2.638C20.8077 2.78034 19.1774 2.76699 17.549 2.97115C16.4127 3.11349 15.2618 3.02986 14.1167 3.05299C13.9264 3.09019 13.7341 3.04924 13.553 2.93291C13.3718 2.81659 13.2062 2.62767 13.0674 2.37913C12.9011 1.93596 12.7701 1.44922 12.6786 0.934425C12.6025 0.648323 12.4849 0.408756 12.3396 0.24345C12.1942 0.0781441 12.027 -0.00614166 11.8573 0.000350952C11.5699 0.0866432 11.5022 0.534107 11.4261 1.01849C11.3447 1.53668 11.2457 1.93032 11.5204 2.39158C11.6668 2.63666 11.5157 2.95647 11.3282 3.03254C10.9862 3.17375 10.6345 3.21322 10.286 3.14952C9.50481 3.00274 8.72527 3.16775 7.94502 3.16997C6.72856 3.17308 5.53991 2.98849 4.46091 1.77998C4.1308 1.40947 3.78206 1.15104 3.422 1.68613C3.36399 1.77242 3.28288 1.84848 3.25836 1.96413C3.13202 2.75513 2.85357 3.42854 2.47764 3.85229C2.46773 3.86163 2.46278 3.88921 2.45594 3.90878C2.28664 4.38916 2.6052 4.60444 2.61581 4.96117C2.62524 5.28231 2.38143 5.71732 2.85161 5.75023C2.74061 5.88578 2.6469 6.066 2.57719 6.27794C2.50748 6.48988 2.4635 6.72831 2.4484 6.9761C2.42146 7.18267 2.42974 7.40001 2.47207 7.59718C2.51441 7.79435 2.58864 7.96132 2.68419 8.0743C2.88132 8.31137 2.88108 8.57603 2.72829 8.8776C2.4267 9.47318 2.29325 10.1186 2.52362 10.917C2.54338 11.03 2.55028 11.1495 2.54386 11.2679C2.53744 11.3862 2.51785 11.5007 2.48636 11.6038C2.41867 11.9599 2.41867 12.3494 2.48636 12.7055C2.52129 12.8743 2.52998 13.0583 2.51141 13.2361C2.49284 13.4138 2.44777 13.5779 2.3815 13.709C2.31523 13.8401 2.2305 13.9329 2.13727 13.9764C2.04404 14.0199 1.94616 14.0123 1.85514 13.9545C1.78038 13.9064 1.70118 13.8878 1.62246 13.8998C1.54373 13.9118 1.46714 13.9541 1.39745 14.0242C1.32775 14.0943 1.26642 14.1907 1.21727 14.3073C1.16811 14.4239 1.13217 14.5583 1.11167 14.7022C0.870454 16.0918 0.745484 17.5009 1.25669 18.8015C1.42175 19.2204 1.43919 19.5171 1.1784 19.8356C0.724734 20.3898 0.655408 21.2847 0.674036 22.2046C0.697717 22.7899 0.624912 23.3746 0.465592 23.8788C0.281758 24.3777 0.203661 24.9883 0.246696 25.5904C0.289731 26.1925 0.450779 26.7424 0.698088 27.1316C0.930111 27.5386 0.920208 27.7201 0.65093 28.0345C0.226498 28.5331 -0.0465539 29.2253 0.052716 30.2647C0.0610015 30.5224 0.0485201 30.781 0.0156966 31.0316C-0.00322288 31.1813 -0.00506234 31.337 0.0103033 31.4882C0.0256689 31.6394 0.0578869 31.7827 0.104825 31.9087C0.56722 32.9722 0.986937 34.0695 1.61887 34.88C2.37759 35.8605 3.18272 36.7067 4.02398 37.4077C4.63304 37.9522 5.29216 38.2693 5.96505 38.3418C6.15369 38.3534 6.31309 38.3716 6.30648 38.8529C6.30554 38.8893 6.31004 38.9254 6.31948 38.9573C6.32891 38.9891 6.3429 39.0152 6.35984 39.0328C6.37678 39.0503 6.396 39.0585 6.41529 39.0564C6.43458 39.0543 6.45317 39.0421 6.46895 39.021C6.8797 38.3342 7.34139 38.7612 7.77761 38.8075C8.44528 38.8958 9.11004 39.05 9.76914 39.2696C10.7241 39.5628 11.6897 39.6557 12.6458 39.9555C13.5312 40.2102 14.4248 40.3491 15.3202 40.3714C15.7899 40.3364 16.2602 40.3889 16.7244 40.528C17.1512 40.7059 17.6143 40.5671 18.0581 40.5582C19.5622 40.528 21.0666 40.572 22.5702 40.5582C23.877 40.5453 25.1876 40.5916 26.4946 40.5831C28.1204 40.572 29.7474 40.5573 31.3715 40.4314C32.5295 40.3425 33.6823 40.3251 34.8399 40.4314C35.3956 40.483 35.9594 40.2842 36.514 40.3634C37.4704 40.5 38.4265 40.3825 39.3827 40.4559C40.0259 40.5053 40.6758 40.5289 41.3162 40.5982C42.0797 40.6814 42.8439 40.5373 43.6117 40.7557C44.0543 40.8616 44.5009 40.8986 44.9468 40.8665C45.9784 40.8313 47.0069 40.9861 48.0357 41.1142C48.7688 41.2032 49.5028 41.1787 50.2368 41.2855C52.2706 41.5817 54.314 41.5799 56.3458 41.9553C56.6658 42.0145 56.9877 41.7867 57.3109 41.9829C57.3349 42.0004 57.3608 42.0063 57.3863 42.0001C57.4117 41.9939 57.436 41.9758 57.4568 41.9474C57.4776 41.919 57.4944 41.8813 57.5055 41.8376C57.5166 41.794 57.5218 41.7457 57.5205 41.6973C57.5233 41.6495 57.5204 41.6011 57.5122 41.5556C57.504 41.51 57.4906 41.4684 57.473 41.4336C57.4554 41.3988 57.4339 41.3717 57.4102 41.3542C57.3864 41.3367 57.3609 41.3292 57.3355 41.3322C56.9678 41.3442 56.6245 41.0208 56.2416 41.144C55.77 41.2935 55.301 41.0212 54.8313 40.9296C54.5103 40.8413 54.1842 40.8413 53.8631 40.9296C53.4285 41.0621 52.9829 40.967 52.575 40.6547C53.2312 40.4724 53.8308 40.7406 54.4342 40.7468C55.7273 40.7602 57.0226 40.7775 58.3128 40.9247C59.3866 41.0475 60.4619 41.0186 61.5373 41.1961C62.3251 41.3836 63.1238 41.3266 63.9019 41.0275C64.3989 40.7997 64.9146 41.0906 65.4239 41.0857C66.1287 41.0791 66.8338 41.1467 67.5386 41.1858C67.6374 41.1916 67.7854 41.144 67.8267 41.2441C68.1613 42.0563 68.6008 41.6115 68.9965 41.6142C69.2452 41.5931 69.4945 41.608 69.7421 41.6586C69.9989 41.7228 70.2602 41.6665 70.5027 41.4945C70.8635 41.2721 71.2613 41.4478 71.6409 41.5065C72.2189 41.6624 72.8047 41.6872 73.3858 41.5804C73.8442 41.4469 74.3148 41.6773 74.786 41.6795C75.582 41.6831 76.3773 41.7525 77.1741 41.6591C77.8365 41.5817 78.4905 41.8495 79.1515 41.8628C79.6495 41.8726 80.1503 41.9575 80.6294 41.5959C80.6629 41.5654 80.6999 41.5517 80.737 41.5563C81.9115 41.9406 83.0937 41.8312 84.2765 41.8028C84.6165 41.7948 84.9624 41.8788 85.306 41.9117C86.5597 42.0314 87.8151 42.0074 89.0688 42.0799C89.9335 42.1297 90.7991 42.3103 91.6718 42.1977C92.3912 42.1503 93.1116 42.1827 93.829 42.2947C94.66 42.373 95.4916 42.2885 96.3238 42.433C97.9623 42.7181 99.61 42.4882 101.252 42.6892C102.6 42.8547 103.953 42.9143 105.304 42.9628C106.818 43.0166 108.331 43.1483 109.847 43.1647C111.596 43.1843 113.346 43.2959 115.095 43.4316C115.792 43.4854 116.486 43.4102 117.18 43.4392C118.187 43.4805 119.192 43.5859 120.198 43.6656C121.315 43.7545 122.436 43.7007 123.555 43.7069C124.925 43.7145 126.296 43.6491 127.665 43.7514C128.556 43.8181 129.45 43.8519 130.341 43.9685C130.802 44.0569 131.268 43.9588 131.707 43.6807C131.835 43.5917 131.995 43.4956 131.964 43.1705C131.931 42.812 131.759 42.8716 131.63 42.9272C131.038 43.1807 130.474 42.6795 129.896 42.6999C129.339 42.6441 128.781 42.681 128.228 42.8102C127.897 42.9138 127.559 42.913 127.229 42.808C126.592 42.6501 125.955 42.457 125.309 42.7831C125.022 42.9276 124.74 42.5838 124.434 42.5976C123.625 42.6341 122.817 42.2275 122 42.6256C121.792 42.7266 121.539 42.506 121.308 42.4232C120.655 42.1893 120.004 42.4837 119.351 42.4348C118.63 42.3805 117.91 42.1679 117.194 42.155C116.318 42.139 115.432 41.8076 114.558 42.2395C114.489 42.2885 114.415 42.3048 114.341 42.2871C113.77 42.0125 113.176 41.9476 112.592 42.0959C112.481 42.1369 112.368 42.1384 112.257 42.1003C111.835 41.8879 111.393 41.8575 110.965 42.0114C110.414 42.1893 109.875 41.9669 109.333 41.8615C108.327 41.664 107.32 41.9322 106.315 41.809C105.773 41.6721 105.226 41.6114 104.679 41.6275C103.605 41.8014 102.557 41.269 101.482 41.39C100.319 41.5212 99.1491 41.2828 97.9826 41.2121C97.179 41.1636 96.37 41.1676 95.5633 41.1462C93.5624 41.0906 91.5602 41.1182 89.5607 40.9879C88.8533 40.9434 88.1417 40.9554 87.4385 40.9665C86.7274 40.9772 86.0398 41.023 85.3463 40.6401C85.0747 40.5764 84.7992 40.6081 84.5337 40.7335C83.9016 40.7986 83.2676 40.7539 82.6398 40.6C82.2352 40.5462 81.866 40.886 81.4573 40.7846C80.7598 40.6111 80.0395 40.9461 79.351 40.4755C79.2901 40.4483 79.2269 40.4464 79.1656 40.4697C78.1894 40.6734 77.2033 40.5876 76.2328 40.7152C75.3427 40.8322 74.4801 40.5302 73.6044 40.6018C73.1434 40.657 72.6805 40.5854 72.2304 40.3892C72.0979 40.3217 71.9601 40.2991 71.8234 40.3225C70.6742 40.5386 69.5169 40.5558 68.366 40.3741C67.2646 40.2344 66.1615 40.3011 65.0615 40.1285C64.2924 39.978 63.5163 40.0056 62.7507 40.2108C61.697 40.5395 60.7024 40.0378 59.6835 39.8421C58.8976 39.6472 58.1051 39.5635 57.3126 39.5917C56.841 39.6362 56.3663 39.5917 55.8933 39.565C55.7308 39.5798 55.5703 39.4909 55.4378 39.3128C55.6372 39.188 55.8493 39.153 56.0572 39.2105C57.1968 39.3848 58.3444 39.1415 59.4776 39.3555C60.7587 39.5975 62.0412 39.4507 63.3211 39.5396C64.4581 39.6184 65.6017 39.6428 66.743 39.6286C67.3605 39.621 67.9795 39.762 68.5897 39.4867C68.8727 39.3577 69.1295 39.6268 69.3872 39.722C69.9758 39.8863 70.5749 39.8633 71.1594 39.654C71.4396 39.5387 71.7305 39.5539 72.0069 39.6984C72.2569 39.8468 72.5217 39.8835 72.7805 39.8056C73.3382 39.7476 73.8974 39.7908 74.4507 39.9346C74.6572 39.96 74.8364 39.815 75.0378 39.8372C76.3726 39.9835 77.7103 39.9431 79.0463 39.9969C80.4024 40.0516 81.7601 40.0191 83.1173 40.1148C84.2793 40.197 85.4517 40.1147 86.6198 40.0396C86.7012 40.0546 86.7834 40.0379 86.8612 39.9905C86.9391 39.9431 87.0109 39.8661 87.0723 39.7643C87.3489 39.0526 87.7597 39.1206 88.1197 39.1415C88.6276 39.1731 89.1374 39.1616 89.7396 39.2047C89.4756 39.5068 89.1601 39.6057 88.8585 39.4809C88.5431 39.3347 88.2173 39.2854 87.8936 39.335C87.7359 39.3599 87.5708 39.4831 87.5635 39.8007C87.5569 40.1348 87.7483 40.0525 87.8563 40.0756C88.3251 40.1753 88.7953 40.302 89.2657 40.3136C90.5373 40.3452 91.8123 40.2246 93.0806 40.3447C94.9552 40.5226 96.8347 40.3269 98.7065 40.6703C99.0676 40.7037 99.4295 40.6719 99.7874 40.5756C99.9975 40.5192 100.211 40.5369 100.418 40.6276C100.805 40.8126 101.209 40.8204 101.597 40.6503C101.769 40.5702 101.95 40.6038 102.11 40.7455C102.246 40.867 102.4 40.9056 102.549 40.8558C103.202 40.7245 103.861 40.7384 104.513 40.8971C104.912 40.9745 105.302 40.8024 105.703 40.882C107.136 41.1702 108.578 41.2742 110.018 41.1934C111.607 41.1 113.194 41.1489 114.781 41.2152C115.524 41.2463 116.269 41.1992 117.013 41.2841C117.187 41.2738 117.36 41.2192 117.526 41.1218C117.548 41.1174 117.57 41.1045 117.589 41.0839C117.608 41.0634 117.625 41.0356 117.639 41.0023C117.652 40.969 117.662 40.9308 117.667 40.8902C117.673 40.8495 117.673 40.8073 117.67 40.7659C117.665 40.6822 117.643 40.6053 117.609 40.5511C117.575 40.4969 117.531 40.4695 117.486 40.4746C117.262 40.4581 117.038 40.467 116.813 40.4599C115.233 40.4105 113.65 40.4492 112.074 40.2753C111.156 40.1739 110.232 40.3723 109.319 40.0636C108.909 39.9248 108.501 40.1797 108.089 40.1526C107.666 40.1232 107.244 40.0934 106.822 40.0494C105.782 39.9417 104.74 39.9204 103.699 39.8924C102.978 39.8728 102.243 39.8879 101.539 39.7589C100.306 39.5365 99.0779 39.75 97.8512 39.5832C96.1132 39.347 94.3707 39.3977 92.6314 39.2719C91.9458 39.222 91.2763 39.4418 90.5979 39.3937C90.4631 39.3839 90.3289 39.3421 90.1264 39.3012C90.4621 39.0398 90.8218 38.9055 91.1851 38.9058C92.1778 38.8724 93.1712 38.7323 94.1625 38.7786C95.6383 38.8471 97.1137 38.9254 98.5902 38.912C98.6401 38.9001 98.6907 38.9072 98.739 38.933C98.7874 38.9589 98.8324 39.0029 98.8715 39.0624C98.9536 39.2115 99.0564 39.3135 99.1681 39.3565C99.2797 39.3995 99.3956 39.3817 99.5021 39.3052C100.244 38.8871 100.988 39.2461 101.729 39.2394C102.384 39.2336 103.047 39.2959 103.697 39.3862C104.706 39.5263 105.709 39.347 106.715 39.4516C108.069 39.642 109.428 39.6866 110.785 39.585C111.524 39.5018 112.244 39.8674 112.974 39.6339C113.426 39.4894 113.831 40.0173 114.294 39.9626C116.138 39.7456 117.981 40.1406 119.825 40.1054C120.184 40.0292 120.547 40.038 120.905 40.1317C120.942 40.1529 120.982 40.1462 121.016 40.113C121.05 40.0798 121.076 40.0227 121.089 39.9537C121.124 39.742 121.034 39.6686 120.954 39.5979C120.776 39.4208 120.579 39.3273 120.379 39.3257C119.605 39.396 118.846 39.1104 118.081 38.9747C117.653 38.8982 117.238 39.0775 116.813 39.0281C115.846 38.9147 114.876 39.013 113.91 38.9534C113.344 38.9183 112.772 38.876 112.207 38.7488C111.584 38.6078 110.964 38.7879 110.342 38.7488C108.989 38.6661 107.636 38.6532 106.282 38.5264C105.576 38.4504 104.868 38.4652 104.163 38.5709C103.479 38.6834 102.801 38.3987 102.117 38.3667C101.188 38.3222 100.259 38.2568 99.3342 38.0914C98.6527 37.9968 97.9682 38.019 97.2889 38.1576C97.0034 38.2132 96.7149 38.1501 96.4438 37.9726C96.0957 37.7387 95.7168 37.9086 95.3695 37.9873C94.7769 38.1207 94.2037 37.8703 93.6194 37.8961C91.9432 37.9691 90.2612 37.7182 88.5925 38.1932C88.0829 38.406 87.5562 38.4299 87.0417 38.2635C86.8264 38.2447 86.6152 38.3778 86.4491 38.6367C85.7811 39.3617 85.1162 38.9071 84.4557 38.6723C84.2671 38.6056 84.1103 38.4254 83.9447 38.7372C83.8764 38.8662 83.7835 38.8151 83.6957 38.8102C83.235 38.7844 82.7738 38.771 82.313 38.751C82.0718 38.7408 81.8131 38.8724 81.6549 38.3302C81.5969 38.1319 81.4531 38.1968 81.3413 38.235C81.1607 38.296 80.9801 38.3583 80.7806 38.4263C80.8042 38.3325 80.8098 38.2755 80.8252 38.2622C80.9605 38.1439 81.2123 38.2408 81.1881 37.8174C81.1619 37.3637 80.9424 37.4197 80.7443 37.4246C80.3838 37.4331 80.0232 37.3641 79.6625 37.3406C79.5681 37.3343 79.4363 37.3125 79.4215 37.5567C79.4087 37.7689 79.5415 37.7422 79.6101 37.8236C79.8532 38.1038 80.1322 38.0758 80.4017 38.2115C80.04 38.5183 79.632 38.5704 79.2517 38.3582C79.1538 38.2898 79.0483 38.2696 78.9452 38.2995C78.842 38.3295 78.7446 38.4087 78.6622 38.5295C78.4323 38.8982 78.1845 38.5615 77.9454 38.5482C77.91 38.546 77.8617 38.3818 77.8471 38.2786C77.8235 38.1198 77.8968 38.0718 77.9598 38.0807C78.1812 38.1123 78.3786 37.7853 78.6169 37.9708C78.7445 38.0705 78.9305 37.9962 78.9449 37.6915C78.9593 37.3868 78.7723 37.3988 78.658 37.3833C77.7796 37.3072 76.8995 37.4089 76.0326 37.6866C75.8079 37.7467 75.794 37.8365 75.8379 38.2377C75.8471 38.2972 75.8435 38.3611 75.8279 38.4156C75.8055 38.4561 75.7769 38.4826 75.7462 38.4913C75.7155 38.5001 75.6841 38.4907 75.6563 38.4646C74.8638 37.9468 74.0824 38.2395 73.3052 38.6047C73.1965 38.6558 73.1113 38.6901 73.0375 38.5237C73.0092 38.4601 72.9795 38.3347 72.9942 38.2795C73.0385 38.1132 73.1385 38.1118 73.2229 38.0967C73.6567 38.018 74.0934 38.0496 74.5289 37.9935C74.7432 37.8899 74.9624 37.8258 75.1833 37.8023C75.0323 37.5417 74.8372 37.391 74.6327 37.377C73.6289 37.0657 72.6228 37.4535 71.6181 37.2676C70.9409 37.1422 70.2545 37.1853 69.5718 37.1707C68.9489 37.1573 68.3256 37.1675 67.702 37.0817C67.993 36.9027 68.3006 36.8393 68.6053 36.8953C68.7286 36.9261 68.8528 36.9423 68.9771 36.9438C69.8324 36.9287 70.6869 36.9843 71.5414 37.0132C72.1073 37.0328 72.6831 37.0096 73.2542 36.9687C73.8253 36.9278 74.3936 37.0501 74.9687 37.0065C75.7482 36.9469 76.532 36.962 77.3146 36.9794C78.4566 37.007 79.5993 37.0821 80.7407 37.0501C82.0218 37.0141 83.3027 37.0848 84.5842 37.0056C85.3776 36.9139 86.1733 36.9267 86.9658 37.0439C87.4377 37.1667 87.9184 37.0705 88.3661 36.7637C88.5808 36.6321 88.8091 36.5997 89.0318 36.6694C90.0738 36.8628 91.1193 36.7316 92.1617 36.8077C92.822 36.8557 93.4794 36.9229 94.1396 36.9345C94.4956 36.9411 94.8791 36.5248 95.208 37.1377C95.2214 37.1546 95.2366 37.166 95.2525 37.171C95.2684 37.176 95.2847 37.1746 95.3003 37.1668C95.316 37.159 95.3305 37.1451 95.343 37.1259C95.3556 37.1067 95.3658 37.0827 95.373 37.0554C95.5305 36.3842 95.8625 36.5702 96.1236 36.5595C96.7058 36.5046 97.2893 36.5398 97.8685 36.6649C98.6656 36.8679 99.4692 36.9694 100.274 36.9687C100.645 36.9745 101.017 37.0203 101.388 36.9981C102.532 36.9291 103.672 37.1151 104.813 37.1404C105.608 37.1578 106.403 37.2044 107.198 37.2294C108.565 37.2761 109.933 37.3263 111.299 37.4304C111.889 37.4749 112.496 37.4153 113.085 37.4491C113.844 37.4936 114.6 37.3842 115.357 37.4046C116.493 37.4357 117.634 37.7022 118.779 37.3423C119.17 37.2118 119.57 37.2215 119.959 37.3708C120.373 37.527 120.797 37.5664 121.217 37.4878C121.763 37.3988 122.305 37.4878 122.849 37.4433C124.311 37.3254 125.773 37.2694 127.235 37.3463C127.761 37.3739 128.279 37.2165 128.803 37.2129C129.624 37.204 130.443 37.2067 131.264 37.3152C132.034 37.4171 132.798 37.1569 133.565 37.0461C134.5 36.9127 135.454 36.7539 136.394 37.0461C136.74 37.1237 137.09 37.1194 137.435 37.0332C138.542 36.8633 139.654 37.0719 140.755 36.8526C142.196 36.5662 143.646 36.7966 145.085 36.4857C145.242 36.4217 145.404 36.4196 145.561 36.4795C145.717 36.5394 145.866 36.6599 145.997 36.8335C146.102 36.9468 146.221 37.0026 146.341 36.9948C146.461 36.9869 146.578 36.9156 146.678 36.789C147.208 36.1894 147.763 36.2744 148.323 36.5146C148.393 36.5572 148.468 36.5623 148.54 36.5293C148.612 36.4963 148.677 36.4266 148.729 36.3278C148.811 36.1823 148.896 36.0164 148.863 35.7798C148.826 35.516 148.696 35.5049 148.587 35.5236C147.974 35.6281 147.343 35.4604 146.757 36.0022C146.573 36.1721 146.356 36.3135 146.188 35.8621C146.165 35.8075 146.136 35.7635 146.103 35.7336C146.069 35.7036 146.033 35.6883 145.996 35.689C145.574 35.8189 145.149 35.6739 144.733 35.7268C143.881 35.8354 143.029 35.9048 142.175 35.9239C141.079 35.9488 139.982 35.8581 138.889 36.116C138.591 36.1803 138.29 36.1558 137.996 36.0435C137.446 35.8385 136.91 36.2103 136.371 36.1098C135.882 35.9889 135.387 35.9591 134.895 36.0209C133.883 36.2041 132.872 35.8941 131.857 35.8936C131.188 35.8936 130.517 35.9448 129.848 35.9136C129.331 35.8892 128.826 35.5703 128.297 35.7197C127.439 35.9613 126.575 35.613 125.714 35.7593C125.515 35.7834 125.315 35.7435 125.123 35.6414C124.521 35.3456 123.924 35.6663 123.325 35.6414C123.113 35.66 122.9 35.6191 122.694 35.52C122.409 35.3354 122.099 35.3318 121.813 35.5098C121.524 35.6877 121.229 35.403 120.931 35.5636C120.822 35.6223 120.594 35.5894 120.61 35.1691C120.625 34.8088 120.804 34.7879 120.953 34.7483C121.077 34.7149 121.157 34.8942 121.256 34.9845C121.608 35.3034 121.975 35.1299 122.097 34.4903C122.165 34.1282 122.265 34.098 122.419 34.0664C123.213 33.9497 124.011 33.9274 124.807 33.9997C125.504 34.0224 126.201 33.9694 126.898 33.9316C128.03 33.8703 129.162 33.5918 130.288 33.5936C131.366 33.5936 132.449 33.7533 133.53 33.8111C134.214 33.8476 134.9 33.8663 135.581 33.796C136.011 33.7515 136.435 33.3863 136.872 33.5714C137.832 33.9783 138.803 33.7573 139.769 33.8084C140.701 33.8578 141.636 33.8676 142.567 33.7978C143.697 33.7137 144.831 33.6252 145.957 33.6528C146.85 33.6303 147.743 33.5028 148.628 33.2711C149.718 33.0425 150.814 33.0385 151.898 32.785C152.978 32.5328 154.062 32.4291 155.143 32.2343C156.105 32.0595 157.06 31.745 158.02 31.5008C158.229 31.4483 158.442 31.4523 158.653 31.4172C158.771 31.3976 158.944 31.4479 158.946 31.1285C158.947 30.8012 158.776 30.8545 158.657 30.8421C157.997 30.8142 157.336 30.8722 156.68 31.0156C155.426 31.2068 154.172 31.3831 152.917 31.5444C152.493 31.553 152.073 31.6742 151.667 31.9043C151.416 32.076 151.176 31.8015 150.928 31.8295C149.921 31.9439 148.914 32.0479 147.909 32.1783C147.189 32.2721 146.472 32.3971 145.747 32.3926C145.392 32.3601 145.035 32.3727 144.681 32.4304C143.899 32.627 143.115 32.3731 142.335 32.5434C142.099 32.5218 141.863 32.5832 141.638 32.7245C141.595 32.7711 141.544 32.7868 141.494 32.7689C140.727 32.2979 139.965 32.7489 139.201 32.8005C138.802 32.8277 138.405 32.7316 138.009 32.7191C137.16 32.6924 136.309 32.7881 135.459 32.8761C135.212 32.9027 134.964 32.8967 134.717 32.8583C133.694 32.6987 132.669 32.5212 131.643 32.4776C130.995 32.4656 130.348 32.3885 129.704 32.2468C129.091 32.0982 128.46 32.2601 127.838 32.237C126.47 32.1858 125.103 32.0955 123.735 32.039C123.144 32.015 122.552 32.035 121.957 31.9287C122.042 31.7756 122.144 31.6597 122.255 31.5894C122.367 31.519 122.485 31.4959 122.602 31.5217C123.659 32.0132 124.735 31.7753 125.803 31.8598C126.152 31.8463 126.501 31.876 126.848 31.9487C127.277 32.0893 127.673 31.7063 128.096 31.6489C129.153 31.5572 130.211 31.5663 131.267 31.6761C132.314 31.733 133.362 31.7001 134.409 31.7077C136.04 31.7192 137.67 31.7321 139.3 31.7464C139.442 31.7464 139.601 31.7739 139.614 31.4199C139.626 31.0658 139.481 31.064 139.331 31.024C138.722 30.8621 138.11 31.0178 137.5 30.935C137.475 30.9319 137.438 30.9475 137.428 30.923C137.168 30.2857 136.895 30.7491 136.656 30.9377C136.266 31.246 135.892 30.9666 135.512 30.9568C135.488 30.957 135.464 30.9476 135.442 30.9292C135.42 30.9108 135.4 30.8839 135.383 30.8501C135.318 30.6495 135.342 30.279 135.138 30.351C134.912 30.4315 134.647 30.2905 134.47 30.6775C134.367 30.8999 134.348 30.823 134.266 30.6246C134.244 30.5515 134.212 30.4911 134.174 30.4496C134.135 30.4081 134.091 30.3873 134.047 30.3892C134.002 30.3911 133.959 30.4157 133.921 30.4605C133.884 30.5052 133.853 30.5684 133.833 30.6433C133.8 30.7285 133.754 30.7929 133.701 30.8283C133.649 30.8637 133.592 30.8683 133.537 30.8416C133.235 30.7918 132.948 30.4009 132.631 30.6984C132.292 29.9547 131.831 30.5548 131.436 30.3243C131.287 30.2328 131.128 30.2114 130.974 30.2621C130.819 30.3128 130.674 30.4341 130.55 30.6152C130.325 30.9302 130.055 30.8043 129.77 30.7042C129.253 30.5218 128.749 29.9681 128.184 30.4471C127.919 30.6717 127.603 30.5387 127.313 30.5641C126.737 30.6148 126.175 30.0001 125.596 30.4751C125.399 30.637 125.212 30.3519 125.015 30.3746C124.979 30.1077 125.184 29.8489 124.997 29.6545C124.821 29.4712 124.723 29.6869 124.636 29.9458C124.61 30.0153 124.574 30.0683 124.533 30.0978C124.491 30.1272 124.445 30.1316 124.402 30.1104C123.938 29.9018 123.481 30.1994 123.021 30.2114C122.529 30.2256 122.035 30.2607 121.541 30.2158C121.258 30.19 120.95 30.3693 120.77 29.7007C120.708 29.4708 120.504 29.5117 120.386 29.6118C120.138 29.7608 119.886 29.8818 119.63 29.9738C119.477 30.0628 119.354 30.1518 119.247 29.8142C119.161 29.5406 119.054 29.6878 118.976 29.8609C118.885 30.0419 118.773 30.179 118.648 30.2605C118.523 30.342 118.39 30.3654 118.259 30.3288C118.087 30.3079 117.762 30.4102 117.843 29.6896C117.849 29.6491 117.85 29.6066 117.846 29.5652C117.843 29.5238 117.834 29.4846 117.821 29.4502C117.808 29.4158 117.792 29.3871 117.772 29.3663C117.753 29.3454 117.731 29.3328 117.709 29.3293C117.66 29.3051 117.608 29.3135 117.562 29.3532C117.516 29.3928 117.479 29.4612 117.456 29.5468C117.394 29.7626 117.401 30.0979 117.217 30.1033C116.872 30.1131 116.529 30.3644 116.181 30.1166C116.033 30.0112 116.058 29.8942 116.134 29.7038C116.215 29.5032 116.508 29.4316 116.366 29.1403C116.293 28.964 116.196 28.8302 116.084 28.7548C115.973 28.6793 115.853 28.6652 115.737 28.7142C115.254 28.9708 115.233 29.1145 115.612 30.0859C115.326 30.0319 115.038 30.0066 114.75 30.0103C114.085 30.0833 113.427 29.8235 112.75 30.093C111.983 30.3986 111.19 30.0597 110.41 29.9854C109.233 29.8733 108.058 29.7012 106.883 29.5157C105.845 29.3516 104.808 28.9984 103.757 29.1256C103.628 29.1412 103.488 29.1576 103.468 28.8356C103.448 28.6974 103.457 28.5501 103.493 28.4243C103.53 28.2985 103.59 28.2038 103.662 28.16C103.976 28.0137 104.302 27.9973 104.619 28.1119C104.552 28.1564 104.484 28.192 104.418 28.2405C104.302 28.3268 104.221 28.4704 104.269 28.7249C104.278 28.7759 104.292 28.8232 104.31 28.8639C104.329 28.9045 104.352 28.9377 104.377 28.9615C104.402 28.9854 104.43 28.9993 104.459 29.0025C104.487 29.0057 104.515 28.9981 104.542 28.9802C104.696 28.9086 104.87 28.9032 104.973 28.6146C105.103 28.252 105.192 28.3477 105.297 28.6773C105.456 29.1803 105.745 29.0229 105.932 28.8899C106.199 28.7013 105.891 28.5496 105.855 28.3254C106.074 28.2213 106.283 28.0759 106.287 28.7453C106.287 28.9005 106.315 29.0322 106.399 29.0696C106.483 29.1069 106.537 29.0073 106.568 28.8614C106.654 28.4558 106.726 28.4976 106.815 28.869C106.865 29.0798 107.002 29.1576 107.035 28.9094C107.135 28.1635 107.441 28.5305 107.658 28.3717C107.662 28.4048 107.662 28.439 107.659 28.4722C107.656 28.5055 107.649 28.537 107.639 28.5651C107.628 28.5931 107.616 28.617 107.6 28.6353C107.585 28.6535 107.568 28.6659 107.551 28.6715C107.452 28.7435 107.244 28.5825 107.293 28.9731C107.327 29.2466 107.515 29.1954 107.621 29.1252C108.015 28.8663 108.448 29.1915 108.832 28.8138C108.861 28.792 108.891 28.7831 108.922 28.788C108.953 28.7929 108.982 28.8113 109.008 28.8418C109.372 29.4454 109.807 28.9695 110.198 29.1376C110.24 29.1554 110.326 29.1127 110.334 29.0642C110.48 28.1858 110.642 28.7862 110.839 28.9993C111.035 29.2124 111.303 28.9664 111.522 29.183C111.534 29.1946 111.6 29.0749 111.613 28.9993C111.635 28.8659 111.572 28.7996 111.525 28.7195C111.403 28.4799 111.248 28.3083 111.077 28.2234C110.906 28.1385 110.726 28.1435 110.557 28.2378L110.567 28.0492C110.806 27.9727 111.046 27.9245 111.288 27.9047C112.443 27.9362 113.599 27.9989 114.75 27.9669C115.906 27.9344 117.061 28.1831 118.216 27.9362C118.465 27.928 118.714 27.9564 118.96 28.0212C119.954 28.1101 120.946 27.9425 121.942 27.9914C122.653 28.0261 123.35 27.4732 124.078 27.5395C124.128 27.5383 124.177 27.5161 124.222 27.4745C124.267 27.4328 124.306 27.3728 124.337 27.2988C124.692 26.1708 125.233 26.7282 125.714 26.6863C125.745 26.1183 125.69 25.9302 125.401 25.9177C124.84 25.8919 124.279 25.9124 123.718 25.9177C123.649 25.9027 123.579 25.9334 123.521 26.0046C123.462 26.0759 123.419 26.1833 123.398 26.3083C123.393 26.3553 123.383 26.3996 123.368 26.4375C123.352 26.4754 123.332 26.5059 123.309 26.5265C123.286 26.5471 123.261 26.5571 123.236 26.5558C123.21 26.5545 123.186 26.542 123.163 26.5191C122.975 26.3835 123.174 26.294 123.177 26.1806C123.188 25.8301 123.041 25.9035 122.944 25.9004C122.545 25.8879 122.145 25.8813 121.747 25.9004C120.107 25.98 118.469 25.8248 116.829 25.767C115.163 25.7077 113.496 25.6512 111.829 25.5975C111.651 25.6341 111.472 25.5613 111.318 25.3898C112.223 25.3253 113.032 25.3613 113.841 25.336C114.576 25.3128 115.301 25.6704 116.048 25.4071C116.354 25.299 116.742 25.4471 117.052 25.392C117.588 25.2973 118.101 25.4996 118.625 25.4783C119.427 25.4458 120.224 25.4209 121.024 25.263C121.461 25.1772 121.92 25.2906 122.362 25.1994C123.218 25.0237 124.075 25.1692 124.93 25.1282C125.945 25.0789 126.967 24.9614 127.981 25.0749C128.962 25.1847 129.942 25.11 130.922 25.1781C132.288 25.2723 133.659 25.1442 135.025 25.2465C135.942 25.315 136.864 25.1069 137.776 25.44C137.824 25.4578 137.892 25.4845 137.923 25.44C138.338 24.8431 138.807 25.2755 139.248 25.1852C139.396 25.1549 139.536 25.1287 139.546 24.7942C139.557 24.4357 139.428 24.3939 139.268 24.4179C138.86 24.4806 138.485 24.1101 138.068 24.0999C137.745 24.0919 137.408 23.9913 137.079 24.0216C136.483 24.0758 135.889 24.2702 135.293 24.2831C134.892 24.2916 134.504 23.9246 134.091 23.9237C133.958 23.9237 133.971 23.668 133.915 23.5305C133.87 23.4012 133.801 23.3073 133.721 23.2664C133.642 23.2255 133.558 23.2403 133.483 23.3081C133.313 23.4669 133.469 23.7084 133.482 23.8761C132.648 24.3521 131.81 23.9953 130.974 23.9762C130.8 23.9722 130.626 23.9949 130.453 23.9918C130.156 23.986 129.867 24.0042 129.625 23.5394C129.433 23.1702 129.282 23.2823 129.213 23.7538C129.174 24.0274 129.051 23.9233 128.965 23.9251C128.48 23.9362 128.004 23.6866 127.515 23.7992C127.49 23.5065 127.721 23.4149 127.614 23.1444C127.569 23.0418 127.505 22.9747 127.435 22.9566C127.365 22.9385 127.294 22.9706 127.236 23.0466C126.798 23.4647 126.424 22.9189 126.023 22.7975C125.883 22.7016 125.74 22.6272 125.593 22.5751C124.902 22.5969 124.206 22.2824 123.518 22.673C123.242 22.8001 122.951 22.7787 122.681 22.6111C122.256 22.404 121.81 22.4 121.384 22.5996C120.697 22.9394 120.03 22.7161 119.356 22.4688C119.007 22.2912 118.644 22.2353 118.284 22.3038C117.791 22.4157 117.293 22.4053 116.802 22.2731C116.811 22.0538 116.888 22.0863 116.939 22.0912C117.82 22.1743 118.7 22.0147 119.586 22.1775C120.285 22.3056 121.003 21.9995 121.707 22.1374C122.729 22.3354 123.747 22.0133 124.764 22.1441C125.197 22.1997 125.625 22.3896 126.057 22.4808C126.259 22.5253 126.621 22.652 126.629 22.3474C126.64 21.8839 126.317 22.1748 126.143 22.0992C125.912 21.9904 125.688 21.8259 125.479 21.6099C125.743 21.4934 125.886 21.2096 126.074 21.6041C126.112 21.6842 126.19 21.7869 126.229 21.7629C126.653 21.496 127.059 21.903 127.484 21.8625C128.56 21.7593 129.64 21.831 130.718 21.8955C131.225 21.9257 131.735 21.8461 132.243 21.8109C132.299 21.8098 132.355 21.7834 132.405 21.7337C132.455 21.6841 132.499 21.6127 132.531 21.5254C132.605 21.3306 132.786 21.194 132.689 20.8858C132.6 20.602 132.447 20.7835 132.315 20.7808C131.92 20.7651 131.531 20.9673 131.196 21.3626C131.111 21.2376 131.156 21.1264 131.173 21.0196C131.193 20.8862 131.246 20.7332 131.164 20.6367C131.083 20.5402 130.997 20.6367 130.924 20.7363C130.717 21.0289 130.467 21.1929 130.208 21.2056C129.949 21.2182 129.695 21.079 129.48 20.807C129.355 20.6545 129.266 20.7594 129.18 20.9022C129.109 20.9977 129.028 21.0647 128.942 21.0989C128.857 21.1332 128.768 21.1341 128.683 21.1015C128.555 21.0908 128.415 21.0779 128.47 20.7065C128.486 20.6011 128.463 20.4623 128.414 20.5028C128.012 20.8351 127.652 19.5002 127.198 20.6892C127.363 19.615 127.811 19.4295 128.185 19.8036C128.648 20.2303 129.17 20.3736 129.679 20.2132C129.98 20.1358 130.247 19.9441 130.572 20.2061C130.639 20.264 130.711 20.293 130.785 20.2909C130.858 20.2889 130.93 20.2558 130.996 20.1943C131.061 20.1327 131.119 20.0441 131.164 19.9351C131.209 19.826 131.24 19.6993 131.256 19.5643C131.279 19.4308 131.3 19.2084 131.368 19.2311C131.736 19.3441 132.109 19.0532 132.472 19.2894C132.573 19.3552 132.593 19.4589 132.533 19.6661C132.42 20.0558 132.547 20.1554 132.732 20.1705C133.345 20.2235 133.96 20.2929 134.573 20.3444C134.934 20.3741 135.295 20.392 135.656 20.3983C135.783 20.4005 135.924 20.3493 135.93 20.0424C135.934 19.7707 135.802 19.7382 135.692 19.683C135.449 19.5727 135.2 19.5264 134.951 19.5456C134.869 19.5837 134.785 19.5848 134.703 19.5488C134.622 19.5129 134.546 19.4409 134.482 19.3388C135.019 19.2565 135.56 19.3217 136.087 19.5323C136.597 20.803 137.308 20.308 137.967 20.3057C138.276 20.3057 138.586 20.3832 138.896 20.4392C139.004 20.4579 139.088 20.5571 139.079 20.799C139.07 21.041 138.982 21.1104 138.871 21.1055C138.697 21.1573 138.52 21.0996 138.366 20.9414C138.229 20.7506 138.085 20.5655 138 21.0641C137.994 21.0928 137.985 21.1178 137.972 21.1361C137.959 21.1544 137.944 21.1651 137.928 21.1669C137.912 21.1687 137.896 21.1614 137.882 21.146C137.868 21.1307 137.857 21.1079 137.85 21.0806C137.587 20.2991 137.239 20.6896 136.93 20.8831C136.787 20.9686 136.633 20.9587 136.493 20.8551C135.917 20.5429 135.306 20.5405 134.73 20.848C134.55 20.9476 134.393 21.1784 134.219 20.848C134.195 20.8035 134.134 20.7657 134.117 20.7901C133.787 21.2825 133.363 20.9823 133.009 21.2563C132.919 21.3257 132.801 21.3764 132.813 21.6161C132.824 21.8114 132.929 21.8634 133.013 21.883C133.644 21.9916 134.281 21.934 134.904 21.7118C134.969 21.6926 135.035 21.4693 135.096 21.6183C135.29 22.0921 135.457 22.0333 135.628 21.5854C135.637 21.5699 135.647 21.5588 135.659 21.5532C135.671 21.5476 135.683 21.5477 135.695 21.5534C136.242 22.1668 136.833 21.8465 137.412 21.8608C137.995 21.875 138.575 21.9306 139.162 21.8723C139.792 21.8096 140.427 21.9066 141.06 21.8278C141.215 21.8087 141.425 21.9079 141.463 21.5045C141.501 21.1082 141.281 21.0277 141.145 20.9213C141.036 20.8331 140.918 20.7899 140.798 20.7945C140.679 20.7991 140.562 20.8514 140.455 20.948C140.247 21.1155 140.016 21.1537 139.796 21.057C139.713 21.0294 139.598 20.9778 139.598 20.7928C139.598 20.5611 139.729 20.5068 139.819 20.5015C140.055 20.4872 140.291 20.5415 140.526 20.5317C141.481 20.4921 142.435 20.4054 143.39 20.3983C144.28 20.3934 145.167 20.2586 146.064 20.3983C147.23 20.5762 148.398 20.2448 149.565 20.0994C150.707 19.9566 151.852 19.8721 152.992 19.6808C154.828 19.373 156.669 19.2009 158.506 18.9051C159.856 18.6876 161.204 18.382 162.56 18.2561C163.178 18.1987 163.792 17.9621 164.409 17.8211C165.594 17.5502 166.781 17.2985 167.965 17.0205C168.298 16.9418 168.624 16.7714 168.956 16.6789C169.189 16.6067 169.428 16.6242 169.658 16.7305C169.501 16.8453 169.337 16.9166 169.169 16.9422C168.661 16.8799 168.197 17.3425 167.696 17.3265C167.558 17.3268 167.421 17.3747 167.292 17.468C166.392 18.1027 165.435 18.0582 164.506 18.3406C163.991 18.4977 163.385 18.3446 162.982 19.2529C162.96 19.3175 162.94 19.3855 162.923 19.4562C163.179 19.592 163.452 19.5666 163.699 19.3837C164.478 19.0465 165.282 19.1021 166.061 18.7672C166.885 18.4114 167.72 18.1489 168.552 17.858C168.844 17.7473 169.14 17.6656 169.437 17.6134C170.449 17.4135 171.454 17.1088 172.448 16.7007C173.565 16.3004 174.708 16.1389 175.802 15.506C175.912 15.4667 176.025 15.4528 176.137 15.4646C176.598 15.4237 176.684 15.1394 176.455 14.3882C176.581 14.2414 176.687 14.5296 176.811 14.4433C176.911 14.3739 177.005 14.2872 177 14.0662C176.999 14.018 176.991 13.971 176.979 13.9292C176.966 13.8873 176.948 13.8519 176.927 13.8257C176.905 13.7996 176.881 13.7836 176.855 13.779C176.83 13.7744 176.804 13.7813 176.78 13.7993C176.4 14.0043 175.976 13.8469 175.627 14.2854C175.469 14.4261 175.294 14.4847 175.12 14.4553C175.014 14.4731 174.858 14.4362 174.866 14.7316C174.875 15.0532 175.043 15.0536 175.157 15.0073C175.44 14.8426 175.73 14.7334 176.025 14.6813C176.072 14.6813 176.119 14.6684 176.199 14.6568C175.951 15.1733 175.621 15.0483 175.348 15.1906C174.993 15.3259 174.631 15.4017 174.268 15.417C174.232 15.4232 174.181 15.4281 174.16 15.3894C173.68 14.4958 173.129 15.1061 172.613 15.1457C171.435 15.2346 170.273 15.6301 169.105 15.8894C167.761 16.1878 166.418 16.5245 165.073 16.8163C164.727 16.8915 164.376 16.8608 164.027 16.8781C163.81 16.8884 163.788 16.6949 163.9 16.4053C164.046 16.0268 164.227 15.703 164.362 15.3022C164.468 14.9909 164.541 15.1964 164.576 15.4423C164.722 16.4516 164.904 16.6611 165.451 16.4769C165.714 16.3291 165.982 16.2204 166.253 16.1518C166.297 16.1609 166.342 16.1401 166.379 16.0931C166.416 16.0461 166.443 15.976 166.455 15.8952C166.481 15.6679 166.384 15.6283 166.298 15.5838C166.239 15.554 166.16 15.5544 166.15 15.4117C166.139 15.2337 166.23 15.2084 166.292 15.1377C166.406 14.9593 166.533 14.8133 166.669 14.7044C166.769 14.66 167.095 14.2241 166.967 15.0434C166.935 15.2449 167.041 15.3134 167.103 15.2075C167.385 14.728 167.753 14.6417 168.083 14.3824C168.209 14.2832 168.37 14.1346 168.32 13.8371C168.266 13.5146 168.081 13.588 167.966 13.6979C167.662 13.9879 167.351 13.7254 167.044 13.7984C166.07 14.0301 165.087 14.16 164.12 14.4527C163.487 14.6444 162.852 14.8112 162.218 14.9931C161.853 15.0981 161.503 14.8414 161.143 14.829C161.069 14.8263 160.99 14.7427 160.923 14.7738C159.678 15.3489 158.385 14.8517 157.134 15.3965C156.666 15.5308 156.194 15.5948 155.722 15.5878C155.515 15.6131 155.289 15.5242 155.153 15.9548C155.121 16.0571 155.035 16.1416 154.992 16.0539C154.716 15.4975 154.511 15.9005 154.281 16.1874C154.179 16.2728 154.067 16.311 153.956 16.2986C152.925 16.4262 151.895 16.6122 150.863 16.646C150.247 16.6205 149.631 16.669 149.019 16.7914L149 16.577C149.336 16.4476 149.669 16.2777 150.008 16.1967C150.817 16.0046 151.633 15.9338 152.44 15.7911C153.119 15.6714 153.804 15.6212 154.482 15.5126C155.539 15.344 156.597 15.1368 157.657 15.0438C157.962 15.0171 158.239 14.7663 158.538 14.7525C159.355 14.7151 160.169 14.5963 160.983 14.47C161.447 14.3403 161.905 14.1442 162.353 13.8833C162.675 13.7503 162.842 13.3336 162.651 12.6045ZM108.06 12.6455C108.592 12.7166 109.123 12.4231 109.657 12.6321C109.787 12.6828 109.964 12.6481 109.971 12.3016C109.979 11.9551 109.81 11.9396 109.673 11.9205C109.41 11.9665 109.147 11.8527 108.921 11.5957C109.92 11.6776 110.816 11.904 111.742 11.8079C111.651 12.0125 111.474 11.944 111.467 12.2469C111.461 12.5619 111.642 12.5498 111.75 12.7398C111.547 12.7589 111.395 12.8118 111.297 12.4435C111.284 12.3809 111.262 12.3267 111.233 12.2874C111.204 12.2481 111.17 12.2255 111.134 12.2223C111.099 12.2191 111.063 12.2354 111.033 12.2693C111.002 12.3032 110.977 12.3533 110.961 12.4133C110.887 12.5896 110.788 12.722 110.676 12.7946C110.563 12.8673 110.442 12.8771 110.326 12.8229C109.866 12.75 109.407 12.8296 108.947 12.7816C108.651 12.7504 108.349 12.8652 108.062 12.6397C107.988 12.6486 107.912 12.6455 107.839 12.6682C107.716 12.7069 107.563 12.7469 107.57 13.0449C107.578 13.4007 107.735 13.2953 107.856 13.2851C107.945 13.2775 108.055 13.1659 108.109 13.4185C107.709 13.6769 107.276 13.6911 106.872 13.459C107.243 12.4013 107.592 12.1615 108.06 12.6455ZM134.161 17.4266C133.962 17.4266 133.838 17.4364 133.713 17.4266C133.111 17.3183 132.506 17.2676 131.901 17.2745C131.302 17.3336 130.709 17.1748 130.113 17.2482C130.05 17.2558 129.975 17.2371 129.975 17.0832C129.975 16.9431 130.046 16.9053 130.109 16.8924C130.171 16.8795 130.233 16.8817 130.295 16.8724C130.43 16.8524 130.605 16.8826 130.616 16.5374C130.627 16.1923 130.451 16.1456 130.318 16.1429C129.871 16.134 129.424 16.1438 128.976 16.1723C128.803 16.1838 128.543 15.9943 128.491 16.4414C128.446 16.8337 128.734 16.8234 128.854 17.0352C128.88 17.0926 128.903 17.1546 128.922 17.2202C124.635 17.0516 120.367 17.0423 116.107 16.5196C116.445 16.4545 116.785 16.4293 117.125 16.444C117.404 16.4476 117.699 16.6304 117.915 16.0802C118 15.8609 118.107 15.9712 118.2 16.1416C118.471 16.6357 118.826 16.5041 119.152 16.5557C119.181 16.5637 119.21 16.5597 119.237 16.544C119.265 16.5283 119.29 16.5013 119.311 16.4648C119.333 16.4284 119.349 16.3835 119.36 16.3334C119.371 16.2832 119.376 16.2291 119.375 16.1749C119.369 15.9129 119.245 15.8587 119.135 15.8057C118.942 15.7132 118.79 15.9837 118.542 16.1024C118.694 15.6821 118.854 15.3965 119.027 15.5006C119.374 15.7106 119.714 15.4815 120.055 15.5762C120.977 15.8325 121.909 15.9219 122.839 15.8431C123.847 15.7573 124.849 15.9525 125.851 15.8556C126.497 15.7929 127.129 16.1055 127.785 15.9401C128.544 15.7484 129.337 15.5255 130.081 15.7364C131.001 15.997 131.906 15.7292 132.814 15.884C132.926 15.8861 133.038 15.8694 133.148 15.8342C133.836 15.7168 134.524 15.3623 135.259 15.8698C134.67 15.8581 134.083 16.0108 133.518 16.323C133.89 16.3506 133.894 17.0525 134.161 17.4266ZM140.773 18.1747C147.366 18.1271 153.938 17.3563 160.502 16.158C160.357 16.3838 160.182 16.5329 159.996 16.5899C159.151 16.6851 158.314 16.9275 157.473 17.1023C156.35 17.3358 155.211 17.2949 154.085 17.4831C152.003 17.8305 149.916 18.0542 147.83 18.096C146.59 18.1209 145.354 18.2192 144.118 18.338C143.002 18.4704 141.883 18.4158 140.773 18.1747ZM92.3167 33.0247C95.1875 33.0131 98.0585 32.9994 100.927 33.3214C100.086 33.2831 99.2493 33.6639 98.4103 33.478C97.855 33.309 97.2856 33.4574 96.7753 33.9041C96.675 34.0254 96.5621 34.1048 96.4441 34.137C96.3262 34.1692 96.2059 34.1535 96.0915 34.0909C96.0127 34.0353 95.8941 34.0144 95.9611 33.7742C96.0764 33.3619 95.9026 33.4148 95.7909 33.3837C95.6794 33.3891 95.568 33.3699 95.4589 33.3263C95.1719 33.0963 94.9578 33.0794 94.7644 33.6701C94.631 34.0784 94.4343 33.9565 94.3594 33.4851C94.3212 33.244 94.2122 33.2475 94.1167 33.2507C93.8557 33.2591 93.5935 33.2662 93.3343 33.3183C92.9881 33.359 92.6413 33.2589 92.3174 33.0247H92.3167ZM141.553 17.2722C141.553 17.1935 141.554 17.1148 141.555 17.0361C142.405 17.1819 143.214 16.642 144.069 16.6615C145.483 16.7423 146.898 16.5995 148.298 16.2345C148.391 16.1907 148.489 16.1991 148.58 16.2585C148.67 16.3179 148.75 16.4258 148.808 16.569C148.515 16.5788 148.289 16.3827 148.106 16.6353C147.62 17.3087 147.059 17.1499 146.522 17.1352C145.579 17.1094 144.638 17.1575 143.695 17.2576C142.984 17.3332 142.268 17.2722 141.553 17.2722H141.553ZM113.911 33.7951H118.333C118.275 34.0922 118.071 34.1065 118.13 34.4178C118.179 34.6771 118.306 34.7341 118.43 34.7736C118.632 34.8188 118.826 34.9598 118.992 35.1837C118.585 35.0978 118.175 35.0625 117.766 35.0779C117.69 35.0917 117.615 35.0546 117.552 34.9732C117.49 34.8917 117.445 34.7712 117.426 34.6331C117.421 34.5378 117.403 34.4463 117.375 34.3673C117.346 34.2882 117.307 34.2243 117.262 34.1815C117.216 34.1386 117.166 34.1183 117.115 34.1225C117.065 34.1266 117.015 34.1551 116.972 34.2052C116.901 34.2577 116.828 34.3511 116.76 34.2719C116.516 33.9912 116.46 34.3253 116.402 34.6469C116.367 34.8377 116.376 35.0739 116.211 35.0721C115.521 35.0645 114.831 35.069 114.141 35.069C114.519 34.9218 114.91 35.0312 115.273 34.7216C115.346 34.6922 115.422 34.7169 115.485 34.7905C115.768 35.077 115.918 34.8012 116.062 34.3582C115.34 34.0446 114.623 34.0895 113.911 33.7951ZM102.618 34.5655C102.45 33.2796 101.802 33.7359 101.353 33.1021C103.234 33.5024 105.023 33.2017 106.802 33.5389C106.423 33.8891 105.995 34.0077 105.578 33.8783C105.494 33.8286 105.404 33.8223 105.319 33.8599C105.233 33.8975 105.154 33.9778 105.091 34.0922C104.873 34.5343 104.617 34.606 104.407 34.1514C104.344 33.9912 104.258 33.8677 104.16 33.795C104.061 33.7223 103.954 33.7034 103.85 33.7404C103.591 33.8087 103.33 33.832 103.069 33.8098C102.831 33.8084 102.567 33.7417 102.618 34.5655ZM163.56 16.8439C159.843 17.7308 156.123 18.4247 152.306 18.7303C153.089 18.2343 153.823 18.4421 154.544 18.3166C155.075 18.2246 155.605 18.0902 156.138 18.0649C157.48 18.0348 158.818 17.753 160.131 17.2238C160.324 17.1284 160.524 17.092 160.723 17.1161C161.401 17.2758 162.089 17.1606 162.742 16.7781C163.013 16.6592 163.296 16.682 163.56 16.8439ZM113.56 33.8925C113.276 34.017 112.992 34.1429 112.707 34.2666C112.618 34.3048 112.531 34.3586 112.525 34.5597C112.52 34.7274 112.596 34.7821 112.664 34.8501C112.722 34.9089 112.817 34.8564 112.843 35.0601C112.332 35.162 111.843 34.9378 111.257 34.8911C111.463 34.699 111.7 34.6559 111.922 34.7701C111.957 34.7774 111.992 34.7715 112.025 34.7525C112.058 34.7335 112.089 34.7019 112.116 34.6597C112.143 34.6175 112.164 34.5655 112.18 34.5068C112.196 34.4482 112.205 34.3841 112.207 34.3186C112.231 33.9721 112.081 33.9628 111.958 33.9405C111.613 33.8541 111.264 33.8278 110.917 33.8618C110.454 33.9933 109.981 33.9121 109.538 33.6252C110.88 33.5721 112.223 33.6614 113.56 33.8925ZM119.307 9.76897C119.576 9.60973 119.91 9.87039 120.073 9.24056C120.152 8.93676 119.958 8.90028 119.879 8.73393C120.477 8.52771 121.092 8.55891 121.683 8.82555C121.63 8.95571 121.556 9.04975 121.471 9.09361C121.387 9.13746 121.298 9.12877 121.217 9.06886C121.118 9.01192 120.993 9.05685 120.987 9.29526C120.98 9.57059 121.114 9.55502 121.208 9.51766C121.439 9.46131 121.673 9.54512 121.877 9.75696C120.978 10.0074 120.142 9.63197 119.307 9.76897ZM91.3574 33.9392C90.9073 33.0051 90.7554 32.8717 90.2886 33.0496C90.1349 33.1336 89.9742 33.1628 89.8149 33.1355C89.6364 33.0812 89.4376 33.0118 89.3654 33.5051C89.3582 33.545 89.3457 33.5808 89.3293 33.6093C89.3128 33.6378 89.2928 33.6582 89.2711 33.6684C89.2495 33.6787 89.2268 33.6787 89.2051 33.6682C89.1834 33.6578 89.1635 33.6374 89.1471 33.6087C88.9615 33.2084 88.7274 33.2275 88.4791 33.1968C88.3954 33.1797 88.315 33.1257 88.2444 33.0391C88.1738 32.9526 88.1149 32.836 88.0726 32.6987C89.289 32.897 90.5041 32.68 91.7981 32.8797C91.5657 33.232 91.3518 33.4112 91.3574 33.9392ZM111.023 16.4049L111.019 16.154C111.307 16.154 111.596 16.1638 111.885 16.1491C112.004 16.1429 112.178 16.1527 112.182 15.86C112.188 15.5162 112.006 15.6265 111.894 15.5998C111.584 15.5255 111.262 15.7208 110.919 15.4802C111.497 15.111 112.235 15.1439 113.241 15.5558C113.122 15.8742 113.107 15.8058 112.542 16.2675C112.019 16.6931 111.527 16.4102 111.022 16.4049H111.023ZM114.09 31.4808C115.844 31.7134 117.605 31.2704 119.355 31.8366C117.598 31.7357 115.84 31.9728 114.088 31.4808H114.09ZM118.705 34.0949L118.697 33.9259C119.748 33.7801 120.804 33.8155 121.851 34.0317C121.639 34.2378 121.394 34.2911 121.162 34.1816C120.879 34.1057 120.593 34.0744 120.307 34.0882C120.195 34.0927 120.071 34.094 120.012 34.3137C119.945 34.561 120.049 34.6945 120.13 34.8408C120.23 35.0187 120.317 35.2144 120.256 35.4671C119.923 35.0561 119.434 35.0481 119.284 34.162C119.274 34.1033 119.146 34.1033 119.072 34.0976C118.95 34.0878 118.827 34.0949 118.704 34.0949H118.705ZM105.979 25.0669H102.561L102.565 24.8169C103.704 24.7768 104.844 24.8603 105.979 25.0669ZM98.7458 24.123C99.2809 24.077 99.817 24.1516 100.343 24.3454C100.454 24.3899 100.648 24.2627 100.649 24.5651C100.651 24.8676 100.459 24.7555 100.346 24.7826C99.9345 24.8805 99.5339 24.4615 99.1094 24.7413C98.9069 24.8729 98.8324 24.4677 98.7458 24.123Z" fill="url(#paint0_linear_314_170)" fill-opacity="0.5"/>
<defs>
<linearGradient id="paint0_linear_314_170" x1="2.75333" y1="22.0001" x2="177" y2="22.0001" gradientUnits="userSpaceOnUse">
<stop stop-color="#6C60E1"/>
<stop offset="1" stop-color="#6C60E1" stop-opacity="0"/>
</linearGradient>
</defs>
</svg>
