<svg width="623" height="62" viewBox="0 0 623 62" fill="none" xmlns="http://www.w3.org/2000/svg">
<g filter="url(#filter0_d_383_336)">
<path d="M56.29 52.4618H28.71C14.5 52.4618 4 41.2618 4 26.4918C4 11.5118 14.5 1.57177 28.71 1.57177H56.29V10.4618H28.71C19.61 10.4618 12.89 17.2518 12.89 26.9118C12.89 36.5018 19.54 43.5718 28.71 43.5718H56.29V52.4618Z" fill="#6C60E1"/>
<path d="M99.1371 52.4618H86.7471C72.5371 52.4618 62.0371 41.2618 62.0371 26.4918C62.0371 11.5118 72.5371 1.57177 86.7471 1.57177H99.1371C113.837 1.57177 124.057 11.7218 124.057 26.4918C124.057 41.2618 113.627 52.4618 99.1371 52.4618ZM86.7471 43.5718H99.1371C108.517 43.5718 115.167 36.5018 115.167 26.9118C115.167 17.3218 108.517 10.4618 99.1371 10.4618H86.7471C77.6471 10.4618 70.9271 17.2518 70.9271 26.9118C70.9271 36.5018 77.5771 43.5718 86.7471 43.5718Z" fill="#6C60E1"/>
<path d="M200.619 52.4618H191.799L182.069 16.6918L167.649 49.8018C166.669 51.9718 165.269 53.1618 163.099 53.1618C160.999 53.1618 159.459 51.9718 158.549 49.8018L144.199 16.6918L134.469 52.4618H125.719L138.809 4.58178C139.439 2.13177 140.839 0.941772 143.219 0.941772C145.109 0.941772 146.859 1.99178 147.699 3.95178L163.379 39.9318L179.059 3.95178C179.899 1.99178 181.439 0.941772 183.329 0.941772C185.499 0.941772 186.899 2.13177 187.599 4.58178L200.619 52.4618Z" fill="#6C60E1"/>
<path d="M215.895 52.4618H207.005V1.57177H215.895V52.4618Z" fill="#6C60E1"/>
<path d="M269.207 51.2018L233.437 15.2218V52.4618H224.967V6.26178C224.967 2.97178 226.717 0.941772 229.517 0.941772C230.847 0.941772 231.967 1.43177 233.297 2.76177L269.207 38.3918V1.15177H277.677V47.7718C277.677 51.1318 275.857 53.0918 273.267 53.0918C271.797 53.0918 270.467 52.4618 269.207 51.2018Z" fill="#6C60E1"/>
<path d="M340.26 52.4618H309.53C295.32 52.4618 284.82 41.2618 284.82 26.4918C284.82 11.5118 295.32 1.57177 309.53 1.57177H337.11V10.4618H309.53C300.43 10.4618 293.71 17.2518 293.71 26.9118C293.71 36.5018 300.36 43.5718 309.53 43.5718H331.3V30.3418H308.34V22.8518H340.26V52.4618Z" fill="#6C60E1"/>
<path d="M407.155 52.4618H369.005V43.5718H407.155C411.915 43.5718 414.575 40.9118 414.575 36.9218C414.575 32.5818 411.915 30.3418 407.155 30.3418H383.775C374.185 30.3418 368.235 24.2518 368.235 15.8518C368.235 7.66177 373.765 1.57177 383.915 1.57177H420.455V10.4618H383.915C379.855 10.4618 377.475 12.8418 377.475 16.6918C377.475 20.5418 379.925 22.8518 383.845 22.8518H407.155C417.445 22.8518 422.975 27.6818 422.975 37.5518C422.975 46.0918 417.795 52.4618 407.155 52.4618Z" fill="#6C60E1"/>
<path d="M466.227 52.4618H453.837C439.627 52.4618 429.127 41.2618 429.127 26.4918C429.127 11.5118 439.627 1.57177 453.837 1.57177H466.227C480.927 1.57177 491.147 11.7218 491.147 26.4918C491.147 41.2618 480.717 52.4618 466.227 52.4618ZM453.837 43.5718H466.227C475.607 43.5718 482.257 36.5018 482.257 26.9118C482.257 17.3218 475.607 10.4618 466.227 10.4618H453.837C444.737 10.4618 438.017 17.2518 438.017 26.9118C438.017 36.5018 444.667 43.5718 453.837 43.5718Z" fill="#6C60E1"/>
<path d="M533.971 52.4618H521.581C507.371 52.4618 496.871 41.2618 496.871 26.4918C496.871 11.5118 507.371 1.57177 521.581 1.57177H533.971C548.671 1.57177 558.891 11.7218 558.891 26.4918C558.891 41.2618 548.461 52.4618 533.971 52.4618ZM521.581 43.5718H533.971C543.351 43.5718 550.001 36.5018 550.001 26.9118C550.001 17.3218 543.351 10.4618 533.971 10.4618H521.581C512.481 10.4618 505.761 17.2518 505.761 26.9118C505.761 36.5018 512.411 43.5718 521.581 43.5718Z" fill="#6C60E1"/>
<path d="M610.115 51.2018L574.345 15.2218V52.4618H565.875V6.26178C565.875 2.97178 567.625 0.941772 570.425 0.941772C571.755 0.941772 572.875 1.43177 574.205 2.76177L610.115 38.3918V1.15177H618.585V47.7718C618.585 51.1318 616.765 53.0918 614.175 53.0918C612.705 53.0918 611.375 52.4618 610.115 51.2018Z" fill="#6C60E1"/>
</g>
<defs>
<filter id="filter0_d_383_336" x="0" y="0.941772" width="622.585" height="60.22" filterUnits="userSpaceOnUse" color-interpolation-filters="sRGB">
<feFlood flood-opacity="0" result="BackgroundImageFix"/>
<feColorMatrix in="SourceAlpha" type="matrix" values="0 0 0 0 0 0 0 0 0 0 0 0 0 0 0 0 0 0 127 0" result="hardAlpha"/>
<feOffset dy="4"/>
<feGaussianBlur stdDeviation="2"/>
<feComposite in2="hardAlpha" operator="out"/>
<feColorMatrix type="matrix" values="0 0 0 0 0 0 0 0 0 0 0 0 0 0 0 0 0 0 0.25 0"/>
<feBlend mode="normal" in2="BackgroundImageFix" result="effect1_dropShadow_383_336"/>
<feBlend mode="normal" in="SourceGraphic" in2="effect1_dropShadow_383_336" result="shape"/>
</filter>
</defs>
</svg>
