<svg width="84" height="84" viewBox="0 0 84 84" fill="none" xmlns="http://www.w3.org/2000/svg">
<circle cx="42" cy="42" r="42" fill="url(#paint0_linear_316_160)"/>
<path d="M42.1143 46.9869C45.5691 46.9869 48.3697 44.1863 48.3697 40.7315C48.3697 37.2767 45.5691 34.4761 42.1143 34.4761C38.6595 34.4761 35.8589 37.2767 35.8589 40.7315C35.8589 44.1863 38.6595 46.9869 42.1143 46.9869Z" fill="white"/>
<path d="M43.29 54.0556L42.114 55.2316L40.938 54.0556L41.6011 49.4641C41.7762 49.4891 41.9389 49.4891 42.114 49.4891C42.2892 49.4891 42.4518 49.4891 42.627 49.4641L43.29 54.0556Z" fill="white"/>
<path d="M50.8719 52.4292V59.4978C50.8719 60.874 49.7459 62 48.3698 62H35.8589C34.4827 62 33.3567 60.874 33.3567 59.4978V52.4292C33.3567 50.2023 34.2825 48.188 35.7588 46.7493C36.6846 47.7376 37.8356 48.5008 39.1367 48.9637L38.3736 54.3183C38.3235 54.7062 38.4487 55.094 38.7239 55.3818L41.2261 57.8839C41.4763 58.1216 41.789 58.2467 42.1143 58.2467C42.4396 58.2467 42.7524 58.1216 43.0026 57.8839L45.5048 55.3818C45.78 55.094 45.9051 54.7062 45.8551 54.3183L45.0919 48.9637C46.393 48.5008 47.544 47.7376 48.4698 46.7493C49.2299 47.4872 49.8341 48.3701 50.2467 49.3457C50.6593 50.3214 50.8719 51.3699 50.8719 52.4292ZM46.9498 25.2994L44.5977 24.6451L43.1502 22.5133C42.6836 21.8289 41.5476 21.8289 41.0809 22.5133L39.6309 24.6451L37.2801 25.2994C37.0812 25.3547 36.899 25.4584 36.7499 25.6013C36.6008 25.7441 36.4895 25.9217 36.4258 26.1181C36.3621 26.3145 36.348 26.5237 36.3849 26.7268C36.4218 26.93 36.5084 27.1209 36.6371 27.2824L38.2672 29.3342L38.0796 31.6662C38.0628 31.8756 38.099 32.0858 38.1849 32.2775C38.2708 32.4692 38.4035 32.6362 38.5709 32.7631C38.7383 32.89 38.935 32.9727 39.1427 33.0036C39.3505 33.0344 39.5627 33.0125 39.7598 32.9398L42.1143 32.0703L44.4701 32.9398C44.6672 33.0126 44.8795 33.0346 45.0874 33.004C45.2952 32.9734 45.4921 32.8911 45.6599 32.7646C45.8276 32.6377 45.9606 32.4704 46.0465 32.2784C46.1324 32.0864 46.1686 31.8759 46.1516 31.6662L45.9639 29.3354L47.5928 27.2836C47.7221 27.1222 47.8092 26.9312 47.8464 26.7278C47.8836 26.5244 47.8697 26.315 47.806 26.1182C47.7422 25.9215 47.6306 25.7437 47.4812 25.6008C47.3317 25.4579 47.1491 25.3543 46.9498 25.2994ZM34.5866 30.7567L32.2358 30.1023L30.7858 27.9705C30.6706 27.8025 30.5163 27.6651 30.3361 27.5702C30.156 27.4752 29.9554 27.4256 29.7517 27.4256C29.5481 27.4256 29.3475 27.4752 29.1673 27.5702C28.9872 27.6651 28.8328 27.8025 28.7177 27.9705L27.2665 30.1023L24.9144 30.7567C24.7156 30.8122 24.5337 30.916 24.3848 31.0589C24.2359 31.2018 24.1247 31.3793 24.061 31.5757C23.9974 31.772 23.9832 31.981 24.0199 32.1841C24.0566 32.3872 24.143 32.578 24.2714 32.7396L25.9028 34.7939L25.7151 37.1247C25.6983 37.3341 25.7346 37.5443 25.8204 37.736C25.9063 37.9277 26.0391 38.0947 26.2064 38.2216C26.3738 38.3485 26.5705 38.4312 26.7783 38.4621C26.986 38.4929 27.1982 38.471 27.3953 38.3983L29.7511 37.5275L32.1082 38.3983C32.3051 38.4708 32.5171 38.4928 32.7247 38.4622C32.9324 38.4316 33.129 38.3494 33.2967 38.2231C33.4645 38.0963 33.5976 37.9291 33.6836 37.7371C33.7696 37.545 33.8056 37.3344 33.7884 37.1247L33.6007 34.7939L35.2309 32.7396C35.3592 32.5779 35.4455 32.387 35.4821 32.1838C35.5188 31.9807 35.5045 31.7716 35.4408 31.5753C35.377 31.3789 35.2656 31.2014 35.1165 31.0586C34.9675 30.9158 34.7854 30.812 34.5866 30.7567ZM60.1675 31.5749C60.1036 31.3786 59.9922 31.2011 59.8431 31.0584C59.694 30.9156 59.5119 30.812 59.313 30.7567L56.961 30.1023L55.5122 27.9705C55.0468 27.2849 53.9108 27.2861 53.4442 27.9705L51.9941 30.1023L49.6434 30.7567C49.4445 30.812 49.2624 30.9158 49.1134 31.0586C48.9643 31.2014 48.8529 31.3789 48.7892 31.5753C48.7254 31.7716 48.7111 31.9807 48.7478 32.1838C48.7844 32.387 48.8707 32.5779 48.9991 32.7396L50.6305 34.7939L50.4428 37.1247C50.4254 37.3343 50.4611 37.5448 50.5468 37.7369C50.6325 37.929 50.7652 38.0963 50.9328 38.2233C51.1004 38.3503 51.2974 38.433 51.5055 38.4636C51.7135 38.4942 51.9259 38.4717 52.123 38.3983L54.4788 37.5275L56.8346 38.3983C57.0317 38.4707 57.2438 38.4923 57.4514 38.4613C57.659 38.4303 57.8555 38.3475 58.0228 38.2207C58.1901 38.0939 58.3229 37.9271 58.4088 37.7356C58.4948 37.544 58.5312 37.334 58.5148 37.1247L58.3271 34.7939L59.9586 32.7396C60.0868 32.578 60.1731 32.3873 60.2098 32.1843C60.2464 31.9813 60.2323 31.7724 60.1687 31.5761L60.1675 31.5749Z" fill="white"/>
<defs>
<linearGradient id="paint0_linear_316_160" x1="42" y1="0" x2="33.1505" y2="108.858" gradientUnits="userSpaceOnUse">
<stop stop-color="#5498FF"/>
<stop offset="1" stop-color="#86D3FF"/>
</linearGradient>
</defs>
</svg>
