<svg width="1163" height="38" viewBox="0 0 1163 38" fill="none" xmlns="http://www.w3.org/2000/svg">
<path d="M6.52705 37.5H0.227051V1.15002H31.0771V7.50003H6.52705V37.5ZM29.5771 22.45H11.1771V16.9H29.5771V22.45Z" fill="#6C60E1"/>
<path d="M67.981 21.45V1.15002H74.181V21.45C74.181 32.7 68.631 38 54.531 38C40.531 38 34.931 32.7 34.931 21.45V1.15002H41.481V21.45C41.481 28.75 44.731 31.75 54.731 31.75C64.731 31.75 67.981 28.75 67.981 21.45Z" fill="#6C60E1"/>
<path d="M110.715 37.5H79.9146V1.15002H86.2645V31.15H110.715V37.5Z" fill="#6C60E1"/>
<path d="M146.066 37.5H115.266V1.15002H121.616V31.15H146.066V37.5Z" fill="#6C60E1"/>
<path d="M199.465 36L193.865 25.35L188.215 36C187.515 37.35 186.265 38 184.965 38C183.565 38 182.415 37.35 181.665 36L162.865 1.15002H170.465L185.165 29.1L190.665 19.2L181.215 1.15002H188.865L202.915 29.1L217.715 1.15002H224.815L206.015 36C205.265 37.35 204.065 38 202.715 38C201.365 38 200.165 37.35 199.465 36Z" fill="#6C60E1"/>
<path d="M261.194 37.5H228.694V1.15002H261.144V7.50003H234.994V31.15H261.194V37.5ZM259.794 21.7H239.644V16.35H259.794V21.7Z" fill="#6C60E1"/>
<path d="M293.933 37.5H266.583V1.15002H293.183C300.283 1.15002 304.983 4.35002 304.983 10.55C304.983 15.15 302.633 17.45 299.933 18.3C303.233 19.35 305.633 22.25 305.633 26.5C305.633 33.15 301.033 37.5 293.933 37.5ZM293.683 21.7H277.533V16.35H293.233C296.833 16.35 298.533 15.1 298.533 11.95C298.533 8.10003 295.483 7.50003 290.783 7.50003H272.933V31.2H291.333C295.883 31.2 299.183 29.95 299.183 26.4C299.183 23.4 297.233 21.7 293.683 21.7Z" fill="#6C60E1"/>
<path d="M338.415 37.5H311.165V31.15H338.415C341.815 31.15 343.715 29.25 343.715 26.4C343.715 23.3 341.815 21.7 338.415 21.7H321.715C314.865 21.7 310.615 17.35 310.615 11.35C310.615 5.50002 314.565 1.15002 321.815 1.15002H347.915V7.50003H321.815C318.915 7.50003 317.215 9.20002 317.215 11.95C317.215 14.7 318.965 16.35 321.765 16.35H338.415C345.765 16.35 349.715 19.8 349.715 26.85C349.715 32.95 346.015 37.5 338.415 37.5Z" fill="#6C60E1"/>
<path d="M361.859 37.5H355.509V1.15002H361.859V37.5Z" fill="#6C60E1"/>
<path d="M386.489 37.5H380.139V7.50003H366.339V1.15002H400.289V7.50003H386.489V37.5Z" fill="#6C60E1"/>
<path d="M436.975 37.5H404.475V1.15002H436.925V7.50003H410.775V31.15H436.975V37.5ZM435.575 21.7H415.425V16.35H435.575V21.7Z" fill="#6C60E1"/>
<path d="M487.912 37.5H457.112V1.15002H463.462V31.15H487.912V37.5Z" fill="#6C60E1"/>
<path d="M538.013 37.5H530.363L524.913 28.35H507.713L510.713 23.2H521.863L513.763 9.60003L497.263 37.5H490.013L510.913 2.70002C511.663 1.45003 512.613 0.650024 514.013 0.650024C515.413 0.650024 516.313 1.45003 517.063 2.70002L538.013 37.5Z" fill="#6C60E1"/>
<path d="M571.35 21.45V1.15002H577.55V21.45C577.55 32.7 572 38 557.9 38C543.9 38 538.3 32.7 538.3 21.45V1.15002H544.85V21.45C544.85 28.75 548.1 31.75 558.1 31.75C568.1 31.75 571.35 28.75 571.35 21.45Z" fill="#6C60E1"/>
<path d="M614.734 36.6L589.184 10.9V37.5H583.134V4.50003C583.134 2.15003 584.384 0.700024 586.384 0.700024C587.334 0.700024 588.134 1.05003 589.084 2.00002L614.734 27.45V0.850025H620.784V34.15C620.784 36.55 619.484 37.95 617.634 37.95C616.584 37.95 615.634 37.5 614.734 36.6Z" fill="#6C60E1"/>
<path d="M663.236 37.5H643.536C633.386 37.5 625.886 29.5 625.886 18.95C625.886 8.25002 633.386 1.15002 643.536 1.15002H663.236V7.50003H643.536C637.036 7.50003 632.236 12.35 632.236 19.25C632.236 26.1 636.986 31.15 643.536 31.15H663.236V37.5Z" fill="#6C60E1"/>
<path d="M703.991 37.65H697.641V21.85H679.341V16.2H697.641V1.15002H703.991V37.65ZM674.741 37.65H668.391V1.15002H674.741V37.65Z" fill="#6C60E1"/>
<path d="M761.283 37.5H741.583C731.433 37.5 723.933 29.5 723.933 18.95C723.933 8.25002 731.433 1.15002 741.583 1.15002H761.283V7.50003H741.583C735.083 7.50003 730.283 12.35 730.283 19.25C730.283 26.1 735.033 31.15 741.583 31.15H761.283V37.5Z" fill="#6C60E1"/>
<path d="M791.888 37.5H783.038C772.888 37.5 765.388 29.5 765.388 18.95C765.388 8.25002 772.888 1.15002 783.038 1.15002H791.888C802.388 1.15002 809.688 8.40003 809.688 18.95C809.688 29.5 802.238 37.5 791.888 37.5ZM783.038 31.15H791.888C798.588 31.15 803.338 26.1 803.338 19.25C803.338 12.4 798.588 7.50003 791.888 7.50003H783.038C776.538 7.50003 771.738 12.35 771.738 19.25C771.738 26.1 776.488 31.15 783.038 31.15Z" fill="#6C60E1"/>
<path d="M864.375 37.5H858.075L851.125 11.95L840.825 35.6C840.125 37.15 839.125 38 837.575 38C836.075 38 834.975 37.15 834.325 35.6L824.075 11.95L817.125 37.5H810.875L820.225 3.30003C820.675 1.55002 821.675 0.700024 823.375 0.700024C824.725 0.700024 825.975 1.45003 826.575 2.85003L837.775 28.55L848.975 2.85003C849.575 1.45003 850.675 0.700024 852.025 0.700024C853.575 0.700024 854.575 1.55002 855.075 3.30003L864.375 37.5Z" fill="#6C60E1"/>
<path d="M875.286 37.5H868.936V1.15002H875.286V37.5Z" fill="#6C60E1"/>
<path d="M913.367 36.6L887.817 10.9V37.5H881.766V4.50003C881.766 2.15003 883.016 0.700024 885.016 0.700024C885.966 0.700024 886.766 1.05003 887.716 2.00002L913.367 27.45V0.850025H919.417V34.15C919.417 36.55 918.116 37.95 916.266 37.95C915.216 37.95 914.267 37.5 913.367 36.6Z" fill="#6C60E1"/>
<path d="M964.119 37.5H942.169C932.019 37.5 924.519 29.5 924.519 18.95C924.519 8.25002 932.019 1.15002 942.169 1.15002H961.869V7.50003H942.169C935.669 7.50003 930.869 12.35 930.869 19.25C930.869 26.1 935.619 31.15 942.169 31.15H957.719V21.7H941.319V16.35H964.119V37.5Z" fill="#6C60E1"/>
<path d="M1011.9 37.5H984.651V31.15H1011.9C1015.3 31.15 1017.2 29.25 1017.2 26.4C1017.2 23.3 1015.3 21.7 1011.9 21.7H995.201C988.351 21.7 984.101 17.35 984.101 11.35C984.101 5.50002 988.051 1.15002 995.301 1.15002H1021.4V7.50003H995.301C992.401 7.50003 990.701 9.20002 990.701 11.95C990.701 14.7 992.451 16.35 995.251 16.35H1011.9C1019.25 16.35 1023.2 19.8 1023.2 26.85C1023.2 32.95 1019.5 37.5 1011.9 37.5Z" fill="#6C60E1"/>
<path d="M1054.09 37.5H1045.24C1035.09 37.5 1027.59 29.5 1027.59 18.95C1027.59 8.25002 1035.09 1.15002 1045.24 1.15002H1054.09C1064.59 1.15002 1071.9 8.40003 1071.9 18.95C1071.9 29.5 1064.44 37.5 1054.09 37.5ZM1045.24 31.15H1054.09C1060.79 31.15 1065.55 26.1 1065.55 19.25C1065.55 12.4 1060.79 7.50003 1054.09 7.50003H1045.24C1038.74 7.50003 1033.95 12.35 1033.95 19.25C1033.95 26.1 1038.69 31.15 1045.24 31.15Z" fill="#6C60E1"/>
<path d="M1102.48 37.5H1093.63C1083.48 37.5 1075.98 29.5 1075.98 18.95C1075.98 8.25002 1083.48 1.15002 1093.63 1.15002H1102.48C1112.98 1.15002 1120.28 8.40003 1120.28 18.95C1120.28 29.5 1112.83 37.5 1102.48 37.5ZM1093.63 31.15H1102.48C1109.18 31.15 1113.93 26.1 1113.93 19.25C1113.93 12.4 1109.18 7.50003 1102.48 7.50003H1093.63C1087.13 7.50003 1082.33 12.35 1082.33 19.25C1082.33 26.1 1087.08 31.15 1093.63 31.15Z" fill="#6C60E1"/>
<path d="M1156.87 36.6L1131.32 10.9V37.5H1125.27V4.50003C1125.27 2.15003 1126.52 0.700024 1128.52 0.700024C1129.47 0.700024 1130.27 1.05003 1131.22 2.00002L1156.87 27.45V0.850025H1162.92V34.15C1162.92 36.55 1161.62 37.95 1159.77 37.95C1158.72 37.95 1157.77 37.5 1156.87 36.6Z" fill="#6C60E1"/>
</svg>
