<svg width="75" height="75" viewBox="0 0 75 75" fill="none" xmlns="http://www.w3.org/2000/svg">
<g opacity="0.3">
<path d="M3.20476 6.40951C4.9747 6.40951 6.40951 4.9747 6.40951 3.20476C6.40951 1.43482 4.9747 0 3.20476 0C1.43482 0 0 1.43482 0 3.20476C0 4.9747 1.43482 6.40951 3.20476 6.40951Z" fill="#6C60E1"/>
<path d="M26.068 6.40951C27.838 6.40951 29.2728 4.9747 29.2728 3.20476C29.2728 1.43482 27.838 0 26.068 0C24.2981 0 22.8633 1.43482 22.8633 3.20476C22.8633 4.9747 24.2981 6.40951 26.068 6.40951Z" fill="#6C60E1"/>
<path d="M48.9324 6.40951C50.7024 6.40951 52.1372 4.9747 52.1372 3.20476C52.1372 1.43482 50.7024 0 48.9324 0C47.1625 0 45.7277 1.43482 45.7277 3.20476C45.7277 4.9747 47.1625 6.40951 48.9324 6.40951Z" fill="#6C60E1"/>
<path d="M71.7957 6.40951C73.5656 6.40951 75.0005 4.9747 75.0005 3.20476C75.0005 1.43482 73.5656 0 71.7957 0C70.0258 0 68.5909 1.43482 68.5909 3.20476C68.5909 4.9747 70.0258 6.40951 71.7957 6.40951Z" fill="#6C60E1"/>
<path d="M3.20476 29.2747C4.9747 29.2747 6.40951 27.8399 6.40951 26.07C6.40951 24.3001 4.9747 22.8652 3.20476 22.8652C1.43482 22.8652 0 24.3001 0 26.07C0 27.8399 1.43482 29.2747 3.20476 29.2747Z" fill="#6C60E1"/>
<path d="M26.068 29.2747C27.838 29.2747 29.2728 27.8399 29.2728 26.07C29.2728 24.3001 27.838 22.8652 26.068 22.8652C24.2981 22.8652 22.8633 24.3001 22.8633 26.07C22.8633 27.8399 24.2981 29.2747 26.068 29.2747Z" fill="#6C60E1"/>
<path d="M48.9324 29.2747C50.7024 29.2747 52.1372 27.8399 52.1372 26.07C52.1372 24.3001 50.7024 22.8652 48.9324 22.8652C47.1625 22.8652 45.7277 24.3001 45.7277 26.07C45.7277 27.8399 47.1625 29.2747 48.9324 29.2747Z" fill="#6C60E1"/>
<path d="M71.7957 29.2747C73.5656 29.2747 75.0005 27.8399 75.0005 26.07C75.0005 24.3001 73.5656 22.8652 71.7957 22.8652C70.0258 22.8652 68.5909 24.3001 68.5909 26.07C68.5909 27.8399 70.0258 29.2747 71.7957 29.2747Z" fill="#6C60E1"/>
<path d="M3.20476 52.1371C4.9747 52.1371 6.40951 50.7022 6.40951 48.9323C6.40951 47.1624 4.9747 45.7275 3.20476 45.7275C1.43482 45.7275 0 47.1624 0 48.9323C0 50.7022 1.43482 52.1371 3.20476 52.1371Z" fill="#6C60E1"/>
<path d="M26.068 52.1371C27.838 52.1371 29.2728 50.7022 29.2728 48.9323C29.2728 47.1624 27.838 45.7275 26.068 45.7275C24.2981 45.7275 22.8633 47.1624 22.8633 48.9323C22.8633 50.7022 24.2981 52.1371 26.068 52.1371Z" fill="#6C60E1"/>
<path d="M48.9324 52.1371C50.7024 52.1371 52.1372 50.7022 52.1372 48.9323C52.1372 47.1624 50.7024 45.7275 48.9324 45.7275C47.1625 45.7275 45.7277 47.1624 45.7277 48.9323C45.7277 50.7022 47.1625 52.1371 48.9324 52.1371Z" fill="#6C60E1"/>
<path d="M71.7957 52.1371C73.5656 52.1371 75.0005 50.7022 75.0005 48.9323C75.0005 47.1624 73.5656 45.7275 71.7957 45.7275C70.0258 45.7275 68.5909 47.1624 68.5909 48.9323C68.5909 50.7022 70.0258 52.1371 71.7957 52.1371Z" fill="#6C60E1"/>
<path d="M3.20476 75.0001C4.9747 75.0001 6.40951 73.5653 6.40951 71.7953C6.40951 70.0254 4.9747 68.5906 3.20476 68.5906C1.43482 68.5906 0 70.0254 0 71.7953C0 73.5653 1.43482 75.0001 3.20476 75.0001Z" fill="#6C60E1"/>
<path d="M26.068 75.0001C27.838 75.0001 29.2728 73.5653 29.2728 71.7953C29.2728 70.0254 27.838 68.5906 26.068 68.5906C24.2981 68.5906 22.8633 70.0254 22.8633 71.7953C22.8633 73.5653 24.2981 75.0001 26.068 75.0001Z" fill="#6C60E1"/>
<path d="M48.9324 75.0001C50.7024 75.0001 52.1372 73.5653 52.1372 71.7953C52.1372 70.0254 50.7024 68.5906 48.9324 68.5906C47.1625 68.5906 45.7277 70.0254 45.7277 71.7953C45.7277 73.5653 47.1625 75.0001 48.9324 75.0001Z" fill="#6C60E1"/>
<path d="M71.7957 75.0001C73.5656 75.0001 75.0005 73.5653 75.0005 71.7953C75.0005 70.0254 73.5656 68.5906 71.7957 68.5906C70.0258 68.5906 68.5909 70.0254 68.5909 71.7953C68.5909 73.5653 70.0258 75.0001 71.7957 75.0001Z" fill="#6C60E1"/>
</g>
</svg>
