<svg width="65" height="65" viewBox="0 0 65 65" fill="none" xmlns="http://www.w3.org/2000/svg">
<rect x="0.870117" y="0.272705" width="64" height="64" fill="white"/>
<path d="M21.3093 42.4119C21.3093 41.6508 20.7015 41.0346 19.9506 41.0346C19.1997 41.0346 18.5918 41.6508 18.5918 42.4119C18.5918 43.1731 19.1997 43.7893 19.9506 43.7893C20.7015 43.8074 21.3093 43.1731 21.3093 42.4119Z" fill="#5D5D5D"/>
<path d="M26.8712 42.4119C26.8712 41.6508 26.2633 41.0346 25.5124 41.0346C24.7615 41.0346 24.1536 41.6508 24.1536 42.4119C24.1536 43.1731 24.7615 43.7893 25.5124 43.7893C26.2454 43.8074 26.8712 43.1731 26.8712 42.4119Z" fill="#5D5D5D"/>
<path d="M32.434 42.4119C32.434 41.6508 31.8262 41.0346 31.0753 41.0346C30.3244 41.0346 29.7165 41.6508 29.7165 42.4119C29.7165 43.1731 30.3244 43.7893 31.0753 43.7893C31.8083 43.8074 32.434 43.1731 32.434 42.4119Z" fill="#5D5D5D"/>
<path d="M54.7977 23.9627C53.7787 13.8138 44.8751 7.77888 35.1671 8.30444C35.1134 10.4248 35.1313 21.7336 35.1492 31.2662C32.5747 28.9828 29.1956 27.5873 25.5127 27.5873C17.4315 27.5873 10.8701 34.2384 10.8701 42.43C10.8701 50.6216 17.4315 57.2727 25.5127 57.2727C29.5532 57.2727 33.2004 55.6054 35.8643 52.9232L29.6247 51.2196C28.3732 51.8177 26.9966 52.162 25.5305 52.162C20.2385 52.162 15.9297 47.7944 15.9297 42.43C15.9297 37.0656 20.2385 32.698 25.5305 32.698C30.8226 32.698 35.1313 37.0656 35.1313 42.43C35.1313 43.9161 34.7916 45.3297 34.2016 46.5802L35.8822 52.9051C38.5283 50.2229 40.1731 46.5077 40.1731 42.4119V13.687C48.719 15.1912 52.3305 21.5161 54.4402 29.3996C54.762 27.6417 54.9944 25.7569 54.7977 23.9627Z" fill="url(#paint0_linear_348_766)"/>
<defs>
<linearGradient id="paint0_linear_348_766" x1="32.8701" y1="8.2727" x2="27.1304" y2="71.6734" gradientUnits="userSpaceOnUse">
<stop stop-color="#6C60E1"/>
<stop offset="1" stop-color="#6C60E1" stop-opacity="0.55"/>
</linearGradient>
</defs>
</svg>
