<svg width="391" height="100" viewBox="0 0 391 100" fill="none" xmlns="http://www.w3.org/2000/svg">
<path fill-rule="evenodd" clip-rule="evenodd" d="M49.729 0.637695H340.446C367.778 0.637695 390.153 22.9862 390.153 50.3188C390.153 77.6514 367.778 99.9999 340.446 99.9999H49.729C22.3964 99.9999 0.0478516 77.6514 0.0478516 50.3188C0.0478516 22.9862 22.3964 0.637695 49.729 0.637695Z" fill="#ACA4FC"/>
<path fill-rule="evenodd" clip-rule="evenodd" d="M49.7288 3.10327H340.446C366.426 3.10327 387.661 24.3384 387.661 50.3189C387.661 76.2994 366.426 97.5345 340.446 97.5345H49.7288C23.7483 97.5345 2.51318 76.2994 2.51318 50.3189C2.51318 24.3384 23.7483 3.10327 49.7288 3.10327Z" fill="#6C60E1"/>
<path fill-rule="evenodd" clip-rule="evenodd" d="M49.7284 15.802H340.445C359.427 15.802 374.962 31.3373 374.962 50.319C374.962 69.3007 359.427 84.836 340.445 84.836H49.7284C30.7467 84.836 15.2114 69.3007 15.2114 50.319C15.2114 31.3373 30.7467 15.802 49.7284 15.802Z" fill="#ACA4FC"/>
<path fill-rule="evenodd" clip-rule="evenodd" d="M49.7282 18.2673H340.445C358.075 18.2673 372.496 32.6892 372.496 50.3188C372.496 67.9485 358.075 82.3703 340.445 82.3703H49.7282C32.0986 82.3703 17.6768 67.9485 17.6768 50.3188C17.6768 32.6892 32.0986 18.2673 49.7282 18.2673Z" fill="#6C60E1"/>
<path d="M53.1229 42.498H40.0796V51.6442C40.0796 52.4925 40.1061 53.0492 40.2122 53.2878C40.2652 53.5264 40.4243 53.7385 40.6629 53.8976C40.875 54.0566 41.2461 54.1362 41.8028 54.1362V54.3483H35.6523V54.1362C36.7658 54.2157 37.349 53.659 37.349 52.4925V33.3783C37.349 32.2913 37.243 31.602 37.0574 31.3104C36.8983 31.0188 36.4212 30.8597 35.6523 30.8332V30.5946H41.8028V30.8332C41.1136 30.8863 40.6629 30.9923 40.4243 31.2044C40.1857 31.443 40.0796 31.8672 40.0796 32.5299V41.8352H53.1229V33.3252C53.1229 32.3709 53.0434 31.7081 52.8843 31.3634C52.6987 31.0188 52.2216 30.8332 51.4527 30.8332V30.5946H57.5502V30.8332C57.073 30.8332 56.7284 30.8863 56.4898 30.9923C56.2512 31.0983 56.0921 31.2839 56.0126 31.5225C55.9331 31.7611 55.88 32.3709 55.88 33.3252V51.5646C55.88 52.519 55.9331 53.1023 56.0126 53.3409C56.0921 53.5529 56.2512 53.765 56.4633 53.8976C56.6754 54.0566 57.0465 54.1362 57.5502 54.1362V54.3483H51.4527V54.1362C52.1155 54.1362 52.5662 54.0036 52.8048 53.7385C53.0169 53.4469 53.1229 52.7311 53.1229 51.5381V42.498ZM72.7144 43.4258H65.7155L62.1366 52.413C61.898 53.0492 61.7654 53.4469 61.7654 53.606C61.7654 53.9506 62.0305 54.1362 62.5607 54.1362V54.3483H59.0083V54.1362C59.4855 54.1362 59.8832 54.0036 60.2278 53.7915C60.5459 53.5529 60.8906 52.9432 61.2882 51.9888L69.9042 30.2235H70.3549L78.7853 51.2465C78.7853 51.3525 78.9974 51.8563 79.4481 52.7576C79.8722 53.659 80.535 54.1362 81.4364 54.1362V54.3483H75.8691V54.1362C76.3728 54.1362 76.6379 53.9241 76.6379 53.5264C76.6379 53.2613 76.5054 52.8371 76.2668 52.2274C76.2138 52.2009 76.1873 52.1214 76.1607 52.0418C76.1342 51.9358 76.1077 51.8563 76.1077 51.8563L72.7144 43.4258ZM65.9541 42.7631H72.3962L69.1884 34.6508L65.9541 42.7631ZM82.921 30.8332V30.5946H89.6547C91.3514 30.5946 92.5974 30.6477 93.3397 30.7007C94.1085 30.7802 94.9038 31.0453 95.6992 31.4695C96.4945 31.8937 97.1042 32.4504 97.5019 33.1927C97.8996 33.9085 98.1116 34.8098 98.1116 35.8703C98.1116 37.0633 97.7405 38.2032 97.0247 39.3167C96.3089 40.4036 95.275 41.3315 93.9495 42.0738L95.6196 44.6453C95.9908 45.3081 96.9717 46.7132 98.5358 48.887C100.126 51.0874 101.346 52.413 102.194 52.8902C103.069 53.3674 103.891 53.606 104.686 53.606C105.482 53.606 106.41 53.2878 107.443 52.6781L107.523 52.9962C106.25 54.0566 104.58 54.5869 102.512 54.5869C101.134 54.5869 99.9674 54.1892 98.96 53.3674C97.9791 52.5455 96.2559 50.3186 93.7904 46.6601C93.7904 46.6336 93.7639 46.6336 93.7639 46.6071L91.3779 42.9221L89.2571 43.0017H87.3483V52.0683C87.3483 52.8106 87.4278 53.3409 87.6399 53.659C87.8255 53.9771 88.3027 54.1362 89.0185 54.1362V54.3483H82.921V54.1362C83.6633 54.0832 84.1405 53.9241 84.3261 53.6325C84.5116 53.3409 84.5912 52.7576 84.5912 51.8563V32.9806C84.5912 32.3709 84.5116 31.8406 84.3526 31.443C84.1935 31.0453 83.7163 30.8332 82.921 30.8332ZM87.3483 31.2574V42.3654H89.8138C91.7756 42.3654 93.2337 41.8882 94.188 40.9868C95.1424 40.059 95.5931 38.8395 95.5931 37.3549C95.5931 35.8968 95.1424 34.5182 94.2146 33.2192C93.2867 31.9202 91.643 31.2574 89.2836 31.2574H87.3483ZM130.826 30.5946H134.537V30.8332C133.265 30.8863 132.629 31.549 132.629 32.8215C132.629 33.0866 132.682 33.4578 132.735 33.935L135.227 51.9358C135.386 52.8371 135.545 53.4204 135.73 53.659C135.916 53.9241 136.314 54.0832 136.923 54.1362V54.3483H131.568V54.1362C132.257 54.1627 132.629 53.818 132.629 53.1023C132.629 52.9432 132.602 52.6251 132.523 52.1479L130.11 34.7038L121.574 54.3483H121.415L112.852 34.7303L110.439 52.2804C110.386 52.5455 110.386 52.8371 110.386 53.1818C110.386 53.818 110.731 54.1362 111.473 54.1362V54.3483H107.841V54.1362C108.371 54.1362 108.742 54.0566 108.902 53.9241C109.034 53.7915 109.167 53.5529 109.246 53.2613C109.352 52.9697 109.405 52.6516 109.458 52.2804L112.162 33.0866C111.712 32.0262 111.261 31.3634 110.837 31.1514C110.386 30.9393 109.962 30.8332 109.538 30.8332V30.5946H114.045L122.422 50.0005L130.826 30.5946ZM151.425 30.197C154.765 30.197 157.496 31.2309 159.617 33.2457C161.737 35.287 162.771 37.8321 162.771 40.8543C162.771 44.7779 161.552 48.0652 159.113 50.7428C156.647 53.4204 153.387 54.7459 149.33 54.7459C146.043 54.7459 143.339 53.6855 141.245 51.5116C139.15 49.3642 138.09 46.7662 138.09 43.744C138.09 41.7291 138.594 39.6348 139.627 37.4874C140.635 35.3401 142.146 33.5904 144.187 32.2383C146.229 30.8863 148.641 30.197 151.425 30.197ZM151.319 53.4999C152.962 53.4999 154.58 53.0492 156.17 52.1744C157.761 51.2995 159.007 50.08 159.935 48.5424C160.836 47.0048 161.287 45.4141 161.287 43.797C161.287 41.4906 160.677 39.3962 159.457 37.4874C158.211 35.6052 156.621 34.1206 154.659 33.0601C152.697 31.9997 150.868 31.4695 149.224 31.4695C146.865 31.4695 144.718 32.3443 142.809 34.1206C140.873 35.8968 139.919 38.1237 139.919 40.7748C139.919 44.1416 141.086 47.1108 143.445 49.6559C145.778 52.2274 148.403 53.4999 151.319 53.4999ZM184.696 30.5946H189.256V30.8332C188.566 30.8597 188.089 30.9923 187.824 31.2839C187.559 31.549 187.426 32.1323 187.426 33.0071V54.6664L168.445 34.4652V52.0418C168.445 52.5986 168.471 53.0227 168.551 53.2878C168.657 53.5529 168.763 53.7385 168.922 53.8446C169.081 53.9241 169.479 54.0301 170.115 54.1362V54.3483H165.581V54.1362C166.403 54.1362 166.907 53.9771 167.119 53.6855C167.305 53.3939 167.411 52.7046 167.411 51.6177V35.5256C167.411 34.1206 167.225 32.9541 166.827 32.0792C166.43 31.1779 165.528 30.7537 164.097 30.8332V30.5946H168.551L186.419 49.5498V32.7685C186.419 31.8672 186.26 31.3369 185.942 31.1249C185.597 30.9393 185.199 30.8332 184.696 30.8332V30.5946ZM205.533 30.5946H209.112V30.8332C208.661 30.8597 208.29 30.9658 207.999 31.1514C207.707 31.3369 207.362 31.7081 206.991 32.2913L201.185 41.1194V51.9888C201.185 52.8637 201.291 53.4469 201.53 53.712C201.742 53.9771 202.246 54.1362 202.988 54.1362V54.3483H196.626V54.1362C197.845 54.2157 198.481 53.712 198.481 52.6781L198.428 51.9888V41.8882L192.622 32.3178C192.013 31.3104 191.323 30.8067 190.581 30.8332V30.5946H196.201V30.8332C195.671 30.8332 195.406 31.0188 195.406 31.443C195.406 31.6286 195.539 31.9467 195.804 32.3709L200.602 40.2711L205.851 32.3443C205.931 32.2383 206.037 32.0792 206.169 31.8406C206.275 31.6286 206.355 31.4695 206.355 31.3634C206.355 31.0188 206.116 30.8332 205.639 30.8332H205.533V30.5946ZM237.664 42.498H224.621V51.6442C224.621 52.4925 224.647 53.0492 224.727 53.2878C224.806 53.5264 224.966 53.7385 225.178 53.8976C225.416 54.0566 225.787 54.1362 226.344 54.1362V54.3483H220.194V54.1362C221.307 54.2157 221.864 53.659 221.864 52.4925V33.3783C221.864 32.2913 221.784 31.602 221.599 31.3104C221.44 31.0188 220.962 30.8597 220.194 30.8332V30.5946H226.344V30.8332C225.655 30.8863 225.204 30.9923 224.966 31.2044C224.727 31.443 224.621 31.8672 224.621 32.5299V41.8352H237.664V33.3252C237.664 32.3709 237.585 31.7081 237.426 31.3634C237.24 31.0188 236.763 30.8332 235.994 30.8332V30.5946H242.091V30.8332C241.614 30.8332 241.243 30.8863 241.031 30.9923C240.792 31.0983 240.633 31.2839 240.527 31.5225C240.448 31.7611 240.421 32.3709 240.421 33.3252V51.5646C240.421 52.519 240.448 53.1023 240.527 53.3409C240.633 53.5529 240.766 53.765 240.978 53.8976C241.217 54.0566 241.561 54.1362 242.091 54.1362V54.3483H235.994V54.1362C236.657 54.1362 237.107 54.0036 237.346 53.7385C237.558 53.4469 237.664 52.7311 237.664 51.5381V42.498ZM244.636 30.8332V30.5946H259.615V33.882H259.376C259.058 32.636 258.793 31.9202 258.581 31.7081C258.343 31.496 257.812 31.39 256.937 31.39H249.064V42.0738H256.381C257.097 42.0738 257.574 41.9943 257.759 41.8617C257.945 41.7291 258.051 41.5436 258.077 41.2785H258.29V43.5319H258.077C257.998 43.2137 257.892 43.0017 257.68 42.8956C257.494 42.7896 257.123 42.7366 256.566 42.7366H249.064V50.0535C249.064 51.167 249.17 51.9623 249.382 52.466C249.594 52.9432 249.912 53.2613 250.363 53.3674C250.813 53.4999 251.476 53.5529 252.404 53.5529H256.593C257.945 53.5529 258.793 53.5264 259.164 53.4204C259.536 53.3409 259.854 53.1553 260.119 52.8902C260.357 52.5986 260.569 52.0153 260.702 51.0874H260.941V54.3483H244.636V54.1362C245.193 54.0832 245.617 53.9771 245.909 53.818C246.201 53.6325 246.333 53.1818 246.333 52.4395V33.1927C246.333 32.3443 246.254 31.7081 246.095 31.3634C245.962 31.0188 245.458 30.8332 244.636 30.8332ZM268.761 30.5946V30.8332C268.47 30.8067 268.125 30.8332 267.727 30.9658C267.356 31.0983 267.118 31.2839 267.065 31.549C266.985 31.7876 266.959 32.3709 266.959 33.2987V51.5381C266.959 52.5455 266.985 53.1288 267.065 53.3674C267.144 53.5794 267.303 53.765 267.542 53.8976C267.78 54.0566 268.178 54.1362 268.761 54.1362V54.3483H262.425V54.1362C263.221 54.1362 263.724 53.9771 263.91 53.659C264.122 53.3674 264.201 52.6516 264.201 51.5646V33.5108C264.201 32.3709 264.095 31.6286 263.883 31.2839C263.671 30.9393 263.194 30.7802 262.425 30.8332V30.5946H268.761ZM294.45 54.1362V54.3483H284.853C283.024 54.3483 281.407 54.1627 280.028 53.765C278.65 53.3674 277.245 52.5986 275.813 51.4851C274.355 50.3716 273.189 48.9931 272.314 47.3229C271.439 45.6792 270.988 43.9826 270.988 42.2329C270.988 40.3506 271.545 38.4418 272.658 36.5596C273.772 34.6773 275.336 33.1397 277.404 31.9732C279.472 30.7802 281.805 30.197 284.403 30.197C286.736 30.197 289.201 30.7272 291.799 31.7611L292.78 34.5182H292.568C291.746 33.4843 290.606 32.6095 289.175 31.8937C287.743 31.2044 286.126 30.8597 284.376 30.8597C281.301 30.8597 278.782 32.0262 276.821 34.3327C274.859 36.6126 273.878 39.4757 273.878 42.8956C273.878 44.3272 274.037 45.5732 274.382 46.6867C274.7 47.8001 275.309 48.9136 276.184 49.974C277.086 51.0609 278.04 51.8563 279.047 52.36C280.055 52.8902 281.195 53.2348 282.467 53.4469C283.713 53.6325 284.721 53.712 285.463 53.6855L286.736 53.659C288.194 53.606 289.068 53.4734 289.44 53.2613C289.811 53.0492 289.97 52.4925 289.97 51.6177V48.0122C289.97 47.3229 289.837 46.8457 289.546 46.6071C289.254 46.3685 288.83 46.2625 288.3 46.289V46.0769H294.45V46.289C293.761 46.289 293.31 46.4215 293.072 46.6867C292.833 46.9783 292.727 47.482 292.727 48.2508V52.0153C292.727 52.7576 292.833 53.3143 293.019 53.6325C293.231 53.9506 293.575 54.1362 294.105 54.1362H294.45ZM313.75 42.498H300.68V51.6442C300.68 52.4925 300.733 53.0492 300.813 53.2878C300.892 53.5264 301.025 53.7385 301.263 53.8976C301.475 54.0566 301.847 54.1362 302.403 54.1362V54.3483H296.253V54.1362C297.393 54.2157 297.95 53.659 297.95 52.4925V33.3783C297.95 32.2913 297.844 31.602 297.684 31.3104C297.499 31.0188 297.022 30.8597 296.253 30.8332V30.5946H302.403V30.8332C301.741 30.8863 301.263 30.9923 301.025 31.2044C300.813 31.443 300.68 31.8672 300.68 32.5299V41.8352H313.75V33.3252C313.75 32.3709 313.644 31.7081 313.485 31.3634C313.326 31.0188 312.822 30.8332 312.053 30.8332V30.5946H318.177V30.8332C317.7 30.8332 317.329 30.8863 317.09 30.9923C316.852 31.0983 316.693 31.2839 316.613 31.5225C316.534 31.7611 316.481 32.3709 316.481 33.3252V51.5646C316.481 52.519 316.534 53.1023 316.613 53.3409C316.693 53.5529 316.852 53.765 317.064 53.8976C317.276 54.0566 317.647 54.1362 318.177 54.1362V54.3483H312.053V54.1362C312.716 54.1362 313.167 54.0036 313.405 53.7385C313.617 53.4469 313.75 52.7311 313.75 51.5381V42.498ZM339.465 29.7993L338.325 32.636H338.087C338.14 32.4769 338.166 32.2383 338.166 31.9467C338.166 31.6816 338.087 31.5225 337.901 31.4695C337.716 31.39 337.451 31.3634 337.053 31.3634H330.823V51.6972C330.823 52.5455 330.902 53.1288 331.035 53.4204C331.168 53.7385 331.353 53.9241 331.592 54.0036C331.804 54.0832 332.201 54.1362 332.705 54.1362V54.3483H326.263V54.1362C327.085 54.0832 327.589 53.9241 327.774 53.659C327.986 53.3939 328.092 52.8637 328.092 52.0418V31.3634H322.127C321.544 31.3634 321.146 31.39 320.961 31.4695C320.775 31.5225 320.696 31.7081 320.696 31.9997C320.696 32.1323 320.722 32.3443 320.828 32.636H320.59L319.45 29.7993H319.688C319.874 30.1705 320.086 30.4091 320.272 30.4886C320.457 30.5681 320.855 30.5946 321.491 30.5946H337.265C337.901 30.5946 338.352 30.5681 338.617 30.4886C338.882 30.4091 339.094 30.1705 339.227 29.7993H339.465ZM352.111 30.8597L353.224 33.8289L353.039 33.882C353.039 33.8555 352.747 33.5373 352.138 32.9276C351.554 32.3178 350.865 31.8406 350.096 31.496C349.327 31.1514 348.479 30.9923 347.498 30.9923C345.881 30.9923 344.608 31.4695 343.654 32.3974C342.7 33.3252 342.223 34.4387 342.223 35.7377C342.223 36.6126 342.461 37.3549 342.885 38.0176C343.309 38.6539 344.264 39.2636 345.669 39.8204C348.108 40.6422 349.778 41.252 350.679 41.6761C351.581 42.1003 352.429 42.7896 353.277 43.7705C354.099 44.7779 354.523 46.0504 354.523 47.588C354.523 48.2508 354.444 48.8605 354.311 49.4438C354.152 50.027 353.914 50.6102 353.569 51.1405C353.251 51.6972 352.827 52.2009 352.376 52.6251C351.899 53.0757 351.422 53.4204 350.945 53.659C350.467 53.8976 349.699 54.0566 348.665 54.1892C347.604 54.2952 346.915 54.3483 346.597 54.3483H340.261V47.4555H340.473C340.499 49.7354 341.03 51.326 342.09 52.2274C343.15 53.1023 344.794 53.5529 347.021 53.5529C349.036 53.5529 350.573 53.0757 351.634 52.1214C352.668 51.167 353.198 50.027 353.198 48.675C353.198 47.8796 353.012 47.1638 352.641 46.6071C352.297 46.0239 351.766 45.5202 351.13 45.096C350.467 44.6453 349.221 44.1151 347.392 43.4789C345.589 42.8426 344.317 42.2859 343.575 41.8087C342.832 41.3315 342.223 40.6157 341.719 39.6613C341.215 38.6804 340.977 37.6995 340.977 36.7186C340.977 34.8629 341.613 33.3252 342.859 32.0792C344.131 30.8332 345.801 30.197 347.843 30.197C348.638 30.197 349.513 30.303 350.441 30.4886C351.369 30.6477 351.872 30.7802 351.978 30.8332C352.031 30.8597 352.058 30.8597 352.111 30.8597Z" fill="white"/>
<path d="M115.264 60.1542H117.809V60.3132C116.961 60.3397 116.51 60.8169 116.51 61.6918C116.51 61.8774 116.537 62.116 116.59 62.4606L118.313 74.8941C118.419 75.5304 118.525 75.9281 118.658 76.0871C118.79 76.2727 119.055 76.3787 119.453 76.4052V76.5643H115.768V76.4052C116.245 76.4318 116.484 76.1932 116.484 75.6895C116.484 75.5834 116.484 75.3713 116.431 75.0267L114.761 62.9643L108.875 76.5643H108.743L102.831 62.9908L101.161 75.1327C101.134 75.3183 101.134 75.5304 101.134 75.769C101.134 76.1932 101.373 76.4052 101.876 76.4052V76.5643H99.3579V76.4052C99.7556 76.4052 99.9942 76.3522 100.1 76.2727C100.206 76.1667 100.286 76.0076 100.339 75.822C100.418 75.6099 100.445 75.3713 100.471 75.1327L102.354 61.8509C102.035 61.1086 101.744 60.6844 101.426 60.5253C101.134 60.3663 100.843 60.3132 100.551 60.3132V60.1542H103.653L109.432 73.5686L115.264 60.1542ZM135.731 76.5643H132.629V74.0458C131.038 75.7955 129.156 76.6704 126.956 76.6704C125.338 76.6704 124.039 76.2197 123.085 75.3183C122.131 74.3904 121.653 73.1179 121.653 71.5273V61.6653C121.653 61.082 121.574 60.7109 121.441 60.5518C121.309 60.3928 120.964 60.3132 120.434 60.3132V60.1542H124.808V60.3132C124.358 60.3132 124.013 60.3663 123.827 60.5253C123.642 60.6579 123.562 61.0025 123.562 61.5592V70.5729C123.562 72.4551 123.986 73.8072 124.888 74.6025C125.763 75.3978 126.77 75.822 127.883 75.822C129.66 75.822 131.25 75.0267 132.629 73.436V62.3015C132.629 61.3472 132.549 60.7639 132.364 60.5783C132.205 60.3928 131.94 60.3132 131.568 60.3132H131.409V60.1542H135.731V60.3132C135.2 60.3397 134.856 60.4193 134.723 60.5783C134.591 60.7109 134.511 61.0025 134.511 61.4267V74.8146C134.511 75.3183 134.538 75.6895 134.591 75.8485C134.644 76.0076 134.75 76.1401 134.909 76.2462C135.068 76.3522 135.333 76.4052 135.731 76.4052V76.5643ZM145.434 60.3132L146.202 62.3811L146.07 62.4076C146.07 62.4076 145.858 62.169 145.46 61.7448C145.036 61.3206 144.585 61.0025 144.055 60.7639C143.525 60.5253 142.915 60.4193 142.252 60.4193C141.139 60.4193 140.237 60.7374 139.575 61.3737C138.938 62.0099 138.594 62.8052 138.594 63.7066C138.594 64.2898 138.753 64.8201 139.071 65.2707C139.363 65.7214 139.999 66.1456 140.98 66.5167C142.676 67.0735 143.816 67.4976 144.453 67.7893C145.062 68.0809 145.672 68.5581 146.229 69.2473C146.812 69.9366 147.104 70.8115 147.104 71.8984C147.104 72.3491 147.051 72.7733 146.945 73.1709C146.839 73.5686 146.68 73.9663 146.441 74.3374C146.229 74.7351 145.937 75.0797 145.619 75.3713C145.301 75.6895 144.956 75.9281 144.638 76.0871C144.294 76.2462 143.763 76.3522 143.048 76.4583C142.332 76.5378 141.855 76.5643 141.616 76.5643H137.242V71.7924H137.401C137.401 73.383 137.772 74.47 138.514 75.0797C139.23 75.716 140.37 76.0076 141.908 76.0076C143.313 76.0076 144.373 75.6895 145.089 75.0267C145.831 74.3639 146.202 73.5686 146.202 72.6407C146.202 72.084 146.07 71.6068 145.805 71.2091C145.566 70.8115 145.195 70.4668 144.744 70.1487C144.294 69.8571 143.445 69.4859 142.173 69.0618C140.927 68.6111 140.052 68.2134 139.522 67.8953C139.018 67.5772 138.594 67.0735 138.249 66.4107C137.905 65.7479 137.745 65.0587 137.745 64.3694C137.745 63.0969 138.17 62.0364 139.044 61.1616C139.919 60.2867 141.059 59.8625 142.491 59.8625C143.048 59.8625 143.631 59.9421 144.267 60.0481C144.903 60.1807 145.275 60.2602 145.354 60.3132C145.381 60.3132 145.407 60.3132 145.434 60.3132ZM152.777 60.1542V60.3132C152.565 60.2867 152.326 60.3132 152.061 60.3928C151.796 60.4988 151.637 60.6314 151.584 60.7904C151.531 60.976 151.505 61.3737 151.505 62.0099V74.629C151.505 75.3183 151.531 75.716 151.584 75.875C151.637 76.0341 151.77 76.1667 151.929 76.2462C152.088 76.3522 152.353 76.4052 152.777 76.4052V76.5643H148.376V76.4052C148.933 76.4052 149.278 76.2992 149.41 76.0871C149.543 75.875 149.622 75.3978 149.622 74.6555V62.1425C149.622 61.3737 149.543 60.87 149.384 60.6314C149.251 60.3663 148.906 60.2602 148.376 60.3132V60.1542H152.777ZM168.577 60.9495L169.187 62.6992H169.028C167.437 61.1086 165.582 60.3132 163.408 60.3132C161.181 60.3132 159.378 61.0025 158 62.328C156.595 63.6536 155.905 65.2707 155.905 67.153C155.905 68.3195 156.223 69.6715 156.833 71.1826C157.443 72.6937 158.424 73.9397 159.749 74.9206C161.075 75.9015 162.666 76.3787 164.548 76.3787C165.767 76.3787 166.987 76.1932 168.153 75.7955C169.346 75.3978 170.221 74.8676 170.804 74.2049L170.963 74.2314L169.823 76.0076C167.968 76.4052 166.748 76.6438 166.218 76.7234C165.661 76.8029 164.919 76.8294 163.991 76.8294C160.545 76.8294 158.079 76.0341 156.595 74.4435C155.11 72.8528 154.368 70.9175 154.368 68.6906C154.368 67.206 154.739 65.7479 155.508 64.3694C156.276 62.9643 157.363 61.8774 158.795 61.082C160.227 60.2602 161.87 59.8625 163.726 59.8625C164.654 59.8625 165.449 59.9421 166.112 60.1277C166.801 60.2867 167.358 60.4723 167.809 60.6579L168.524 60.923C168.551 60.923 168.577 60.9495 168.577 60.9495ZM187.374 69.0088H182.549L180.083 75.2123C179.898 75.6629 179.818 75.9281 179.818 76.0341C179.818 76.2992 180.004 76.4052 180.375 76.4052V76.5643H177.909V76.4052C178.254 76.4052 178.519 76.3257 178.731 76.1667C178.97 76.0076 179.208 75.5834 179.473 74.9206L185.438 59.8891H185.756L191.589 74.4169C191.589 74.4965 191.721 74.8411 192.039 75.4774C192.331 76.0871 192.782 76.4052 193.418 76.4052V76.5643H189.574V76.4052C189.919 76.4052 190.104 76.2727 190.104 76.0076C190.104 75.822 189.998 75.5039 189.839 75.1062C189.813 75.0797 189.786 75.0267 189.76 74.9472C189.733 74.8941 189.733 74.8411 189.733 74.8411L187.374 69.0088ZM182.708 68.5581H187.161L184.935 62.9378L182.708 68.5581ZM207.681 60.9495L208.291 62.6992H208.131C206.541 61.1086 204.685 60.3132 202.511 60.3132C200.284 60.3132 198.482 61.0025 197.103 62.328C195.724 63.6536 195.035 65.2707 195.035 67.153C195.035 68.3195 195.327 69.6715 195.937 71.1826C196.546 72.6937 197.527 73.9397 198.853 74.9206C200.178 75.9015 201.769 76.3787 203.651 76.3787C204.871 76.3787 206.09 76.1932 207.283 75.7955C208.45 75.3978 209.351 74.8676 209.908 74.2049L210.067 74.2314L208.927 76.0076C207.071 76.4052 205.852 76.6438 205.321 76.7234C204.765 76.8029 204.022 76.8294 203.094 76.8294C199.648 76.8294 197.183 76.0341 195.698 74.4435C194.213 72.8528 193.471 70.9175 193.471 68.6906C193.471 67.206 193.842 65.7479 194.611 64.3694C195.38 62.9643 196.467 61.8774 197.898 61.082C199.356 60.2602 200.974 59.8625 202.829 59.8625C203.757 59.8625 204.553 59.9421 205.215 60.1277C205.905 60.2867 206.461 60.4723 206.912 60.6579L207.628 60.923C207.654 60.923 207.681 60.9495 207.681 60.9495ZM219.849 69.0088H214.998L212.532 75.2123C212.347 75.6629 212.267 75.9281 212.267 76.0341C212.267 76.2992 212.453 76.4052 212.824 76.4052V76.5643H210.385V76.4052C210.703 76.4052 210.968 76.3257 211.207 76.1667C211.419 76.0076 211.657 75.5834 211.949 74.9206L217.914 59.8891H218.206L224.038 74.4169C224.038 74.4965 224.197 74.8411 224.489 75.4774C224.78 76.0871 225.257 76.4052 225.867 76.4052V76.5643H222.023V76.4052C222.368 76.4052 222.553 76.2727 222.553 76.0076C222.553 75.822 222.474 75.5039 222.288 75.1062C222.262 75.0797 222.235 75.0267 222.209 74.9472C222.209 74.8941 222.182 74.8411 222.182 74.8411L219.849 69.0088ZM215.183 68.5581H219.637L217.41 62.9378L215.183 68.5581ZM226.848 60.3132V60.1542H234.377C236.286 60.1542 237.797 60.2867 238.91 60.6048C240.024 60.8965 241.005 61.3737 241.827 62.0099C242.648 62.6727 243.311 63.4945 243.788 64.5019C244.266 65.5093 244.504 66.6228 244.504 67.8688C244.504 69.0618 244.266 70.2548 243.762 71.3947C243.258 72.5612 242.569 73.5421 241.721 74.3904C240.846 75.2123 239.944 75.7955 238.99 76.1136C238.036 76.4052 236.551 76.5643 234.563 76.5643H226.848V76.4052H227.034C227.431 76.4052 227.696 76.2462 227.829 75.9281C227.961 75.6099 228.015 75.0267 228.015 74.1783V62.1955C228.015 61.3206 227.935 60.7639 227.776 60.5783C227.643 60.3928 227.325 60.3132 226.848 60.3132ZM232.415 60.4988H229.897V73.224C229.897 74.0193 230.056 74.6025 230.321 75.0002C230.586 75.3978 231.063 75.6629 231.7 75.8485C232.362 76.0341 233.237 76.1136 234.351 76.1136C237.426 76.1136 239.573 75.3183 240.819 73.7542C242.065 72.1635 242.701 70.4403 242.701 68.5846C242.701 66.3842 241.853 64.5019 240.13 62.8848C238.433 61.2941 235.862 60.4988 232.415 60.4988ZM246.121 60.3132V60.1542H256.487V62.4076H256.328C256.089 61.5592 255.904 61.0555 255.745 60.923C255.612 60.7639 255.215 60.6844 254.631 60.6844H249.197V68.0809H254.234C254.737 68.0809 255.055 68.0279 255.188 67.9218C255.321 67.8423 255.4 67.7097 255.4 67.5242H255.559V69.0883H255.4C255.374 68.8497 255.268 68.7171 255.135 68.6376C255.002 68.5581 254.764 68.5316 254.366 68.5316H249.197V73.5951C249.197 74.3639 249.276 74.9206 249.409 75.2653C249.541 75.5834 249.78 75.7955 250.071 75.9015C250.39 75.9811 250.867 76.0076 251.477 76.0076H254.393C255.321 76.0076 255.904 75.9811 256.169 75.9281C256.434 75.875 256.646 75.7425 256.832 75.5569C256.991 75.3448 257.15 74.9472 257.229 74.3109H257.388V76.5643H246.121V76.4052C246.519 76.3787 246.811 76.3257 246.996 76.1932C247.208 76.0606 247.288 75.7425 247.288 75.2388V61.9569C247.288 61.3472 247.235 60.923 247.129 60.6844C247.023 60.4193 246.705 60.3132 246.121 60.3132ZM273.586 60.1542H276.158V60.3132C275.283 60.3397 274.832 60.8169 274.832 61.6918C274.832 61.8774 274.859 62.116 274.912 62.4606L276.635 74.8941C276.741 75.5304 276.847 75.9281 276.98 76.0871C277.112 76.2727 277.378 76.3787 277.802 76.4052V76.5643H274.09V76.4052C274.567 76.4318 274.832 76.1932 274.832 75.6895C274.832 75.5834 274.806 75.3713 274.753 75.0267L273.083 62.9643L267.197 76.5643H267.091L261.153 62.9908L259.483 75.1327C259.456 75.3183 259.456 75.5304 259.456 75.769C259.456 76.1932 259.695 76.4052 260.199 76.4052V76.5643H257.68V76.4052C258.078 76.4052 258.316 76.3522 258.422 76.2727C258.528 76.1667 258.608 76.0076 258.661 75.822C258.74 75.6099 258.767 75.3713 258.793 75.1327L260.676 61.8509C260.384 61.1086 260.066 60.6844 259.774 60.5253C259.456 60.3663 259.165 60.3132 258.873 60.3132V60.1542H261.975L267.781 73.5686L273.586 60.1542ZM288.353 60.1542H290.818V60.3132C290.5 60.3132 290.235 60.3928 290.05 60.5253C289.838 60.6579 289.599 60.923 289.36 61.3206L285.331 67.4181V74.9206C285.331 75.5304 285.41 75.9281 285.569 76.1136C285.728 76.3257 286.073 76.4052 286.577 76.4052V76.5643H282.176V76.4052C283.024 76.4583 283.448 76.1136 283.448 75.3978L283.422 74.9472V67.9483L279.419 61.3472C278.995 60.6314 278.517 60.2867 277.987 60.3132V60.1542H281.884V60.3132C281.513 60.3132 281.328 60.4458 281.328 60.7109C281.328 60.87 281.434 61.082 281.619 61.3737L284.933 66.8349L288.565 61.3472C288.618 61.2941 288.698 61.1616 288.777 61.0025C288.857 60.8434 288.91 60.7374 288.91 60.6844C288.91 60.4193 288.724 60.3132 288.406 60.3132H288.353V60.1542Z" fill="white"/>
<path fill-rule="evenodd" clip-rule="evenodd" d="M332.81 68.346L315.259 69.4595L297.736 70.5995V68.346V66.1191L315.259 67.2326L332.81 68.346Z" fill="white"/>
<path fill-rule="evenodd" clip-rule="evenodd" d="M57.3643 68.346L74.9144 69.4595L92.438 70.5995V68.346V66.1191L74.9144 67.2326L57.3643 68.346Z" fill="white"/>
<path fill-rule="evenodd" clip-rule="evenodd" d="M80.5077 89.2365C81.7272 91.3574 81.0114 94.0615 78.8641 95.3075C76.7432 96.527 74.0391 95.8112 72.8196 93.6638C71.6001 91.543 72.3159 88.8389 74.4368 87.6194C76.5576 86.3734 79.2882 87.1157 80.5077 89.2365ZM317.567 7.21232C318.786 9.33318 318.07 12.0638 315.95 13.2833C313.829 14.5028 311.098 13.787 309.879 11.6661C308.659 9.54527 309.375 6.81466 311.496 5.59517C313.643 4.37568 316.347 5.09147 317.567 7.21232ZM293.866 7.21232C295.086 9.33318 294.37 12.0638 292.249 13.2833C290.128 14.5028 287.397 13.787 286.178 11.6661C284.958 9.54527 285.674 6.81466 287.795 5.59517C289.916 4.37568 292.647 5.09147 293.866 7.21232ZM270.166 7.21232C271.385 9.33318 270.669 12.0638 268.522 13.2833C266.401 14.5028 263.697 13.787 262.477 11.6661C261.231 9.54527 261.974 6.81466 264.095 5.59517C266.215 4.37568 268.92 5.09147 270.166 7.21232ZM246.438 7.21232C247.684 9.33318 246.942 12.0638 244.821 13.2833C242.7 14.5028 239.996 13.787 238.75 11.6661C237.531 9.54527 238.273 6.81466 240.394 5.59517C242.515 4.37568 245.219 5.09147 246.438 7.21232ZM222.738 7.21232C223.957 9.33318 223.242 12.0638 221.121 13.2833C219 14.5028 216.269 13.787 215.05 11.6661C213.83 9.54527 214.546 6.81466 216.667 5.59517C218.814 4.37568 221.518 5.09147 222.738 7.21232ZM199.037 7.21232C200.257 9.33318 199.541 12.0638 197.42 13.2833C195.299 14.5028 192.569 13.787 191.349 11.6661C190.13 9.54527 190.845 6.81466 192.966 5.59517C195.087 4.37568 197.818 5.09147 199.037 7.21232ZM175.337 7.21232C176.556 9.33318 175.84 12.0638 173.693 13.2833C171.572 14.5028 168.868 13.787 167.648 11.6661C166.402 9.54527 167.145 6.81466 169.266 5.59517C171.387 4.37568 174.091 5.09147 175.337 7.21232ZM151.636 7.21232C152.856 9.33318 152.113 12.0638 149.992 13.2833C147.871 14.5028 145.167 13.787 143.921 11.6661C142.702 9.54527 143.444 6.81466 145.565 5.59517C147.686 4.37568 150.39 5.09147 151.636 7.21232ZM127.909 7.21232C129.155 9.33318 128.413 12.0638 126.292 13.2833C124.171 14.5028 121.44 13.787 120.221 11.6661C119.001 9.54527 119.717 6.81466 121.864 5.59517C123.985 4.37568 126.689 5.09147 127.909 7.21232ZM104.208 7.21232C105.428 9.33318 104.712 12.0638 102.591 13.2833C100.47 14.5028 97.7397 13.787 96.5202 11.6661C95.3007 9.54527 96.0165 6.81466 98.1374 5.59517C100.258 4.37568 102.989 5.09147 104.208 7.21232ZM80.5077 7.21232C81.7272 9.33318 81.0114 12.0638 78.8641 13.2833C76.7432 14.5028 74.0391 13.787 72.8196 11.6661C71.6001 9.54527 72.3159 6.81466 74.4368 5.59517C76.5576 4.37568 79.2882 5.09147 80.5077 7.21232ZM336.124 9.17412C336.124 11.6396 338.113 13.6279 340.578 13.6279C343.017 13.6279 345.005 11.6396 345.005 9.17412C345.005 6.73513 343.017 4.74683 340.578 4.74683C338.113 4.74683 336.124 6.73513 336.124 9.17412ZM373.982 74.7352C376.102 75.9547 378.807 75.2389 380.053 73.118C381.272 70.9706 380.53 68.2665 378.409 67.0471C376.288 65.8276 373.584 66.5433 372.364 68.6642C371.118 70.7851 371.861 73.5157 373.982 74.7352ZM357.306 88.1761C358.526 90.297 361.23 91.0128 363.351 89.7933C365.472 88.5738 366.214 85.8432 364.994 83.7223C363.748 81.6014 361.044 80.8857 358.923 82.1051C356.803 83.3246 356.06 86.0287 357.306 88.1761ZM381.696 45.8915C379.257 45.8915 377.269 47.8798 377.269 50.3188C377.269 52.7578 379.257 54.7461 381.696 54.7461C384.162 54.7461 386.15 52.7578 386.15 50.3188C386.15 47.8798 384.162 45.8915 381.696 45.8915ZM373.982 25.9024C371.861 27.1219 371.118 29.8525 372.364 31.9734C373.584 34.0942 376.288 34.81 378.409 33.5905C380.53 32.371 381.272 29.6669 380.053 27.5195C378.807 25.3987 376.102 24.6829 373.982 25.9024ZM357.306 12.4614C356.06 14.6088 356.803 17.3129 358.923 18.5324C361.044 19.7519 363.748 19.0361 364.994 16.9153C366.214 14.7944 365.472 12.0638 363.351 10.8443C361.23 9.6248 358.526 10.3406 357.306 12.4614ZM336.124 91.4634C336.124 93.9024 338.113 95.8907 340.578 95.8907C343.017 95.8907 345.005 93.9024 345.005 91.4634C345.005 88.9979 343.017 87.0096 340.578 87.0096C338.113 87.0096 336.124 88.9979 336.124 91.4634ZM54.2621 9.17412C54.2621 11.6396 52.2738 13.6279 49.8083 13.6279C47.3693 13.6279 45.381 11.6396 45.381 9.17412C45.381 6.73513 47.3693 4.74683 49.8083 4.74683C52.2738 4.74683 54.2621 6.73513 54.2621 9.17412ZM16.4048 74.7352C14.2839 75.9547 11.5798 75.2389 10.3338 73.118C9.1143 70.9706 9.8566 68.2665 11.9775 67.0471C14.0983 65.8276 16.8024 66.5433 18.0219 68.6642C19.2679 70.7851 18.5256 73.5157 16.4048 74.7352ZM33.08 88.1761C31.8605 90.297 29.1564 91.0128 27.0356 89.7933C24.8882 88.5738 24.1724 85.8432 25.3919 83.7223C26.6379 81.6014 29.342 80.8857 31.4629 82.1051C33.5837 83.3246 34.326 86.0287 33.08 88.1761ZM8.66362 45.8915C11.1291 45.8915 13.1174 47.8798 13.1174 50.3188C13.1174 52.7578 11.1291 54.7461 8.66362 54.7461C6.22463 54.7461 4.23633 52.7578 4.23633 50.3188C4.23633 47.8798 6.22463 45.8915 8.66362 45.8915ZM16.4048 25.9024C18.5256 27.1219 19.2679 29.8525 18.0219 31.9734C16.8024 34.0942 14.0983 34.81 11.9775 33.5905C9.8566 32.371 9.1143 29.6669 10.3338 27.5195C11.5798 25.3987 14.2839 24.6829 16.4048 25.9024ZM33.08 12.4614C34.326 14.6088 33.5837 17.3129 31.4629 18.5324C29.342 19.7519 26.6379 19.0361 25.3919 16.9153C24.1724 14.7944 24.8882 12.0638 27.0356 10.8443C29.1564 9.6248 31.8605 10.3406 33.08 12.4614ZM54.2621 91.4634C54.2621 93.9024 52.2738 95.8907 49.8083 95.8907C47.3693 95.8907 45.381 93.9024 45.381 91.4634C45.381 88.9979 47.3693 87.0096 49.8083 87.0096C52.2738 87.0096 54.2621 88.9979 54.2621 91.4634ZM317.567 89.2365C318.786 91.3574 318.07 94.0615 315.95 95.3075C313.829 96.527 311.098 95.8112 309.879 93.6638C308.659 91.543 309.375 88.8389 311.496 87.6194C313.643 86.3734 316.347 87.1157 317.567 89.2365ZM293.866 89.2365C295.086 91.3574 294.37 94.0615 292.249 95.3075C290.128 96.527 287.397 95.8112 286.178 93.6638C284.958 91.543 285.674 88.8389 287.795 87.6194C289.916 86.3734 292.647 87.1157 293.866 89.2365ZM270.166 89.2365C271.385 91.3574 270.669 94.0615 268.522 95.3075C266.401 96.527 263.697 95.8112 262.477 93.6638C261.231 91.543 261.974 88.8389 264.095 87.6194C266.215 86.3734 268.92 87.1157 270.166 89.2365ZM246.438 89.2365C247.684 91.3574 246.942 94.0615 244.821 95.3075C242.7 96.527 239.996 95.8112 238.75 93.6638C237.531 91.543 238.273 88.8389 240.394 87.6194C242.515 86.3734 245.219 87.1157 246.438 89.2365ZM222.738 89.2365C223.957 91.3574 223.242 94.0615 221.121 95.3075C219 96.527 216.269 95.8112 215.05 93.6638C213.83 91.543 214.546 88.8389 216.667 87.6194C218.814 86.3734 221.518 87.1157 222.738 89.2365ZM199.037 89.2365C200.257 91.3574 199.541 94.0615 197.42 95.3075C195.299 96.527 192.569 95.8112 191.349 93.6638C190.13 91.543 190.845 88.8389 192.966 87.6194C195.087 86.3734 197.818 87.1157 199.037 89.2365ZM175.337 89.2365C176.556 91.3574 175.84 94.0615 173.693 95.3075C171.572 96.527 168.868 95.8112 167.648 93.6638C166.402 91.543 167.145 88.8389 169.266 87.6194C171.387 86.3734 174.091 87.1157 175.337 89.2365ZM151.636 89.2365C152.856 91.3574 152.113 94.0615 149.992 95.3075C147.871 96.527 145.167 95.8112 143.921 93.6638C142.702 91.543 143.444 88.8389 145.565 87.6194C147.686 86.3734 150.39 87.1157 151.636 89.2365ZM127.909 89.2365C129.155 91.3574 128.413 94.0615 126.292 95.3075C124.171 96.527 121.44 95.8112 120.221 93.6638C119.001 91.543 119.717 88.8389 121.864 87.6194C123.985 86.3734 126.689 87.1157 127.909 89.2365ZM104.208 89.2365C105.428 91.3574 104.712 94.0615 102.591 95.3075C100.47 96.527 97.7397 95.8112 96.5202 93.6638C95.3007 91.543 96.0165 88.8389 98.1374 87.6194C100.258 86.3734 102.989 87.1157 104.208 89.2365Z" fill="#ACA4FC"/>
</svg>
