<svg width="84" height="84" viewBox="0 0 84 84" fill="none" xmlns="http://www.w3.org/2000/svg">
<circle cx="42" cy="42" r="42" fill="url(#paint0_linear_316_153)"/>
<path d="M33.7603 43.1978L30.3977 42.2149C30.2912 42.1835 30.1872 42.144 30.0868 42.0967C29.9841 42.1449 29.8802 42.1843 29.7755 42.2149L26.4131 43.1977L25.6633 50.3174H34.5101L33.7603 43.1978ZM43.2134 38.772C43.2225 38.759 43.2328 38.7475 43.2416 38.7342L43.8936 37.7169C44.0668 37.4375 44.1231 37.1011 44.0504 36.7805C43.9777 36.4598 43.7818 36.1806 43.505 36.0032C43.2282 35.8258 42.8927 35.7643 42.571 35.8321C42.2493 35.8999 41.9672 36.0915 41.7855 36.3656L41.1334 37.3828C41.1068 37.4243 41.0836 37.4668 41.0625 37.5102L38.1701 37.2892L41.5869 39.157C41.6026 39.1655 41.6187 39.1714 41.6345 39.1792C41.6571 39.1902 41.6793 39.2012 41.7021 39.2109C41.7331 39.2238 41.7643 39.2348 41.7956 39.2453C41.8173 39.2523 41.8388 39.2602 41.8607 39.2661C41.897 39.276 41.9334 39.2828 41.9699 39.2894C41.9874 39.2926 42.0046 39.2968 42.0222 39.2991C42.0769 39.3065 42.1317 39.3107 42.1863 39.3107C42.1951 39.3107 42.2039 39.3091 42.2126 39.309C42.2571 39.308 42.3012 39.3059 42.3452 39.3002C42.3651 39.2977 42.3846 39.2927 42.4043 39.2893C42.4372 39.2833 42.4701 39.278 42.5022 39.2695C42.523 39.2641 42.5432 39.2566 42.5638 39.2501C42.5942 39.2404 42.6245 39.2312 42.6541 39.2193C42.6748 39.211 42.6945 39.201 42.7147 39.1916C42.743 39.1785 42.7712 39.1653 42.7986 39.15C42.8187 39.1387 42.8378 39.126 42.8574 39.1137C42.8832 39.0972 42.9087 39.0808 42.9335 39.0625C42.9529 39.0481 42.9713 39.0325 42.99 39.0168C43.0128 38.9977 43.0353 38.9783 43.0569 38.9573C43.075 38.9396 43.0926 38.9212 43.1095 38.9024C43.1296 38.8805 43.149 38.858 43.1677 38.8343C43.1837 38.814 43.1988 38.7933 43.2134 38.772ZM34.4905 28.1102C34.357 27.8076 34.1088 27.5703 33.8005 27.4504C33.1189 28.0425 32.2303 28.4024 31.2588 28.4024C30.3556 28.4032 29.4807 28.0876 28.7861 27.5104H27.0634C27.0202 27.5104 26.9773 27.5129 26.9354 27.5173C26.8269 27.5196 26.7191 27.536 26.6149 27.5661L21.8025 28.9801C21.5737 29.0474 21.3688 29.1787 21.2121 29.3585C21.0553 29.5383 20.9532 29.7591 20.9176 29.995C20.8821 30.2309 20.9147 30.472 21.0116 30.69C21.1085 30.908 21.2656 31.0938 21.4645 31.2255L28.4027 35.8161C28.5398 35.9069 28.6934 35.9698 28.8548 36.0012C29.0163 36.0326 29.1823 36.0319 29.3434 35.9991C29.5046 35.9663 29.6577 35.902 29.7939 35.81C29.9302 35.7179 30.047 35.5999 30.1376 35.4627C30.3208 35.1858 30.3865 34.8474 30.3203 34.5221C30.254 34.1967 30.0612 33.911 29.7843 33.7278L25.0924 30.6233L27.3207 29.9687C27.4887 29.9192 27.6444 29.835 27.7776 29.7214L28.0033 30.0026C27.8332 30.1456 27.6353 30.2517 27.4221 30.3141L27.3931 30.3225C27.4737 30.3957 27.5524 30.4685 27.6287 30.5394C28.1853 31.0559 28.6251 31.4642 29.2171 31.4172H29.2174C29.3287 31.4075 29.4385 31.3858 29.5451 31.3526C30.2453 31.1401 30.9854 30.936 31.6544 30.8831C32.6125 30.807 33.4179 31.038 34.3467 31.6556C35.3002 32.2897 35.5714 33.5526 35.614 34.6084L39.2068 35.0024L37.0051 33.799L34.4905 28.1102Z" fill="white"/>
<path d="M31.2587 28.0424C33.2034 28.0424 34.7799 26.4659 34.7799 24.5212C34.7799 22.5765 33.2034 21 31.2587 21C29.3139 21 27.7374 22.5765 27.7374 24.5212C27.7374 26.4659 29.3139 28.0424 31.2587 28.0424Z" fill="white"/>
<path d="M36.7471 52.0912C36.8128 52.0912 36.8792 52.0878 36.9459 52.0807C37.9775 51.9723 38.7256 51.0478 38.6169 50.0165L37.6964 41.2742C37.6574 40.9037 37.5091 40.5533 37.2704 40.2673C37.0316 39.9814 36.7132 39.773 36.3557 39.6685L34.4491 39.1111C34.2149 39.3791 33.9337 39.6009 33.5943 39.7449C33.0457 39.9776 32.5739 40.1031 32.1089 40.1399C31.0853 40.2209 30.163 39.8571 28.8193 39.1571C28.576 39.0303 28.3461 38.9774 28.1167 38.9957C27.6966 39.0289 27.2747 39.2951 26.7859 39.6032C26.1232 40.0214 25.2983 40.5416 24.1669 40.6313C23.8244 40.6584 23.4658 40.6447 23.1012 40.5911C22.9751 40.5723 22.8496 40.5492 22.7251 40.5217C22.5897 40.752 22.5051 41.0085 22.4769 41.2742L21.5564 50.0165C21.4478 51.0478 22.1958 51.9723 23.2272 52.0807C23.294 52.0879 23.3603 52.0912 23.4261 52.0912C24.3749 52.0912 25.1898 51.3745 25.2914 50.4098L26.0801 42.9201L29.6744 41.8693C29.8184 41.8267 29.9568 41.7669 30.0865 41.6912C30.2141 41.7648 30.351 41.8262 30.4984 41.8693L34.0927 42.9201L34.8815 50.4098C34.983 51.3745 35.7981 52.0912 36.7471 52.0912Z" fill="white"/>
<path d="M41.9955 35.6701L35.2604 34.9314C35.2607 34.0003 35.0926 32.5838 34.1472 31.9553C32.6775 30.9783 31.6673 31.0844 29.6496 31.6971C28.4896 32.0492 27.8838 31.2274 26.9865 30.4419L25.9367 30.7503L29.983 33.4275C30.1394 33.5315 30.2764 33.6622 30.3875 33.8137C30.5204 33.7918 30.6555 33.7867 30.7897 33.7987C31.6689 33.8804 32.3153 34.6594 32.2336 35.5385C32.1519 36.4175 31.3728 37.064 30.4938 36.9822C30.2734 36.9618 30.0597 36.8956 29.8663 36.788C29.6729 36.6803 29.5041 36.5335 29.3706 36.357C29.2793 36.3729 29.1868 36.3839 29.0923 36.3839C28.7759 36.3839 28.4687 36.2913 28.204 36.1163L24.4293 33.6186L24.1163 36.9844L23.5213 36.929L23.864 33.2444L21.2661 31.5254C21.0993 31.4151 20.9609 31.2741 20.8483 31.1161C20.2827 32.2287 20.1716 33.5798 20.0941 34.4095C19.942 36.046 19.542 39.7015 23.1537 40.2346C26.2398 40.6901 27.1154 37.8636 28.9856 38.8376C30.8557 39.8118 31.829 40.1025 33.4536 39.4132C34.4987 38.9699 34.9252 37.6085 35.0966 36.6933L40.8651 37.1338L41.4822 36.1712C41.6134 35.9678 41.7888 35.7965 41.9953 35.6703L41.9955 35.6701ZM44.4081 37.4044L45.3976 37.48L45.5299 36.0579L43.9642 35.8862C44.3702 36.2814 44.5333 36.8617 44.4081 37.4044ZM49.8833 38.0802L50.363 37.2246L50.0494 36.295L49.13 36.2496L49.1664 35.8573L49.3484 35.8742L49.3705 35.6363L48.7954 35.5826L48.7731 35.8207L48.9552 35.8376L48.9178 36.2391L48.0173 36.1947L48.0526 35.8138L48.2346 35.8307L48.2567 35.5926L47.6816 35.5391L47.6593 35.777L47.8414 35.7941L47.805 36.1842L46.9044 36.1398L46.9388 35.7701L47.1207 35.787L47.1429 35.5491L46.5676 35.4956L46.5455 35.7335L46.7274 35.7505L46.6922 36.1293L46.1544 36.1027L45.8472 36.0875L45.715 37.5096L46.0197 37.5512L46.5532 37.6243L46.518 38.003L46.336 37.9861L46.3139 38.224L46.8891 38.2777L46.9113 38.0397L46.7293 38.0228L46.7637 37.6531L47.657 37.7755L47.6207 38.1656L47.4388 38.1487L47.4166 38.3866L47.9919 38.4401L48.014 38.2023L47.8321 38.1852L47.8675 37.8043L48.7608 37.9267L48.7235 38.3282L48.5415 38.3113L48.5195 38.5492L49.0946 38.6027L49.1168 38.3649L48.9348 38.3478L48.9713 37.9555L49.8833 38.0802ZM49.0082 36.8138C49.0047 36.8507 48.9867 36.8847 48.9582 36.9083C48.9297 36.932 48.893 36.9434 48.8561 36.9401L46.8758 36.7559C46.8389 36.7524 46.8049 36.7344 46.7812 36.7059C46.7576 36.6774 46.7461 36.6407 46.7495 36.6038C46.753 36.5669 46.771 36.533 46.7995 36.5094C46.828 36.4857 46.8647 36.4743 46.9016 36.4776L48.8819 36.6617C48.9584 36.6689 49.0152 36.7373 49.008 36.8138H49.0082ZM46.697 37.1684C46.7006 37.1316 46.7186 37.0976 46.7471 37.074C46.7756 37.0504 46.8123 37.039 46.8491 37.0423L48.8293 37.2263C48.906 37.2335 48.9628 37.3019 48.9556 37.3784C48.9521 37.4153 48.9341 37.4493 48.9056 37.473C48.8771 37.4966 48.8404 37.5081 48.8035 37.5047L46.8233 37.3205C46.7865 37.317 46.7525 37.299 46.7288 37.2705C46.7051 37.242 46.6937 37.2053 46.697 37.1684ZM38.2115 27.0523C38.0597 27.0021 37.8663 27.0221 37.6901 27.1218C37.4044 27.2833 37.2733 27.5915 37.3969 27.8101C37.5206 28.0286 37.8523 28.0749 38.1378 27.9134C38.3633 27.7857 38.492 27.5668 38.4755 27.3727V25.5759L40.5582 25.0031V26.1367C40.4064 26.0858 40.2123 26.1058 40.0355 26.2058C39.75 26.3673 39.6187 26.6755 39.7424 26.8941C39.866 27.1126 40.1978 27.1589 40.4832 26.9974C40.69 26.8803 40.8152 26.6868 40.8221 26.5057L40.8222 26.5012C40.8225 26.4927 40.8225 26.4842 40.8222 26.4758V23.8098L38.2115 24.5279V27.0523ZM38.4755 24.7291L40.5582 24.1563V24.7296L38.4755 25.3024V24.7291ZM45.9563 26.6573C45.7471 26.5858 45.5331 26.6578 45.4785 26.8181C45.4238 26.9782 45.5491 27.166 45.7585 27.2375C45.9098 27.2891 46.0635 27.2653 46.1576 27.1876L46.1577 27.1877L46.1601 27.1857C46.1645 27.1819 46.1687 27.1783 46.1729 27.1743L47.5152 25.9799L45.9839 24.987L44.7131 26.118C44.6704 26.0193 44.5735 25.9309 44.4444 25.8867C44.2351 25.8154 44.0212 25.8874 43.9666 26.0475C43.9118 26.2077 44.0372 26.3955 44.2466 26.4669C44.4118 26.5232 44.5796 26.4899 44.6701 26.3946L45.5745 25.5897L46.7959 26.3816L46.2253 26.8894C46.1829 26.7902 46.0857 26.7015 45.9563 26.6573ZM45.7122 25.467L46.0009 25.2102L47.2224 26.0021L46.9338 26.2589L45.7122 25.467ZM39.8006 28.9325L39.3195 31.4814C39.1799 31.4039 38.986 31.3877 38.7943 31.4529C38.4838 31.5587 38.2976 31.8373 38.3786 32.075C38.4596 32.3127 38.7769 32.4196 39.0876 32.3138C39.3328 32.2303 39.4998 32.039 39.5195 31.8451L39.9507 29.561L40.8457 29.9088L40.9412 29.6627L40.9352 29.6604L41.0108 29.4986L39.8006 28.9325ZM42.9191 23.7756C42.5941 23.7316 42.3032 23.8976 42.2695 24.1465C42.2357 24.3953 42.472 24.6327 42.7971 24.6768C43.0537 24.7116 43.2888 24.615 43.393 24.4504L44.7987 22.5992L45.4443 23.31L45.6396 23.1325L45.6352 23.1278L45.7753 23.0167L44.9452 21.9697L43.3764 24.0355C43.286 23.9039 43.1198 23.8026 42.9191 23.7756ZM56.8019 44.6729C57.4016 44.1135 57.7787 43.3188 57.7787 42.4341C57.7787 40.7419 56.407 39.3702 54.7149 39.3702C53.0227 39.3702 51.651 40.7419 51.651 42.4341C51.651 43.327 52.0354 44.1282 52.6448 44.6882C52.7078 44.6784 52.7715 44.6733 52.8352 44.6729H56.8019ZM43.1303 48.5691L43.5818 48.6747C43.6112 48.3639 43.7546 48.075 43.9843 47.8636L43.3124 47.7294L43.1303 48.5691ZM49.6298 51.8447C50.2647 52.3878 50.7796 52.5088 51.5787 52.4289V48.4999C51.3983 48.9135 51.2432 49.4487 51.1547 50.1384C51.1154 50.442 50.967 50.721 50.7372 50.9233C50.5074 51.1256 50.2119 51.2375 49.9057 51.2381L49.865 51.2375C49.8431 51.2369 49.6054 51.2288 49.2411 51.2056C49.3131 51.4518 49.4344 51.6776 49.6298 51.8447ZM43.1251 47.6887L42.9623 47.646L42.6329 47.5593L42.6814 47.3358L42.7888 47.359L42.8193 47.2186L42.4797 47.1449L42.4492 47.2855L42.5565 47.3088L42.5093 47.5269L41.9847 47.3891L42.0348 47.1587L42.142 47.182L42.1725 47.0415L41.8329 46.9679L41.8024 47.1083L41.9099 47.1318L41.8611 47.3565L41.3365 47.2188L41.388 46.9817L41.4953 47.0049L41.5258 46.8643L41.1862 46.7908L41.1557 46.9313L41.2631 46.9546L41.2128 47.1862L40.6773 47.0454L40.3288 47.5216L40.4487 48.0994L40.9944 48.1933L40.9441 48.4249L40.8366 48.4018L40.8063 48.5423L41.1459 48.6158L41.1764 48.4753L41.0689 48.4521L41.1203 48.2151L41.6549 48.3069L41.6061 48.5318L41.4986 48.5085L41.4682 48.649L41.8078 48.7226L41.8382 48.5822L41.7309 48.5589L41.7809 48.3285L42.3154 48.4204L42.2681 48.6387L42.1606 48.6152L42.1301 48.7559L42.4697 48.8295L42.5002 48.6891L42.3928 48.6656L42.4414 48.4421L42.7769 48.4999L42.9428 48.5284L43.1251 47.6887ZM41.108 47.8653C41.1128 47.8435 41.126 47.8245 41.1448 47.8124C41.1636 47.8004 41.1863 47.7963 41.2081 47.801L42.3772 48.0545C42.3975 48.0606 42.4147 48.0742 42.4254 48.0925C42.4362 48.1108 42.4396 48.1324 42.4351 48.1531C42.4306 48.1738 42.4185 48.1921 42.4012 48.2042C42.3838 48.2164 42.3625 48.2216 42.3415 48.2188L41.1725 47.9653C41.1507 47.9605 41.1316 47.9473 41.1195 47.9285C41.1074 47.9098 41.1033 47.8871 41.108 47.8653ZM42.5138 47.8211C42.509 47.8429 42.4958 47.8619 42.4771 47.8739C42.4583 47.886 42.4356 47.8901 42.4138 47.8855L41.2448 47.6319C41.223 47.6271 41.204 47.6139 41.1919 47.5951C41.1799 47.5764 41.1757 47.5536 41.1804 47.5318C41.1853 47.5101 41.1985 47.4911 41.2172 47.4791C41.236 47.4671 41.2587 47.463 41.2804 47.4676L42.4495 47.7211C42.4949 47.731 42.5237 47.7759 42.5138 47.8213V47.8211Z" fill="white"/>
<path d="M58.7496 54.1355C58.7537 54.1281 58.756 54.1198 58.7562 54.1114V51.3291L59.7963 51.2409C59.9159 51.2307 60.0323 51.1967 60.1386 51.1409C60.2449 51.085 60.339 51.0085 60.4152 50.9157C60.4915 50.8229 60.5484 50.7159 60.5826 50.6008C60.6168 50.4857 60.6277 50.3649 60.6145 50.2455C60.3486 47.8359 60.0464 45.1108 58.0063 45.0451C57.9577 45.0371 57.9086 45.033 57.8595 45.0327H52.8352C52.7808 45.0327 52.7275 45.0382 52.6757 45.047C51.317 45.0986 49.7387 46.3572 49.154 49.0392C47.5067 48.9256 45.9731 48.6347 45.6181 48.3499C45.504 48.148 45.3162 47.998 45.0942 47.9311C44.8721 47.8643 44.6327 47.8858 44.4261 47.9911C44.2195 48.0964 44.0615 48.2775 43.9851 48.4965C43.9088 48.7155 43.9199 48.9555 44.0162 49.1665C44.3683 49.9365 45.3876 50.3848 47.4247 50.666C48.6658 50.8373 49.8275 50.8762 49.8761 50.8778L49.9057 50.8783C50.1245 50.8781 50.3357 50.7983 50.4999 50.6537C50.6641 50.5091 50.77 50.3096 50.7978 50.0926C50.9831 48.6466 51.4712 47.7711 51.9386 47.2987V52.8478H49.0123C48.695 52.8478 48.3855 52.9467 48.1271 53.1308C47.8686 53.3149 47.674 53.575 47.5703 53.8749L45.3959 60.1611C45.1203 60.9576 45.5425 61.8265 46.3389 62.1019C46.5042 62.159 46.6723 62.1864 46.8377 62.1864C47.4701 62.1864 48.0615 61.79 48.2797 61.1588L49.6681 57.1451V56.2518C49.6681 55.6219 50.1805 55.1094 50.8106 55.1094H57.6965C57.9654 55.1094 58.2125 55.2034 58.4078 55.3594C58.6024 55.1304 58.7247 54.8487 58.759 54.55C58.7657 54.4921 58.77 54.4334 58.77 54.3737C58.7694 54.2939 58.7626 54.2142 58.7496 54.1355ZM50.1846 61.3477H51.5148V61.6998H50.1846V61.3477ZM56.9923 61.3477H58.3225V61.6998H56.9923V61.3477Z" fill="white"/>
<path d="M57.6966 55.4692H50.8106C50.3802 55.4692 50.0281 55.8214 50.0281 56.2517V61.0346H58.479V56.2517C58.479 55.8214 58.1269 55.4692 57.6966 55.4692ZM55.2265 36.2476C55.0173 36.1762 54.8034 36.2482 54.7487 36.4083C54.6941 36.5684 54.8195 36.7562 55.0287 36.8277C55.194 36.8841 55.3619 36.8507 55.4522 36.7554L56.3568 35.9505L57.5781 36.7424L57.0075 37.2503C56.9651 37.151 56.8681 37.0623 56.7385 37.018C56.5292 36.9467 56.3153 37.0186 56.2607 37.1789C56.2059 37.339 56.3314 37.5268 56.5407 37.5982C56.6921 37.6498 56.8458 37.626 56.9399 37.5484L56.9422 37.5465C56.9466 37.5428 56.951 37.539 56.9551 37.5351L58.2974 36.3407L56.766 35.3479L55.4952 36.4789C55.4525 36.3801 55.3556 36.2916 55.2265 36.2476ZM56.7831 35.5709L58.0047 36.3629L57.716 36.6197L56.4945 35.8278L56.7831 35.5709ZM62.7897 37.8847L62.3087 40.4338C62.169 40.3563 61.9751 40.34 61.7834 40.4053C61.4729 40.5111 61.2868 40.7896 61.3677 41.0272C61.4486 41.2651 61.7661 41.372 62.0766 41.2662C62.3219 41.1826 62.489 40.9914 62.5086 40.7975L62.9397 38.5134L63.8348 38.8611L63.9302 38.6149L63.9243 38.6126L64 38.4509L62.7897 37.8847ZM47.2629 44.1317C47.0819 44.4052 47.1049 44.7394 47.3143 44.878C47.5237 45.0167 47.8401 44.9071 48.0213 44.6336C48.1642 44.4176 48.1794 44.1641 48.0766 43.9985L47.0213 41.9275L47.9421 41.6556L47.8673 41.4023L47.8611 41.4042L47.8221 41.2299L46.5183 41.5217L47.696 43.8329C47.5379 43.857 47.3747 43.9628 47.2629 44.1317ZM53.0517 34.5073C53.0179 34.7561 53.2542 34.9936 53.5792 35.0375C53.836 35.0724 54.0709 34.9759 54.1752 34.8112L55.5808 32.96L56.2264 33.6708L56.4219 33.4934L56.4175 33.4887L56.5574 33.3775L55.7273 32.3306L54.1586 34.3964C54.0683 34.2647 53.9019 34.1636 53.7013 34.1366C53.3762 34.0924 53.0853 34.2585 53.0517 34.5073Z" fill="white"/>
<defs>
<linearGradient id="paint0_linear_316_153" x1="42" y1="0" x2="33.1505" y2="108.858" gradientUnits="userSpaceOnUse">
<stop stop-color="#CF60E1"/>
<stop offset="1" stop-color="#FF9AD7"/>
</linearGradient>
</defs>
</svg>
