<svg width="84" height="84" viewBox="0 0 84 84" fill="none" xmlns="http://www.w3.org/2000/svg">
<circle cx="42" cy="42" r="42" fill="url(#paint0_linear_316_155)"/>
<path fill-rule="evenodd" clip-rule="evenodd" d="M32.9977 38.9094L29.3636 36.7845L23 47.6819L26.6348 49.8007L32.9977 38.9094ZM45.0027 22.8074C44.5498 22.3557 43.9543 22.0749 43.3177 22.013C42.681 21.9511 42.0426 22.1117 41.5111 22.4677C40.9796 22.8236 40.588 23.3528 40.4028 23.965C40.2177 24.5773 40.2505 25.2348 40.4958 25.8256C40.741 26.4164 41.1834 26.9039 41.7477 27.2051C42.312 27.5063 42.9633 27.6025 43.5906 27.4775C44.2179 27.3524 44.7825 27.0137 45.1881 26.5192C45.5938 26.0246 45.8154 25.4047 45.8153 24.765C45.8157 24.4013 45.7441 24.0411 45.6047 23.7051C45.4653 23.3691 45.2609 23.064 45.0031 22.8074H45.0027ZM36.4867 34.9934V32.6578C36.4828 31.9833 36.6856 31.3239 37.0678 30.7682C37.1566 30.6398 37.2541 30.5177 37.3596 30.4026L35.0172 29.517C34.6485 29.3683 34.2366 29.3683 33.868 29.517L31.2158 30.5206C30.9064 30.6326 30.6399 30.8385 30.4535 31.1096C30.267 31.3807 30.1701 31.7033 30.1762 32.0322V34.8695C30.1754 34.8857 30.1783 34.9019 30.1847 34.9169C30.191 34.9319 30.2006 34.9453 30.2128 34.9561C30.224 34.9681 30.2375 34.9776 30.2525 34.984C30.2676 34.9904 30.2838 34.9936 30.3002 34.9933L36.4867 34.9934ZM48.7279 30.4027C48.833 30.5179 48.9303 30.6401 49.0191 30.7683C49.4013 31.3239 49.6041 31.9834 49.6002 32.6578V34.9934H55.7862C55.8025 34.9938 55.8188 34.9906 55.8338 34.9842C55.8489 34.9778 55.8624 34.9683 55.8735 34.9563C55.8857 34.9455 55.8955 34.9321 55.9019 34.9172C55.9083 34.9022 55.9114 34.8859 55.9107 34.8696V32.0324C55.9165 31.7035 55.8194 31.3811 55.633 31.1101C55.4466 30.8391 55.1803 30.633 54.8711 30.5207L52.2187 29.5168C51.8502 29.3681 51.4385 29.3681 51.07 29.5168L48.7282 30.4025L48.7279 30.4027ZM37.701 33.0419V36.121C37.7006 36.1586 37.7076 36.1959 37.7218 36.2307C37.736 36.2656 37.757 36.2972 37.7837 36.3238C37.8103 36.3503 37.842 36.3713 37.8768 36.3854C37.9117 36.3995 37.949 36.4065 37.9866 36.4059H48.1004C48.1754 36.4061 48.2476 36.3773 48.3017 36.3254C48.3553 36.2708 48.3856 36.1975 48.386 36.121V32.6578C48.3928 32.2292 48.2659 31.8092 48.0229 31.4561C47.7799 31.103 47.4329 30.8344 47.0301 30.6877L43.7916 29.461C43.3109 29.271 42.776 29.271 42.2954 29.461L39.0565 30.6877C38.6536 30.8341 38.3065 31.1027 38.0635 31.4558C37.8205 31.809 37.6938 32.2292 37.701 32.6578V33.0419ZM53.1712 24.0402C52.818 23.6875 52.3535 23.4681 51.8567 23.4193C51.3599 23.3706 50.8616 23.4955 50.4466 23.7729C50.0317 24.0503 49.7256 24.4629 49.5807 24.9405C49.4357 25.4182 49.4608 25.9313 49.6516 26.3925C49.8424 26.8537 50.1872 27.2346 50.6273 27.4701C51.0673 27.7057 51.5754 27.7815 52.0651 27.6846C52.5547 27.5876 52.9957 27.324 53.3128 26.9385C53.6299 26.553 53.8036 26.0696 53.8043 25.5704C53.805 25.2862 53.7495 25.0046 53.6408 24.742C53.5321 24.4793 53.3725 24.2408 53.1712 24.0402ZM35.97 24.0402C35.6168 23.6876 35.1524 23.4682 34.6557 23.4195C34.159 23.3708 33.6607 23.4958 33.2458 23.7732C32.8309 24.0505 32.5249 24.4631 32.38 24.9407C32.2351 25.4183 32.2602 25.9313 32.451 26.3925C32.6418 26.8536 32.9866 27.2344 33.4266 27.47C33.8666 27.7055 34.3747 27.7812 34.8642 27.6843C35.3538 27.5874 35.7947 27.3238 36.1117 26.9383C36.4288 26.5529 36.6025 26.0695 36.6032 25.5704C36.6038 25.2862 36.5482 25.0047 36.4395 24.742C36.3309 24.4794 36.1713 24.2409 35.97 24.0402ZM28.2237 49.4847L33.4314 40.5698L35.2776 41.5363C35.3626 41.5873 35.4586 41.6171 35.5576 41.623L37.91 41.7466L35.9473 43.4875C35.8818 43.5443 35.8297 43.6148 35.7945 43.694C35.7592 43.7732 35.7418 43.8592 35.7435 43.9459L35.7651 49.2924C35.7651 49.4786 35.817 49.6611 35.9151 49.8193C36.0141 49.98 36.1571 50.1089 36.327 50.191C36.9583 50.507 37.5766 50.5813 38.1813 50.4261C38.7525 50.2772 39.2871 49.9181 39.7828 49.3543C40.1706 48.9827 40.4698 48.4746 40.681 47.8365C40.8738 47.2541 40.9964 46.5479 41.0472 45.7239C41.1151 45.5404 41.2329 45.3795 41.3874 45.2593C41.4953 45.1752 41.6192 45.114 41.7517 45.0796L52.3832 55.5251C52.3943 55.5374 52.4073 55.5478 52.4216 55.5561C52.5963 55.7222 52.6988 55.9502 52.7071 56.1911C52.7154 56.432 52.6288 56.6665 52.466 56.8443C52.3032 57.022 52.0771 57.1288 51.8364 57.1416C51.5957 57.1544 51.3596 57.0723 51.1788 56.9128L45.6168 51.9319C45.5578 51.8789 45.489 51.8381 45.4142 51.8117C45.3394 51.7854 45.2602 51.774 45.181 51.7782C45.1019 51.7825 45.0243 51.8023 44.9528 51.8365C44.8813 51.8708 44.8173 51.9187 44.7643 51.9777C44.7113 52.0367 44.6705 52.1055 44.6441 52.1803C44.6178 52.2551 44.6064 52.3343 44.6107 52.4135C44.6149 52.4926 44.6347 52.5702 44.6689 52.6417C44.7032 52.7132 44.7512 52.7773 44.8101 52.8302L49.5731 57.0926C49.7529 57.2578 49.8611 57.4867 49.8747 57.7306C49.8825 57.8507 49.8662 57.9711 49.8268 58.0848C49.7873 58.1985 49.7256 58.3031 49.6451 58.3926C49.5647 58.4821 49.4671 58.5545 49.3582 58.6058C49.2494 58.657 49.1313 58.6859 49.0111 58.6909C48.8908 58.6996 48.7699 58.6837 48.6559 58.6443C48.5418 58.6049 48.437 58.5428 48.3476 58.4617L47.5899 57.7864H47.5905C47.5704 57.7635 47.548 57.7428 47.5237 57.7244L43.1609 53.8213C43.0418 53.7143 42.8851 53.659 42.7252 53.6676C42.5654 53.6762 42.4155 53.748 42.3085 53.8671C42.2015 53.9862 42.1463 54.1429 42.1548 54.3028C42.1634 54.4627 42.2352 54.6126 42.3543 54.7196L46.7183 58.6288C46.7232 58.635 46.7275 58.6412 46.7325 58.6412H46.7338L46.7598 58.666C46.9336 58.8248 47.0403 59.0439 47.0584 59.2787C47.0765 59.5134 47.0045 59.7462 46.8572 59.9298L46.8509 59.936H46.8515L46.8298 59.9608C46.6719 60.1364 46.4526 60.2446 46.2171 60.263C45.9817 60.2815 45.7482 60.2088 45.5648 60.06L45.5586 60.0538L45.5326 60.0352L45.1156 59.6573C45.1101 59.6511 45.1063 59.6511 45.1008 59.6449H45.0996L41.3375 56.2747C41.2173 56.1694 41.0605 56.1159 40.901 56.1258C40.7415 56.1356 40.5924 56.2081 40.4861 56.3274C40.3798 56.4466 40.325 56.6031 40.3335 56.7626C40.342 56.9221 40.4131 57.0718 40.5315 57.1792L44.2431 60.4998H44.2419C44.2591 60.5185 44.2785 60.5352 44.2995 60.5494C44.4612 60.7116 44.5574 60.9278 44.5696 61.1565C44.5833 61.3879 44.5089 61.6159 44.3614 61.7947H44.3608C44.3429 61.8133 44.3262 61.8318 44.3106 61.8504C44.1447 62.018 43.9209 62.1158 43.6852 62.1239C43.4494 62.1319 43.2195 62.0496 43.0424 61.8937L40.8642 59.9422C40.9064 59.7719 40.928 59.5972 40.9286 59.4218C40.9298 58.8627 40.7095 58.3259 40.316 57.9287L40.298 57.9102C40.057 57.6656 39.7576 57.4865 39.428 57.3898C39.6066 57.0696 39.7007 56.7093 39.7012 56.3427C39.7017 56.0632 39.647 55.7863 39.5402 55.528C39.4335 55.2697 39.2768 55.0349 39.0792 54.8373C38.8194 54.5754 38.4946 54.3872 38.1382 54.2921C38.2636 54.0137 38.3287 53.7118 38.329 53.4064C38.329 53.0105 38.2187 52.6223 38.0104 52.2855C37.8021 51.9487 37.5042 51.6766 37.1499 51.4997C36.7956 51.3228 36.3991 51.2481 36.0047 51.284C35.6104 51.3198 35.2338 51.4649 34.9173 51.7028C34.8133 51.3964 34.6394 51.1185 34.4092 50.8911C34.2118 50.6928 33.9772 50.5354 33.7188 50.4281C33.4604 50.3207 33.1833 50.2654 32.9035 50.2654C32.6237 50.2654 32.3466 50.3207 32.0882 50.4281C31.8298 50.5354 31.5952 50.6928 31.3978 50.8911L30.4715 51.8142L29.6575 50.4513C29.6035 50.3611 29.5271 50.2864 29.4357 50.2345L28.2233 49.4848L28.2237 49.4847ZM54.417 39.2566C54.4232 39.2752 54.4282 39.2939 54.4327 39.3062L57.9887 50.414L62 49.1255L58.1517 37.1129L54.1404 38.3953L54.4173 39.2564L54.417 39.2566ZM53.4425 40.1859L50.8666 40.7745C50.7872 40.7919 50.7051 40.794 50.6249 40.7807L42.6677 39.4483C42.5776 39.4335 42.4854 39.4377 42.397 39.4606C42.3102 39.4867 42.23 39.5311 42.1619 39.5908L36.9536 44.2124L36.9734 49.1563C37.2557 49.2875 37.5733 49.3224 37.8773 49.2554C38.2137 49.1624 38.552 48.927 38.8902 48.5367C38.9038 48.5181 38.9181 48.5057 38.9336 48.4872H38.9323C39.1789 48.2579 39.3771 47.911 39.528 47.4526C39.6952 46.951 39.7999 46.3253 39.8421 45.5754C39.8444 45.5291 39.8526 45.4834 39.8662 45.4391C39.9995 44.9874 40.2718 44.5892 40.6444 44.3011C41.017 44.013 41.4709 43.8498 41.9417 43.8345C42.0238 43.8316 42.1056 43.8456 42.1822 43.8754C42.2588 43.9052 42.3285 43.9504 42.3871 44.008L51.9769 53.4246L56.5552 49.9055L53.4427 40.1857L53.4425 40.1859ZM38.154 58.7715L37.3389 59.5892C37.2538 59.6734 37.1863 59.7738 37.1406 59.8844C37.0948 59.9951 37.0716 60.1137 37.0724 60.2335C37.0719 60.477 37.1677 60.7109 37.3389 60.884C37.5113 61.0547 37.7441 61.1504 37.9867 61.1504C38.2292 61.1504 38.462 61.0547 38.6344 60.884L39.4472 60.0725C39.6142 59.8998 39.7067 59.6686 39.705 59.4285C39.7034 59.1884 39.6076 58.9585 39.4383 58.7881C39.269 58.6178 39.0397 58.5207 38.7996 58.5176C38.5595 58.5144 38.3277 58.6056 38.154 58.7715ZM37.2919 57.9165H37.2956L38.2204 56.9872C38.3055 56.9029 38.3729 56.8025 38.4186 56.6919C38.4644 56.5813 38.4876 56.4626 38.4869 56.3429C38.4879 56.2225 38.4649 56.103 38.4194 55.9916C38.3739 55.8801 38.3066 55.7787 38.2216 55.6934C38.1366 55.6081 38.0355 55.5405 37.9242 55.4946C37.8129 55.4487 37.6935 55.4253 37.5731 55.4259C37.4529 55.4249 37.3337 55.448 37.2225 55.4938C37.1113 55.5395 37.0104 55.6071 36.9257 55.6924L35.1842 57.4332C35.0141 57.6057 34.9187 57.8381 34.9184 58.0803C34.9182 58.3226 35.0132 58.5552 35.183 58.728L35.1879 58.7342C35.3604 58.9019 35.5917 58.9952 35.8322 58.9944C35.9525 58.9953 36.0718 58.9722 36.1831 58.9264C36.2944 58.8807 36.3954 58.8132 36.4802 58.7279L37.2918 57.9163L37.2919 57.9165ZM36.0675 54.8374L36.8481 54.0507C36.9334 53.9666 37.001 53.8662 37.047 53.7556C37.0929 53.6449 37.1163 53.5262 37.1157 53.4064C37.1157 53.2253 37.062 53.0483 36.9615 52.8977C36.861 52.7471 36.7182 52.6296 36.5511 52.56C36.3839 52.4904 36.1999 52.4719 36.0222 52.5068C35.8445 52.5416 35.6811 52.6283 35.5527 52.7558L34.4096 53.9019L33.0322 55.2773C32.8607 55.4504 32.7647 55.6842 32.7651 55.9278C32.7662 56.1083 32.8205 56.2845 32.9213 56.4342C33.0221 56.5839 33.1649 56.7005 33.3318 56.7693C33.4986 56.8382 33.6821 56.8562 33.8591 56.8211C34.0362 56.786 34.1989 56.6994 34.3269 56.5721H34.3276L36.0675 54.8374ZM33.551 53.0406C33.6363 52.9565 33.7039 52.8561 33.7499 52.7455C33.7958 52.6348 33.8192 52.5161 33.8186 52.3963C33.8185 52.2153 33.7649 52.0383 33.6644 51.8877C33.5639 51.737 33.4211 51.6195 33.2539 51.55C33.0868 51.4804 32.9028 51.4619 32.7251 51.4967C32.5474 51.5316 32.384 51.6182 32.2555 51.7458L30.8777 53.1276C30.7926 53.2118 30.7251 53.3121 30.6793 53.4228C30.6336 53.5335 30.6104 53.6522 30.6113 53.7719C30.6103 53.8923 30.6332 54.0118 30.6788 54.1232C30.7243 54.2347 30.7915 54.3361 30.8765 54.4214C30.9615 54.5067 31.0626 54.5742 31.174 54.6202C31.2853 54.6661 31.4046 54.6895 31.5251 54.6889C31.7675 54.6878 32 54.5922 32.1731 54.4224L33.551 53.0406Z" fill="white"/>
<defs>
<linearGradient id="paint0_linear_316_155" x1="42" y1="0" x2="33.1505" y2="108.858" gradientUnits="userSpaceOnUse">
<stop stop-color="#6C60E1"/>
<stop offset="1" stop-color="#6C60E1" stop-opacity="0.55"/>
</linearGradient>
</defs>
</svg>
