<svg width="84" height="84" viewBox="0 0 84 84" fill="none" xmlns="http://www.w3.org/2000/svg">
<circle cx="42" cy="42" r="42" fill="url(#paint0_linear_348_763)"/>
<path d="M43.7676 57H25.2337C23.4484 57 22 55.5516 22 53.7663C22 50.0663 23.5002 46.716 25.9255 44.2908C28.3481 41.8681 31.6984 40.3679 35.3984 40.3679H37.6371C42.1326 40.3679 46.1099 42.5807 48.5403 45.9776C44.3376 46.5424 41.2465 49.1646 41.2465 52.4138C41.2465 54.2198 42.2 55.8288 43.7676 57Z" fill="white"/>
<path d="M36.5176 37.5152C40.5258 37.5152 43.7752 34.2658 43.7752 30.2576C43.7752 26.2493 40.5258 23 36.5176 23C32.5093 23 29.26 26.2493 29.26 30.2576C29.26 34.2658 32.5093 37.5152 36.5176 37.5152Z" fill="white"/>
<path d="M60.8812 31.465C60.8475 31.066 60.4226 30.8224 60.0624 30.9986L51.8617 34.9733V48.0686C51.3409 47.9883 50.7968 47.9416 50.2345 47.9416C46.4153 47.9416 43.3215 49.9445 43.3215 52.4138C43.3215 54.8857 46.4179 56.886 50.2345 56.886C54.0537 56.886 57.1475 54.8831 57.1475 52.4138C57.1475 52.3827 57.1449 52.3542 57.1449 52.3231H57.1475V40.2254L61.0626 38.9247C61.275 38.8211 61.402 38.5982 61.3839 38.3624L60.8812 31.465Z" fill="white"/>
<defs>
<linearGradient id="paint0_linear_348_763" x1="42" y1="0" x2="33.1505" y2="108.858" gradientUnits="userSpaceOnUse">
<stop stop-color="#6C60E1"/>
<stop offset="1" stop-color="#6C60E1" stop-opacity="0.55"/>
</linearGradient>
</defs>
</svg>
