<svg width="84" height="84" viewBox="0 0 84 84" fill="none" xmlns="http://www.w3.org/2000/svg">
<circle cx="42" cy="42" r="42" fill="url(#paint0_linear_316_157)"/>
<path d="M46.2474 57.0207C46.5187 57.166 46.795 57.3012 47.0755 57.4255V57.6993C47.0755 58.4636 46.4515 59.0876 45.6872 59.0876H40.1258V50.59C40.1258 50.2071 39.8142 49.8946 39.4304 49.8946C39.0474 49.8946 38.7375 50.2062 38.7375 50.59V59.0867H29.3396V50.59C29.3396 50.2071 29.0281 49.8946 28.6443 49.8946C28.2604 49.8946 27.9514 50.2062 27.9514 50.59V59.0867H22.3883C21.6265 59.0867 21 58.4636 21 57.6993V49.9644C21 44.9463 25.1068 40.8395 30.1224 40.8395H37.9522C39.1709 40.8395 40.3349 41.0822 41.3998 41.5206C41.0832 42.137 40.8237 42.782 40.6213 43.4438L39.4354 43.8293C38.6023 44.1006 38.0455 44.8673 38.0455 45.7433V47.8622C38.0455 48.7382 38.6023 49.505 39.4354 49.7762L40.6229 50.1617C40.8421 50.8924 41.1344 51.5995 41.4964 52.2706L40.9278 53.385C40.7345 53.7635 40.6664 54.1936 40.7331 54.6133C40.7998 55.033 40.9979 55.4207 41.299 55.7206L42.7965 57.2181C43.4154 57.8371 44.3535 57.9874 45.1346 57.5893L46.2474 57.0207ZM34.0394 37.8824C37.5869 37.8824 40.4793 34.9874 40.4793 31.4399C40.4793 27.8924 37.5869 25 34.0394 25C30.4919 25 27.597 27.8924 27.597 31.4399C27.597 34.9874 30.4919 37.8824 34.0394 37.8824ZM51.4183 45.2604L54.2914 44.7775V44.1106L51.4183 44.5936V45.2604ZM53.8463 48.0142C53.7228 48.0142 53.6103 48.0621 53.5322 48.1427C53.4516 48.2234 53.4012 48.3359 53.4012 48.4568C53.4012 48.5803 53.4516 48.6928 53.5322 48.7709C53.6111 48.8516 53.7228 48.902 53.8463 48.902C53.9681 48.902 54.0798 48.8516 54.1604 48.7709C54.241 48.692 54.2914 48.5803 54.2914 48.4568C54.2914 48.3351 54.241 48.2234 54.1604 48.1427C54.0798 48.0621 53.9672 48.0142 53.8463 48.0142ZM49.5874 48.7315C49.464 48.7315 49.3514 48.7819 49.2708 48.8625C49.1919 48.9431 49.1423 49.0531 49.1423 49.1766C49.1423 49.2984 49.1927 49.4101 49.2708 49.4907C49.3514 49.5713 49.464 49.6217 49.5874 49.6217C49.7092 49.6217 49.8209 49.5713 49.9015 49.4907C49.9836 49.4067 50.0297 49.294 50.03 49.1766C50.03 49.0531 49.9796 48.9431 49.9015 48.8625C49.8604 48.821 49.8115 48.7881 49.7576 48.7656C49.7037 48.7431 49.6459 48.7315 49.5874 48.7315ZM55.998 42.52C57.0956 43.6151 57.7717 45.1294 57.7717 46.8032C57.7717 48.477 57.0956 49.9912 55.998 51.0864C54.9028 52.1815 53.3886 52.8601 51.7148 52.8601C50.0435 52.8601 48.5292 52.1815 47.4316 51.0864C46.3364 49.9912 45.6578 48.477 45.6578 46.8032C45.6578 45.1294 46.3364 43.6151 47.4316 42.52C48.5292 41.4248 50.0435 40.7462 51.7148 40.7462C53.3894 40.7462 54.9028 41.4248 55.998 42.52ZM55.6771 43.291C55.6771 43.2532 55.6721 43.2145 55.6679 43.1767C55.6371 42.9957 55.5359 42.8343 55.3864 42.7278C55.2368 42.6212 55.0512 42.5782 54.8701 42.6082L50.654 43.3204C50.3038 43.3565 50.03 43.6513 50.03 44.0107V47.3986C49.8898 47.3625 49.7395 47.344 49.5874 47.344C49.0802 47.344 48.6233 47.5515 48.2924 47.8824C48.1213 48.0518 47.9856 48.2535 47.8931 48.4758C47.8007 48.6982 47.7534 48.9366 47.7541 49.1774C47.7541 49.6822 47.959 50.1416 48.2924 50.4725C48.6233 50.8034 49.0802 51.0083 49.5874 51.0083C50.0922 51.0083 50.5491 50.8034 50.8825 50.4725C51.2134 50.1416 51.4183 49.6822 51.4183 49.1774V46.6654L54.2914 46.1825V46.6822C54.1486 46.6461 53.9983 46.6277 53.8463 46.6277C53.339 46.6277 52.8821 46.8326 52.5512 47.1635C52.2178 47.4969 52.0129 47.9538 52.0129 48.4585C52.0129 48.9658 52.2178 49.4227 52.5512 49.7536C52.8821 50.087 53.339 50.2919 53.8463 50.2919C54.351 50.2919 54.8104 50.087 55.1413 49.7536C55.4722 49.4227 55.6771 48.9658 55.6771 48.4585V43.291ZM64 45.7433V47.8622C64 48.1385 63.8312 48.372 63.5692 48.4577L61.9928 48.9691C61.7853 49.0355 61.6384 49.1925 61.5812 49.405C61.3453 50.3028 60.9883 51.1544 60.5314 51.9405C60.4223 52.1286 60.4147 52.3428 60.5146 52.5376L61.2671 54.0132C61.3906 54.2585 61.3461 54.544 61.1529 54.7397L59.653 56.2371C59.4581 56.432 59.1717 56.4773 58.9265 56.3539L57.4509 55.6014C57.2561 55.5014 57.0411 55.5065 56.8538 55.6182C56.0685 56.0751 55.2186 56.432 54.3183 56.668C54.1066 56.7251 53.9496 56.8729 53.8824 57.0795L53.3709 58.6559C53.2853 58.9179 53.0518 59.0867 52.7755 59.0867H50.6566C50.3828 59.0867 50.1468 58.9179 50.0636 58.6559L49.5522 57.0795C49.4833 56.8721 49.3288 56.7251 49.1163 56.668C48.2275 56.4346 47.3745 56.0814 46.5808 55.6182C46.3902 55.5065 46.176 55.5014 45.9812 55.6014L44.5055 56.3539C44.2603 56.4773 43.9748 56.4328 43.7791 56.2371L42.2816 54.7397C42.0868 54.5449 42.0414 54.2585 42.1674 54.0132L42.9199 52.5376C43.0173 52.3428 43.0131 52.1278 42.9006 51.9405C42.4437 51.1553 42.0868 50.3028 41.8508 49.405C41.7962 49.1934 41.6484 49.0363 41.4393 48.9691L39.8654 48.4577C39.6034 48.372 39.4321 48.1385 39.4321 47.8622V45.7433C39.4321 45.467 39.6034 45.2335 39.8654 45.1479L41.4393 44.6381C41.6484 44.5692 41.7937 44.4147 41.8508 44.2022C42.0868 43.3027 42.4437 42.4503 42.9006 41.6667C43.0123 41.4761 43.0173 41.2619 42.9199 41.0671L42.1674 39.5914C42.0414 39.3462 42.0868 39.0607 42.2816 38.865L43.7791 37.3675C43.9739 37.1727 44.2603 37.1273 44.5055 37.2508L45.9812 38.0033C46.176 38.1032 46.391 38.0982 46.5808 37.9865C47.3644 37.5296 48.216 37.1727 49.1163 36.9367C49.3279 36.8796 49.4833 36.7318 49.5522 36.5252L50.0636 34.9488C50.1468 34.6868 50.3828 34.5179 50.6566 34.5179H52.7755C53.0518 34.5179 53.2853 34.6868 53.3709 34.9488L53.8824 36.5252C53.9487 36.7326 54.1058 36.8796 54.3183 36.9367C55.2178 37.1727 56.0677 37.5296 56.8538 37.9865C57.0419 38.0982 57.2561 38.1032 57.4509 38.0033L58.9265 37.2508C59.1717 37.1273 59.4573 37.1719 59.653 37.3675L61.1529 38.865C61.3461 39.0598 61.3906 39.3462 61.2671 39.5914L60.5146 41.0671C60.4147 41.2619 60.4214 41.4769 60.5314 41.6667C60.9883 42.4503 61.3453 43.3019 61.5838 44.2022C61.6384 44.4138 61.7862 44.5692 61.9936 44.6381L63.57 45.1479C63.8304 45.2335 64 45.467 64 45.7433ZM59.16 46.8023C59.16 44.7481 58.3269 42.8862 56.9789 41.539C55.6318 40.1919 53.7724 39.358 51.7156 39.358C49.6613 39.358 47.7994 40.1911 46.4523 41.539C45.1052 42.887 44.2712 44.7481 44.2712 46.8023C44.2712 48.8566 45.1044 50.7185 46.4523 52.0656C47.7994 53.4128 49.6613 54.2467 51.7156 54.2467C53.7724 54.2467 55.6318 53.4136 56.9789 52.0656C58.3269 50.7185 59.16 48.8574 59.16 46.8023Z" fill="white"/>
<defs>
<linearGradient id="paint0_linear_316_157" x1="42" y1="0" x2="33.1505" y2="108.858" gradientUnits="userSpaceOnUse">
<stop stop-color="#5498FF"/>
<stop offset="1" stop-color="#86D3FF"/>
</linearGradient>
</defs>
</svg>
