<svg width="84" height="84" viewBox="0 0 84 84" fill="none" xmlns="http://www.w3.org/2000/svg">
<circle cx="42" cy="42" r="42" fill="url(#paint0_linear_316_159)"/>
<path d="M45.2477 62H45.1492C44.7028 61.9784 44.2757 61.8116 43.9327 61.5249C43.5898 61.2383 43.3499 60.8475 43.2494 60.412L37.909 37.2449L32.8763 55.7097C32.7621 56.1284 32.5181 56.5002 32.1793 56.7716C31.8405 57.0429 31.4244 57.1998 30.9908 57.2197C30.5572 57.2432 30.1274 57.1269 29.7647 56.8879C29.4021 56.649 29.1257 56.3 28.9761 55.8923L23.7752 42.0273L23.0202 44.1712C22.9419 44.4381 22.8101 44.6862 22.6329 44.9005C22.4557 45.1148 22.2369 45.2909 21.9895 45.418C21.7422 45.5451 21.4716 45.6207 21.1942 45.64C20.9168 45.6593 20.6384 45.622 20.3758 45.5304C20.1132 45.4388 19.872 45.2948 19.6669 45.1071C19.4617 44.9194 19.2968 44.692 19.1822 44.4386C19.0677 44.1852 19.0058 43.9112 19.0004 43.6332C18.995 43.3551 19.0462 43.0789 19.1508 42.8213L21.7769 35.3471C21.9167 34.9498 22.1754 34.6052 22.5179 34.36C22.8603 34.1148 23.2699 33.981 23.6911 33.9766H23.7116C24.1295 33.9764 24.5375 34.1037 24.8811 34.3417C25.2246 34.5796 25.4873 34.9168 25.634 35.3081L30.5825 48.5064L36.0892 28.31C36.2087 27.8683 36.4726 27.4792 36.8387 27.2047C37.2048 26.9302 37.6522 26.7859 38.1097 26.7949C38.5672 26.8038 39.0086 26.9655 39.3637 27.2542C39.7188 27.5428 39.9671 27.9419 40.0693 28.388L45.6088 52.3922L55.2679 23.4045C55.3962 22.9866 55.6587 22.6226 56.0148 22.3689C56.3708 22.1153 56.8006 21.986 57.2375 22.0012C57.6721 22.0063 58.0939 22.1494 58.442 22.4097C58.79 22.67 59.0465 23.0342 59.1742 23.4497L64.0797 39.3622C64.2399 39.8824 64.187 40.4449 63.9325 40.9261C63.6779 41.4072 63.2427 41.7675 62.7225 41.9278C62.2023 42.088 61.6398 42.0351 61.1587 41.7805C60.6775 41.526 60.3172 41.0908 60.157 40.5706L57.1369 30.7699L47.1947 60.5967C47.0586 61.0054 46.7972 61.3609 46.4478 61.6127C46.0983 61.8646 45.6785 62.0001 45.2477 62Z" fill="white"/>
<defs>
<linearGradient id="paint0_linear_316_159" x1="42" y1="0" x2="33.1505" y2="108.858" gradientUnits="userSpaceOnUse">
<stop stop-color="#6C60E1"/>
<stop offset="1" stop-color="#6C60E1" stop-opacity="0.55"/>
</linearGradient>
</defs>
</svg>
