<svg width="45" height="50" viewBox="0 0 45 50" fill="none" xmlns="http://www.w3.org/2000/svg">
<path d="M11.3093 34.4119C11.3093 33.6508 10.7015 33.0346 9.95056 33.0346C9.19966 33.0346 8.59179 33.6508 8.59179 34.4119C8.59179 35.1731 9.19966 35.7893 9.95056 35.7893C10.7015 35.8074 11.3093 35.1731 11.3093 34.4119Z" fill="#5D5D5D"/>
<path d="M16.8712 34.4119C16.8712 33.6508 16.2633 33.0346 15.5124 33.0346C14.7615 33.0346 14.1536 33.6508 14.1536 34.4119C14.1536 35.1731 14.7615 35.7893 15.5124 35.7893C16.2454 35.8074 16.8712 35.1731 16.8712 34.4119Z" fill="#5D5D5D"/>
<path d="M22.434 34.4119C22.434 33.6508 21.8262 33.0346 21.0753 33.0346C20.3244 33.0346 19.7165 33.6508 19.7165 34.4119C19.7165 35.1731 20.3244 35.7893 21.0753 35.7893C21.8083 35.8074 22.434 35.1731 22.434 34.4119Z" fill="#5D5D5D"/>
<path d="M44.7977 15.9627C43.7787 5.81382 34.8751 -0.221125 25.1671 0.304442C25.1134 2.42483 25.1313 13.7336 25.1492 23.2662C22.5747 20.9828 19.1956 19.5873 15.5127 19.5873C7.43155 19.5873 0.870117 26.2384 0.870117 34.43C0.870117 42.6216 7.43155 49.2727 15.5127 49.2727C19.5532 49.2727 23.2004 47.6054 25.8643 44.9232L19.6247 43.2196C18.3732 43.8177 16.9966 44.162 15.5305 44.162C10.2385 44.162 5.92975 39.7944 5.92975 34.43C5.92975 29.0656 10.2385 24.698 15.5305 24.698C20.8226 24.698 25.1313 29.0656 25.1313 34.43C25.1313 35.9161 24.7916 37.3297 24.2016 38.5802L25.8822 44.9051C28.5283 42.2229 30.1731 38.5077 30.1731 34.4119V5.68696C38.719 7.19117 42.3305 13.5161 44.4402 21.3996C44.762 19.6417 44.9944 17.7569 44.7977 15.9627Z" fill="url(#paint0_linear_348_764)"/>
<defs>
<linearGradient id="paint0_linear_348_764" x1="22.8701" y1="0.272705" x2="17.1304" y2="63.6734" gradientUnits="userSpaceOnUse">
<stop stop-color="#6C60E1"/>
<stop offset="1" stop-color="#6C60E1" stop-opacity="0.55"/>
</linearGradient>
</defs>
</svg>
